{
copyright = "Copyright \U00A9 2014, Parker Bennett <parkerbennett.com> with Reserved Font Name <Stackicons-Social>, SIL Open Font License 1.1";
customParameters = (
{
name = vendorID;
value = STAC;
}
);
date = "2014-02-03 22:20:42 +0000";
designer = "Parker Bennett";
designerURL = "http://parkerbennett.com";
familyName = "Stackicons-Social-Minimal";
featurePrefixes = (
{
automatic = 1;
code = "languagesystem DFLT dflt;\012languagesystem latn dflt;\012";
name = Languagesystems;
}
);
fontMaster = (
{
ascender = 1691;
capHeight = 1467;
customParameters = (
{
name = typoAscender;
value = 1491;
},
{
name = typoDescender;
value = "-431";
},
{
name = typoLineGap;
value = 307;
},
{
name = underlinePosition;
value = "-217";
}
);
descender = "-431";
id = "06D35582-4FA2-40C1-8C5B-DEFCD1A2473F";
userData = {
GSOffsetHorizontal = 24;
GSOffsetProportional = 1;
GSOffsetVertical = "-32";
};
weightValue = 400;
widthValue = 5;
xHeight = 1062;
}
);
glyphs = (
{
glyphname = A;
lastChange = "2014-02-03 19:50:56 -0800";
layers = (
{
layerId = "06D35582-4FA2-40C1-8C5B-DEFCD1A2473F";
name = Regular;
paths = (
{
closed = 1;
nodes = (
"335 254 LINE",
"539.035 254.65 LINE",
"735.293 546.227 LINE",
"1664.7 546.227 LINE",
"1860.97 254.65 LINE",
"2065 254 LINE",
"1199.99 1536 LINE"
);
},
{
closed = 1;
nodes = (
"1550.7 714.316 LINE",
"849.295 714.316 LINE",
"1199.99 1234.86 LINE"
);
}
);
width = 2400;
}
);
unicode = 0041;
},
{
glyphname = g;
layers = (
{
layerId = "06D35582-4FA2-40C1-8C5B-DEFCD1A2473F";
name = Regular;
paths = (
{
closed = 1;
nodes = (
"256 1969 LINE SMOOTH",
"114.615 1969 OFFCURVE",
"0 1854.39 OFFCURVE",
"0 1713 CURVE SMOOTH",
"0 -175 LINE SMOOTH",
"0 -316 OFFCURVE",
"114.615 -431 OFFCURVE",
"256 -431 CURVE SMOOTH",
"2144 -431 LINE SMOOTH",
"2285.38 -431 OFFCURVE",
"2400 -316 OFFCURVE",
"2400 -175 CURVE SMOOTH",
"2400 1713 LINE SMOOTH",
"2400 1854.39 OFFCURVE",
"2285.38 1969 OFFCURVE",
"2144 1969 CURVE SMOOTH"
);
},
{
closed = 1;
nodes = (
"1859.78 1305.93 OFFCURVE",
"1905.02 1276.96 OFFCURVE",
"1951.03 1197.8 CURVE SMOOTH",
"2016.2 1085.67 OFFCURVE",
"2016.36 448.817 OFFCURVE",
"1951.03 336.778 CURVE SMOOTH",
"1904.9 257.684 OFFCURVE",
"1859.78 228.65 OFFCURVE",
"1737.45 220.641 CURVE SMOOTH",
"1472.08 203.269 OFFCURVE",
"927.923 203.261 OFFCURVE",
"662.551 220.641 CURVE SMOOTH",
"540.219 228.65 OFFCURVE",
"495.098 257.684 OFFCURVE",
"448.973 336.778 CURVE SMOOTH",
"383.637 448.817 OFFCURVE",
"383.637 1085.76 OFFCURVE",
"448.972 1197.8 CURVE SMOOTH",
"495.097 1276.9 OFFCURVE",
"540.218 1305.93 OFFCURVE",
"662.55 1313.94 CURVE SMOOTH",
"927.851 1331.31 OFFCURVE",
"1472.15 1333 OFFCURVE",
"1737.45 1313.94 CURVE SMOOTH"
);
},
{
closed = 1;
nodes = (
"1036 1000 LINE",
"1036 536 LINE",
"1452 768 LINE"
);
}
);
width = 2400;
}
);
unicode = 0067;
},
{
glyphname = greater;
layers = (
{
layerId = "06D35582-4FA2-40C1-8C5B-DEFCD1A2473F";
name = Regular;
paths = (
{
closed = 1;
nodes = (
"778 1478 LINE",
"636.78 1350.84 LINE",
"1162 768 LINE",
"636.78 185.162 LINE",
"778 58 LINE",
"1418 768 LINE"
);
}
);
width = 2028;
}
);
unicode = 003E;
},
{
glyphname = less;
layers = (
{
layerId = "06D35582-4FA2-40C1-8C5B-DEFCD1A2473F";
name = Regular;
paths = (
{
closed = 1;
nodes = (
"1248 1478 LINE",
"608 768 LINE",
"1248 58 LINE",
"1389.22 185.159 LINE",
"864 768 LINE",
"1389.22 1350.85 LINE"
);
}
);
width = 2028;
}
);
unicode = 003C;
},
{
glyphname = multiply;
lastChange = "2013-09-05 16:56:31 -0800";
layers = (
{
layerId = "06D35582-4FA2-40C1-8C5B-DEFCD1A2473F";
name = Regular;
paths = (
{
closed = 1;
nodes = (
"1200 685.826 LINE",
"869.258 1016.65 LINE SMOOTH",
"825.578 1060.35 OFFCURVE",
"754.758 1060.35 OFFCURVE",
"711.079 1016.65 CURVE SMOOTH",
"667.399 972.971 OFFCURVE",
"667.397 902.131 OFFCURVE",
"711.079 858.433 CURVE SMOOTH",
"1041.81 527.605 LINE",
"711.079 196.776 LINE SMOOTH",
"667.399 153.085 OFFCURVE",
"667.397 82.2457 OFFCURVE",
"711.079 38.5553 CURVE SMOOTH",
"754.758 -5 OFFCURVE",
"825.578 -5 OFFCURVE",
"869.259 38.5553 CURVE SMOOTH",
"1200 369.383 LINE",
"1530.74 38.5553 LINE SMOOTH",
"1574.42 -5 OFFCURVE",
"1645.24 -5 OFFCURVE",
"1688.92 38.5553 CURVE SMOOTH",
"1732.6 82.247 OFFCURVE",
"1732.6 153.087 OFFCURVE",
"1688.92 196.776 CURVE SMOOTH",
"1358.19 527.605 LINE",
"1688.92 858.433 LINE SMOOTH",
"1732.6 902.118 OFFCURVE",
"1732.6 972.958 OFFCURVE",
"1688.92 1016.65 CURVE SMOOTH",
"1645.24 1060.35 OFFCURVE",
"1574.42 1060.35 OFFCURVE",
"1530.74 1016.65 CURVE SMOOTH"
);
},
{
closed = 1;
nodes = (
"599.114 1615.61 OFFCURVE",
"112 1128.37 OFFCURVE",
"112 527.326 CURVE SMOOTH",
"112 -74 OFFCURVE",
"599.114 -560 OFFCURVE",
"1200 -560 CURVE SMOOTH",
"1800.89 -560 OFFCURVE",
"2288 -74 OFFCURVE",
"2288 527.326 CURVE SMOOTH",
"2288 1128.37 OFFCURVE",
"1800.89 1615.61 OFFCURVE",
"1200 1615.61 CURVE SMOOTH"
);
},
{
closed = 1;
nodes = (
"719.502 -337 OFFCURVE",
"329.346 50.1442 OFFCURVE",
"329.346 527.609 CURVE SMOOTH",
"329.346 1005.08 OFFCURVE",
"719.502 1392.13 OFFCURVE",
"1200 1392.13 CURVE SMOOTH",
"1680.5 1392.13 OFFCURVE",
"2070.02 1005.08 OFFCURVE",
"2070.02 527.609 CURVE SMOOTH",
"2070.02 50.1442 OFFCURVE",
"1680.5 -337 OFFCURVE",
"1200 -337 CURVE SMOOTH"
);
}
);
width = 2400;
}
);
unicode = 00D7;
},
{
glyphname = plus;
layers = (
{
layerId = "06D35582-4FA2-40C1-8C5B-DEFCD1A2473F";
name = Regular;
paths = (
{
closed = 1;
nodes = (
"1385 1441 LINE",
"1017 1441 LINE",
"1017 953 LINE",
"529 953 LINE",
"529 585 LINE",
"1017 585 LINE",
"1017 97 LINE",
"1385 97 LINE",
"1385 585 LINE",
"1873 585 LINE",
"1873 953 LINE",
"1385 953 LINE"
);
}
);
width = 2400;
}
);
unicode = 002B;
},
{
glyphname = arrowleft;
lastChange = "2013-11-02 08:13:45 -0800";
layers = (
{
layerId = "06D35582-4FA2-40C1-8C5B-DEFCD1A2473F";
name = Regular;
paths = (
{
closed = 1;
nodes = (
"912.388 28.5808 OFFCURVE",
"912.388 128.822 OFFCURVE",
"850.883 204.008 CURVE",
"661.81 379.43 LINE",
"746.087 363.483 LINE",
"1349.81 363.483 LINE SMOOTH",
"1445.5 363.483 OFFCURVE",
"1522.96 438.668 OFFCURVE",
"1520.72 534.214 CURVE",
"1522.96 630.039 OFFCURVE",
"1445.5 705.22 OFFCURVE",
"1349.81 705.22 CURVE SMOOTH",
"746.087 705.22 LINE",
"661.81 689.272 LINE",
"850.883 864.698 LINE",
"912.388 939.441 OFFCURVE",
"912.388 1039.77 OFFCURVE",
"841.754 1105 CURVE",
"771.145 1168 OFFCURVE",
"666.343 1160 OFFCURVE",
"600.281 1090 CURVE SMOOTH",
"96.4977 586.753 LINE",
"73.1677 560.222 OFFCURVE",
"73.1677 508.48 OFFCURVE",
"96.4977 481.954 CURVE",
"600.281 -22 LINE SMOOTH",
"668.682 -90 OFFCURVE",
"771.145 -99 OFFCURVE",
"841.754 -38 CURVE"
);
}
);
width = 1600.77;
}
);
unicode = 2190;
},
{
glyphname = arrowright;
lastChange = "2013-11-02 08:14:06 -0800";
layers = (
{
layerId = "06D35582-4FA2-40C1-8C5B-DEFCD1A2473F";
name = Regular;
paths = (
{
closed = 1;
nodes = (
"687.38 1034.42 OFFCURVE",
"687.38 934.179 OFFCURVE",
"748.885 858.993 CURVE",
"937.958 683.571 LINE",
"853.681 699.518 LINE",
"249.955 699.518 LINE SMOOTH",
"154.264 699.518 OFFCURVE",
"76.8066 624.333 OFFCURVE",
"79.0476 528.787 CURVE",
"76.8066 432.962 OFFCURVE",
"154.264 357.781 OFFCURVE",
"249.955 357.781 CURVE SMOOTH",
"853.681 357.781 LINE",
"937.958 373.729 LINE",
"748.885 198.303 LINE",
"687.38 123.56 OFFCURVE",
"687.38 23.2275 OFFCURVE",
"758.014 -42 CURVE",
"828.623 -105 OFFCURVE",
"933.425 -97 OFFCURVE",
"999.487 -27 CURVE SMOOTH",
"1503.27 476.248 LINE",
"1526.6 502.779 OFFCURVE",
"1526.6 554.521 OFFCURVE",
"1503.27 581.047 CURVE",
"999.487 1084.54 LINE SMOOTH",
"931.086 1152.9 OFFCURVE",
"828.623 1162 OFFCURVE",
"758.014 1100.49 CURVE"
);
}
);
width = 1600.77;
}
);
unicode = 2192;
},
{
glyphname = triagdn;
lastChange = "2013-12-04 21:13:03 -0800";
layers = (
{
layerId = "06D35582-4FA2-40C1-8C5B-DEFCD1A2473F";
name = Regular;
paths = (
{
closed = 1;
nodes = (
"1724 1008 LINE",
"304 1008 LINE",
"1014 368 LINE"
);
}
);
width = 2028;
}
);
unicode = 25BC;
},
{
glyphname = envelope;
lastChange = "2013-12-12 19:50:20 -0800";
layers = (
{
layerId = "06D35582-4FA2-40C1-8C5B-DEFCD1A2473F";
name = Regular;
paths = (
{
closed = 1;
nodes = (
"214 128 LINE",
"2186 128 LINE",
"2186 1410 LINE",
"214 1410 LINE"
);
},
{
closed = 1;
nodes = (
"324 235 LINE",
"324 1142 LINE",
"1200 509 LINE",
"2076 1142 LINE",
"2076 235 LINE"
);
},
{
closed = 1;
nodes = (
"300 1303 LINE",
"2100 1303 LINE",
"1200 653 LINE"
);
}
);
width = 2400;
}
);
unicode = 2709;
},
{
glyphname = trigramForHeaven;
layers = (
{
layerId = "06D35582-4FA2-40C1-8C5B-DEFCD1A2473F";
name = Regular;
paths = (
{
closed = 1;
nodes = (
"1888 1341 LINE",
"512 1341 LINE",
"512 1101 LINE",
"1888 1101 LINE"
);
},
{
closed = 1;
nodes = (
"1888 889 LINE",
"512 889 LINE",
"512 649 LINE",
"1888 649 LINE"
);
},
{
closed = 1;
nodes = (
"1888 437 LINE",
"512 437 LINE",
"512 197 LINE",
"1888 197 LINE"
);
}
);
width = 2400;
}
);
unicode = 2630;
},
{
glyphname = uniE001;
lastChange = "2014-02-01 21:57:07 -0800";
layers = (
{
layerId = "06D35582-4FA2-40C1-8C5B-DEFCD1A2473F";
name = Regular;
paths = (
{
closed = 1;
nodes = (
"0 1969 LINE",
"0 -431 LINE",
"2400 -431 LINE",
"2400 1969 LINE"
);
}
);
width = 2400;
}
);
unicode = E001;
},
{
glyphname = uniE002;
lastChange = "2013-12-04 19:38:49 -0800";
layers = (
{
layerId = "06D35582-4FA2-40C1-8C5B-DEFCD1A2473F";
name = Regular;
paths = (
{
closed = 1;
nodes = (
"256 1969 LINE SMOOTH",
"114.615 1969 OFFCURVE",
"0 1854.39 OFFCURVE",
"0 1713 CURVE SMOOTH",
"0 -175 LINE SMOOTH",
"0 -316 OFFCURVE",
"114.615 -431 OFFCURVE",
"256 -431 CURVE SMOOTH",
"2144 -431 LINE SMOOTH",
"2285.38 -431 OFFCURVE",
"2400 -316 OFFCURVE",
"2400 -175 CURVE SMOOTH",
"2400 1713 LINE SMOOTH",
"2400 1854.39 OFFCURVE",
"2285.38 1969 OFFCURVE",
"2144 1969 CURVE SMOOTH"
);
}
);
width = 2400;
}
);
unicode = E002;
},
{
glyphname = uniE003;
lastChange = "2014-01-12 16:58:21 -0800";
layers = (
{
layerId = "06D35582-4FA2-40C1-8C5B-DEFCD1A2473F";
name = Regular;
paths = (
{
closed = 1;
nodes = (
"352 1969 LINE SMOOTH",
"157.596 1969 OFFCURVE",
"0 1811.4 OFFCURVE",
"0 1617 CURVE SMOOTH",
"0 -79 LINE SMOOTH",
"0 -273 OFFCURVE",
"157.596 -431 OFFCURVE",
"352 -431 CURVE SMOOTH",
"2048 -431 LINE SMOOTH",
"2242.4 -431 OFFCURVE",
"2400 -273 OFFCURVE",
"2400 -79 CURVE SMOOTH",
"2400 1617 LINE SMOOTH",
"2400 1811.4 OFFCURVE",
"2242.4 1969 OFFCURVE",
"2048 1969 CURVE SMOOTH"
);
}
);
width = 2400;
}
);
unicode = E003;
},
{
glyphname = uniE004;
lastChange = "2014-01-15 03:59:15 -0800";
layers = (
{
layerId = "06D35582-4FA2-40C1-8C5B-DEFCD1A2473F";
name = Regular;
paths = (
{
closed = 1;
nodes = (
"836.742 1969 LINE SMOOTH",
"595.804 1969 OFFCURVE",
"475.34 1969 OFFCURVE",
"345.66 1928 CURVE",
"204.07 1876.46 OFFCURVE",
"92.539 1764.93 OFFCURVE",
"41.004 1623.34 CURVE",
"0 1493.66 OFFCURVE",
"0 1373.2 OFFCURVE",
"0 1132.26 CURVE SMOOTH",
"0 405.743 LINE SMOOTH",
"0 164.805 OFFCURVE",
"0 44.344 OFFCURVE",
"41.004 -85 CURVE",
"92.539 -227 OFFCURVE",
"204.07 -338 OFFCURVE",
"345.66 -390 CURVE",
"475.34 -431 OFFCURVE",
"595.804 -431 OFFCURVE",
"836.742 -431 CURVE SMOOTH",
"1563.26 -431 LINE SMOOTH",
"1804.2 -431 OFFCURVE",
"1924.66 -431 OFFCURVE",
"2054.34 -390 CURVE",
"2195.93 -338 OFFCURVE",
"2307.46 -227 OFFCURVE",
"2359 -85 CURVE",
"2400 44.344 OFFCURVE",
"2400 164.805 OFFCURVE",
"2400 405.743 CURVE SMOOTH",
"2400 1132.26 LINE SMOOTH",
"2400 1373.2 OFFCURVE",
"2400 1493.66 OFFCURVE",
"2359 1623.34 CURVE",
"2307.46 1764.93 OFFCURVE",
"2195.93 1876.46 OFFCURVE",
"2054.34 1928 CURVE",
"1924.66 1969 OFFCURVE",
"1804.2 1969 OFFCURVE",
"1563.26 1969 CURVE SMOOTH"
);
}
);
width = 2400;
}
);
unicode = E004;
},
{
glyphname = uniE005;
lastChange = "2014-01-15 03:58:52 -0800";
layers = (
{
layerId = "06D35582-4FA2-40C1-8C5B-DEFCD1A2473F";
name = Regular;
paths = (
{
closed = 1;
nodes = (
"537.252 1969 OFFCURVE",
"0 1431.75 OFFCURVE",
"0 769 CURVE SMOOTH",
"0 106.252 OFFCURVE",
"537.252 -431 OFFCURVE",
"1200 -431 CURVE SMOOTH",
"1862.75 -431 OFFCURVE",
"2400 106.252 OFFCURVE",
"2400 769 CURVE SMOOTH",
"2400 1431.75 OFFCURVE",
"1862.75 1969 OFFCURVE",
"1200 1969 CURVE SMOOTH"
);
}
);
width = 2400;
}
);
unicode = E005;
},
{
glyphname = uniE020;
lastChange = "2014-01-15 01:09:47 -0800";
layers = (
{
layerId = "06D35582-4FA2-40C1-8C5B-DEFCD1A2473F";
name = Regular;
paths = (
{
closed = 1;
nodes = (
"702.939 1669 OFFCURVE",
"300 1266.06 OFFCURVE",
"300 769 CURVE SMOOTH",
"300 271.939 OFFCURVE",
"702.939 -131 OFFCURVE",
"1200 -131 CURVE SMOOTH",
"1697.06 -131 OFFCURVE",
"2100 271.939 OFFCURVE",
"2100 769 CURVE SMOOTH",
"2100 1266.06 OFFCURVE",
"1697.06 1669 OFFCURVE",
"1200 1669 CURVE SMOOTH"
);
}
);
width = 2400;
}
);
unicode = E020;
},
{
glyphname = uniE021;
lastChange = "2013-12-04 00:39:53 -0800";
layers = (
{
layerId = "06D35582-4FA2-40C1-8C5B-DEFCD1A2473F";
name = Regular;
paths = (
{
closed = 1;
nodes = (
"0 1969 LINE",
"0 -431 LINE",
"1240 -431 LINE",
"1240 492 LINE",
"928 492 LINE",
"928 846 LINE",
"1240 846 LINE",
"1240 1135 LINE SMOOTH",
"1240 1292 OFFCURVE",
"1291.02 1412.71 OFFCURVE",
"1355 1474 CURVE SMOOTH",
"1438.36 1553.85 OFFCURVE",
"1572.97 1601 OFFCURVE",
"1705.94 1601 CURVE SMOOTH",
"1822.04 1601 OFFCURVE",
"1924.05 1589.32 OFFCURVE",
"1973.54 1582 CURVE",
"1973.54 1267 LINE",
"1935.35 1269.13 OFFCURVE",
"1854.46 1273.65 OFFCURVE",
"1765.67 1273.65 CURVE SMOOTH",
"1668.71 1273.65 OFFCURVE",
"1596 1219.75 OFFCURVE",
"1596 1130.29 CURVE SMOOTH",
"1596 846 LINE",
"1974 846 LINE",
"1916 492 LINE",
"1596 492 LINE",
"1596 -431 LINE",
"2400 -431 LINE",
"2400 1969 LINE"
);
}
);
width = 2400;
}
);
unicode = E021;
},
{
glyphname = uniE022;
lastChange = "2013-12-04 00:40:49 -0800";
layers = (
{
layerId = "06D35582-4FA2-40C1-8C5B-DEFCD1A2473F";
name = Regular;
paths = (
{
closed = 1;
nodes = (
"256 1969 LINE SMOOTH",
"114.615 1969 OFFCURVE",
"0 1854.39 OFFCURVE",
"0 1713 CURVE SMOOTH",
"0 -175 LINE SMOOTH",
"0 -316 OFFCURVE",
"114.615 -431 OFFCURVE",
"256 -431 CURVE SMOOTH",
"1240 -431 LINE",
"1240 492 LINE",
"928 492 LINE",
"928 846 LINE",
"1240 846 LINE",
"1240 1135 LINE SMOOTH",
"1240 1292 OFFCURVE",
"1291.02 1412.71 OFFCURVE",
"1355 1474 CURVE SMOOTH",
"1438.36 1553.85 OFFCURVE",
"1572.97 1601 OFFCURVE",
"1705.94 1601 CURVE SMOOTH",
"1822.04 1601 OFFCURVE",
"1924.05 1589.32 OFFCURVE",
"1973.54 1582 CURVE",
"1973.54 1267 LINE",
"1935.35 1269.13 OFFCURVE",
"1854.46 1273.65 OFFCURVE",
"1765.67 1273.65 CURVE SMOOTH",
"1668.71 1273.65 OFFCURVE",
"1596 1219.75 OFFCURVE",
"1596 1130.29 CURVE SMOOTH",
"1596 846 LINE",
"1974 846 LINE",
"1916 492 LINE",
"1596 492 LINE",
"1596 -431 LINE",
"2144 -431 LINE SMOOTH",
"2285.38 -431 OFFCURVE",
"2400 -316 OFFCURVE",
"2400 -175 CURVE SMOOTH",
"2400 1713 LINE SMOOTH",
"2400 1854.39 OFFCURVE",
"2285.38 1969 OFFCURVE",
"2144 1969 CURVE SMOOTH"
);
}
);
width = 2400;
}
);
unicode = E022;
},
{
glyphname = uniE023;
lastChange = "2013-12-04 00:41:57 -0800";
layers = (
{
layerId = "06D35582-4FA2-40C1-8C5B-DEFCD1A2473F";
name = Regular;
paths = (
{
closed = 1;
nodes = (
"352 1969 LINE SMOOTH",
"157.596 1969 OFFCURVE",
"0 1811.4 OFFCURVE",
"0 1617 CURVE SMOOTH",
"0 -79 LINE SMOOTH",
"0 -273 OFFCURVE",
"157.596 -431 OFFCURVE",
"352 -431 CURVE SMOOTH",
"1240 -431 LINE",
"1240 492 LINE",
"928 492 LINE",
"928 846 LINE",
"1240 846 LINE",
"1240 1135 LINE SMOOTH",
"1240 1292 OFFCURVE",
"1291.02 1412.71 OFFCURVE",
"1355 1474 CURVE SMOOTH",
"1438.36 1553.85 OFFCURVE",
"1572.97 1601 OFFCURVE",
"1705.94 1601 CURVE SMOOTH",
"1822.04 1601 OFFCURVE",
"1924.05 1589.32 OFFCURVE",
"1973.54 1582 CURVE",
"1973.54 1267 LINE",
"1935.35 1269.13 OFFCURVE",
"1854.46 1273.65 OFFCURVE",
"1765.67 1273.65 CURVE SMOOTH",
"1668.71 1273.65 OFFCURVE",
"1596 1219.75 OFFCURVE",
"1596 1130.29 CURVE SMOOTH",
"1596 846 LINE",
"1974 846 LINE",
"1916 492 LINE",
"1596 492 LINE",
"1596 -431 LINE",
"2048 -431 LINE SMOOTH",
"2242.4 -431 OFFCURVE",
"2400 -273 OFFCURVE",
"2400 -79 CURVE SMOOTH",
"2400 1617 LINE SMOOTH",
"2400 1811.4 OFFCURVE",
"2242.4 1969 OFFCURVE",
"2048 1969 CURVE SMOOTH"
);
}
);
width = 2400;
}
);
unicode = E023;
},
{
glyphname = uniE024;
lastChange = "2013-12-04 00:42:40 -0800";
layers = (
{
layerId = "06D35582-4FA2-40C1-8C5B-DEFCD1A2473F";
name = Regular;
paths = (
{
closed = 1;
nodes = (
"836.742 1969 LINE SMOOTH",
"595.805 1969 OFFCURVE",
"475.34 1969 OFFCURVE",
"345.66 1928 CURVE",
"204.07 1876.46 OFFCURVE",
"92.539 1764.93 OFFCURVE",
"41.004 1623.34 CURVE",
"0 1493.66 OFFCURVE",
"0 1373.2 OFFCURVE",
"0 1132.26 CURVE SMOOTH",
"0 405.743 LINE SMOOTH",
"0 164.805 OFFCURVE",
"0 44.344 OFFCURVE",
"41.004 -85 CURVE",
"92.539 -227 OFFCURVE",
"204.07 -338 OFFCURVE",
"345.66 -390 CURVE",
"475.34 -431 OFFCURVE",
"595.805 -431 OFFCURVE",
"836.742 -431 CURVE SMOOTH",
"1240 -431 LINE",
"1240 492 LINE",
"928 492 LINE",
"928 846 LINE",
"1240 846 LINE",
"1240 1135 LINE SMOOTH",
"1240 1292 OFFCURVE",
"1291.02 1412.71 OFFCURVE",
"1355 1474 CURVE SMOOTH",
"1438.36 1553.85 OFFCURVE",
"1572.97 1601 OFFCURVE",
"1705.94 1601 CURVE SMOOTH",
"1822.04 1601 OFFCURVE",
"1924.05 1589.32 OFFCURVE",
"1973.54 1582 CURVE",
"1973.54 1267 LINE",
"1935.35 1269.13 OFFCURVE",
"1854.46 1273.65 OFFCURVE",
"1765.67 1273.65 CURVE SMOOTH",
"1668.71 1273.65 OFFCURVE",
"1596 1219.75 OFFCURVE",
"1596 1130.29 CURVE SMOOTH",
"1596 846 LINE",
"1974 846 LINE",
"1916 492 LINE",
"1596 492 LINE",
"1596 -431 LINE",
"1815.38 -431 OFFCURVE",
"1930.67 -429 OFFCURVE",
"2054.34 -390 CURVE",
"2195.93 -338 OFFCURVE",
"2307.46 -227 OFFCURVE",
"2359 -85 CURVE",
"2400 44.344 OFFCURVE",
"2400 164.805 OFFCURVE",
"2400 405.743 CURVE SMOOTH",
"2400 1132.26 LINE SMOOTH",
"2400 1373.2 OFFCURVE",
"2400 1493.66 OFFCURVE",
"2359 1623.34 CURVE",
"2307.46 1764.93 OFFCURVE",
"2195.93 1876.46 OFFCURVE",
"2054.34 1928 CURVE",
"1924.66 1969 OFFCURVE",
"1804.2 1969 OFFCURVE",
"1563.26 1969 CURVE SMOOTH"
);
}
);
width = 2400;
}
);
unicode = E024;
},
{
glyphname = uniE025;
lastChange = "2013-12-04 00:43:23 -0800";
layers = (
{
layerId = "06D35582-4FA2-40C1-8C5B-DEFCD1A2473F";
name = Regular;
paths = (
{
closed = 1;
nodes = (
"2400 1431.75 OFFCURVE",
"1862.75 1969 OFFCURVE",
"1200 1969 CURVE SMOOTH",
"537.252 1969 OFFCURVE",
"0 1431.75 OFFCURVE",
"0 769 CURVE SMOOTH",
"0 106.252 OFFCURVE",
"537.252 -431 OFFCURVE",
"1200 -431 CURVE SMOOTH",
"1213.39 -431 OFFCURVE",
"1226.72 -431 OFFCURVE",
"1240 -430 CURVE",
"1240 492 LINE",
"928 492 LINE",
"928 846 LINE",
"1240 846 LINE",
"1240 1135 LINE SMOOTH",
"1240 1292 OFFCURVE",
"1291.02 1412.71 OFFCURVE",
"1355 1474 CURVE SMOOTH",
"1438.36 1553.85 OFFCURVE",
"1572.97 1601 OFFCURVE",
"1705.94 1601 CURVE SMOOTH",
"1822.04 1601 OFFCURVE",
"1924.05 1589.32 OFFCURVE",
"1973.54 1582 CURVE",
"1973.54 1267 LINE",
"1935.35 1269.13 OFFCURVE",
"1854.46 1273.65 OFFCURVE",
"1765.67 1273.65 CURVE SMOOTH",
"1668.71 1273.65 OFFCURVE",
"1596 1219.75 OFFCURVE",
"1596 1130.29 CURVE SMOOTH",
"1596 846 LINE",
"1974 846 LINE",
"1916 492 LINE",
"1596 492 LINE",
"1596 -364 LINE",
"2064.17 -201 OFFCURVE",
"2400 245.015 OFFCURVE",
"2400 769 CURVE SMOOTH"
);
}
);
width = 2400;
}
);
unicode = E025;
},
{
glyphname = uniE026;
lastChange = "2013-12-04 00:46:26 -0800";
layers = (
{
layerId = "06D35582-4FA2-40C1-8C5B-DEFCD1A2473F";
name = Regular;
paths = (
{
closed = 1;
nodes = (
"1572.97 1601 OFFCURVE",
"1438.36 1553.85 OFFCURVE",
"1355 1474 CURVE SMOOTH",
"1291.02 1412.71 OFFCURVE",
"1240 1292 OFFCURVE",
"1240 1135 CURVE SMOOTH",
"1240 846 LINE",
"928 846 LINE",
"928 492 LINE",
"1240 492 LINE",
"1240 -431 LINE",
"1596 -431 LINE",
"1596 492 LINE",
"1916 492 LINE",
"1974 846 LINE",
"1596 846 LINE",
"1596 1130.29 LINE SMOOTH",
"1596 1219.75 OFFCURVE",
"1668.71 1273.65 OFFCURVE",
"1765.67 1273.65 CURVE SMOOTH",
"1854.46 1273.65 OFFCURVE",
"1935.35 1269.13 OFFCURVE",
"1973.54 1267 CURVE",
"1973.54 1582 LINE",
"1924.05 1589.32 OFFCURVE",
"1822.04 1601 OFFCURVE",
"1705.94 1601 CURVE SMOOTH"
);
}
);
width = 2400;
}
);
unicode = E026;
},
{
glyphname = uniE027;
lastChange = "2013-12-04 00:45:22 -0800";
layers = (
{
layerId = "06D35582-4FA2-40C1-8C5B-DEFCD1A2473F";
name = Regular;
paths = (
{
closed = 1;
nodes = (
"537.252 1969 OFFCURVE",
"0 1431.75 OFFCURVE",
"0 769 CURVE SMOOTH",
"0 114.272 OFFCURVE",
"524.333 -418 OFFCURVE",
"1176 -431 CURVE",
"1176 496.599 LINE",
"864 496.599 LINE",
"864 850.599 LINE",
"1176 850.599 LINE",
"1176 1139.6 LINE SMOOTH",
"1176 1296.6 OFFCURVE",
"1227.02 1417.31 OFFCURVE",
"1291 1478.6 CURVE SMOOTH",
"1374.36 1558.45 OFFCURVE",
"1508.97 1605.6 OFFCURVE",
"1641.94 1605.6 CURVE SMOOTH",
"1758.04 1605.6 OFFCURVE",
"1860.05 1593.92 OFFCURVE",
"1909.54 1586.6 CURVE",
"1909.54 1271.6 LINE",
"1871.35 1273.73 OFFCURVE",
"1790.46 1278.25 OFFCURVE",
"1701.67 1278.25 CURVE SMOOTH",
"1604.71 1278.25 OFFCURVE",
"1532 1224.35 OFFCURVE",
"1532 1134.89 CURVE SMOOTH",
"1532 850.598 LINE",
"1910 850.598 LINE",
"1852 496.598 LINE",
"1532 496.598 LINE",
"1532 -384 LINE",
"2033.26 -240 OFFCURVE",
"2400 221.431 OFFCURVE",
"2400 768.999 CURVE SMOOTH",
"2400 1431.75 OFFCURVE",
"1862.75 1969 OFFCURVE",
"1200 1969 CURVE SMOOTH"
);
}
);
width = 2400;
}
);
unicode = E027;
},
{
glyphname = uniE028;
lastChange = "2013-12-04 00:46:03 -0800";
layers = (
{
layerId = "06D35582-4FA2-40C1-8C5B-DEFCD1A2473F";
name = Regular;
paths = (
{
closed = 1;
nodes = (
"1508.97 1605.6 OFFCURVE",
"1374.36 1558.45 OFFCURVE",
"1291 1478.6 CURVE SMOOTH",
"1227.02 1417.31 OFFCURVE",
"1176 1296.6 OFFCURVE",
"1176 1139.6 CURVE SMOOTH",
"1176 850.598 LINE",
"864 850.598 LINE",
"864 496.598 LINE",
"1176 496.598 LINE",
"1176 -431 LINE",
"1200 -431 LINE SMOOTH",
"1315.18 -431 OFFCURVE",
"1426.56 -415 OFFCURVE",
"1532 -384 CURVE",
"1532 496.598 LINE",
"1852 496.598 LINE",
"1910 850.598 LINE",
"1532 850.598 LINE",
"1532 1134.89 LINE SMOOTH",
"1532 1224.35 OFFCURVE",
"1604.71 1278.25 OFFCURVE",
"1701.67 1278.25 CURVE SMOOTH",
"1790.46 1278.25 OFFCURVE",
"1871.35 1273.73 OFFCURVE",
"1909.54 1271.6 CURVE",
"1909.54 1586.6 LINE",
"1860.05 1593.92 OFFCURVE",
"1758.04 1605.6 OFFCURVE",
"1641.94 1605.6 CURVE SMOOTH"
);
}
);
width = 2400;
}
);
unicode = E028;
},
{
glyphname = uniE02A;
lastChange = "2014-01-12 16:45:08 -0800";
layers = (
{
layerId = "06D35582-4FA2-40C1-8C5B-DEFCD1A2473F";
name = Regular;
paths = (
{
closed = 1;
nodes = (
"2400 1969 LINE",
"0 1969 LINE",
"0 -431 LINE",
"2400 -431 LINE"
);
},
{
closed = 1;
nodes = (
"1535.39 1626.12 OFFCURVE",
"1621.66 1616.69 OFFCURVE",
"1663.53 1610.5 CURVE",
"1663.53 1343.92 LINE",
"1631.22 1345.71 OFFCURVE",
"1562.81 1349.26 OFFCURVE",
"1487.72 1349.26 CURVE SMOOTH",
"1405.7 1349.26 OFFCURVE",
"1344.21 1303.67 OFFCURVE",
"1344.21 1228.01 CURVE SMOOTH",
"1344.21 986.523 LINE",
"1664.5 986.523 LINE",
"1614.7 687.718 LINE",
"1344.21 687.718 LINE",
"1344.21 -92 LINE",
"1043.46 -92 LINE",
"1043.46 687.718 LINE",
"779.805 687.718 LINE",
"779.805 986.523 LINE",
"1043.46 986.523 LINE",
"1043.46 1231.99 LINE SMOOTH",
"1043.46 1364.78 OFFCURVE",
"1086.61 1466.87 OFFCURVE",
"1140.72 1518.71 CURVE SMOOTH",
"1211.23 1586.24 OFFCURVE",
"1324.73 1626.12 OFFCURVE",
"1437.19 1626.12 CURVE SMOOTH"
);
}
);
width = 2400;
}
);
unicode = E02A;
},
{
glyphname = uniE02B;
lastChange = "2014-01-12 16:45:08 -0800";
layers = (
{
layerId = "06D35582-4FA2-40C1-8C5B-DEFCD1A2473F";
name = Regular;
paths = (
{
closed = 1;
nodes = (
"256 1969 LINE SMOOTH",
"114.615 1969 OFFCURVE",
"0 1854.39 OFFCURVE",
"0 1713 CURVE SMOOTH",
"0 -175 LINE SMOOTH",
"0 -316 OFFCURVE",
"114.615 -431 OFFCURVE",
"256 -431 CURVE SMOOTH",
"2144 -431 LINE SMOOTH",
"2285.38 -431 OFFCURVE",
"2400 -316 OFFCURVE",
"2400 -175 CURVE SMOOTH",
"2400 1713 LINE SMOOTH",
"2400 1854.39 OFFCURVE",
"2285.38 1969 OFFCURVE",
"2144 1969 CURVE SMOOTH"
);
},
{
closed = 1;
nodes = (
"1535.39 1626.12 OFFCURVE",
"1621.66 1616.69 OFFCURVE",
"1663.53 1610.5 CURVE",
"1663.53 1343.92 LINE",
"1631.22 1345.71 OFFCURVE",
"1562.81 1349.26 OFFCURVE",
"1487.72 1349.26 CURVE SMOOTH",
"1405.7 1349.26 OFFCURVE",
"1344.21 1303.67 OFFCURVE",
"1344.21 1228.01 CURVE SMOOTH",
"1344.21 986.523 LINE",
"1664.5 986.523 LINE",
"1614.7 687.718 LINE",
"1344.21 687.718 LINE",
"1344.21 -92 LINE",
"1043.46 -92 LINE",
"1043.46 687.718 LINE",
"779.805 687.718 LINE",
"779.805 986.523 LINE",
"1043.46 986.523 LINE",
"1043.46 1231.99 LINE SMOOTH",
"1043.46 1364.78 OFFCURVE",
"1086.61 1466.87 OFFCURVE",
"1140.72 1518.71 CURVE SMOOTH",
"1211.23 1586.24 OFFCURVE",
"1324.73 1626.12 OFFCURVE",
"1437.19 1626.12 CURVE SMOOTH"
);
}
);
width = 2400;
}
);
unicode = E02B;
},
{
glyphname = uniE02C;
lastChange = "2014-01-12 16:45:08 -0800";
layers = (
{
layerId = "06D35582-4FA2-40C1-8C5B-DEFCD1A2473F";
name = Regular;
paths = (
{
closed = 1;
nodes = (
"352 1969 LINE SMOOTH",
"157.596 1969 OFFCURVE",
"0 1811.4 OFFCURVE",
"0 1617 CURVE SMOOTH",
"0 -79 LINE SMOOTH",
"0 -273 OFFCURVE",
"157.596 -431 OFFCURVE",
"352 -431 CURVE SMOOTH",
"2048 -431 LINE SMOOTH",
"2242.4 -431 OFFCURVE",
"2400 -273 OFFCURVE",
"2400 -79 CURVE SMOOTH",
"2400 1617 LINE SMOOTH",
"2400 1811.4 OFFCURVE",
"2242.4 1969 OFFCURVE",
"2048 1969 CURVE SMOOTH"
);
},
{
closed = 1;
nodes = (
"1535.39 1626.12 OFFCURVE",
"1621.66 1616.69 OFFCURVE",
"1663.53 1610.5 CURVE",
"1663.53 1343.92 LINE",
"1631.22 1345.71 OFFCURVE",
"1562.81 1349.26 OFFCURVE",
"1487.72 1349.26 CURVE SMOOTH",
"1405.7 1349.26 OFFCURVE",
"1344.21 1303.67 OFFCURVE",
"1344.21 1228.01 CURVE SMOOTH",
"1344.21 986.523 LINE",
"1664.5 986.523 LINE",
"1614.7 687.718 LINE",
"1344.21 687.718 LINE",
"1344.21 -92 LINE",
"1043.46 -92 LINE",
"1043.46 687.718 LINE",
"779.805 687.718 LINE",
"779.805 986.523 LINE",
"1043.46 986.523 LINE",
"1043.46 1231.99 LINE SMOOTH",
"1043.46 1364.78 OFFCURVE",
"1086.61 1466.87 OFFCURVE",
"1140.72 1518.71 CURVE SMOOTH",
"1211.23 1586.24 OFFCURVE",
"1324.73 1626.12 OFFCURVE",
"1437.19 1626.12 CURVE SMOOTH"
);
}
);
width = 2400;
}
);
unicode = E02C;
},
{
glyphname = uniE02D;
lastChange = "2014-01-12 16:45:08 -0800";
layers = (
{
layerId = "06D35582-4FA2-40C1-8C5B-DEFCD1A2473F";
name = Regular;
paths = (
{
closed = 1;
nodes = (
"836.742 1969 LINE SMOOTH",
"595.804 1969 OFFCURVE",
"475.34 1969 OFFCURVE",
"345.66 1928 CURVE",
"204.07 1876.46 OFFCURVE",
"92.539 1764.93 OFFCURVE",
"41.004 1623.34 CURVE",
"0 1493.66 OFFCURVE",
"0 1373.2 OFFCURVE",
"0 1132.26 CURVE SMOOTH",
"0 405.743 LINE SMOOTH",
"0 164.805 OFFCURVE",
"0 44.344 OFFCURVE",
"41.004 -85 CURVE",
"92.539 -227 OFFCURVE",
"204.07 -338 OFFCURVE",
"345.66 -390 CURVE",
"475.34 -431 OFFCURVE",
"595.804 -431 OFFCURVE",
"836.742 -431 CURVE SMOOTH",
"1563.26 -431 LINE SMOOTH",
"1804.2 -431 OFFCURVE",
"1924.66 -431 OFFCURVE",
"2054.34 -390 CURVE",
"2195.93 -338 OFFCURVE",
"2307.46 -227 OFFCURVE",
"2359 -85 CURVE",
"2400 44.344 OFFCURVE",
"2400 164.805 OFFCURVE",
"2400 405.743 CURVE SMOOTH",
"2400 1132.26 LINE SMOOTH",
"2400 1373.2 OFFCURVE",
"2400 1493.66 OFFCURVE",
"2359 1623.34 CURVE",
"2307.46 1764.93 OFFCURVE",
"2195.93 1876.46 OFFCURVE",
"2054.34 1928 CURVE",
"1924.66 1969 OFFCURVE",
"1804.2 1969 OFFCURVE",
"1563.26 1969 CURVE SMOOTH"
);
},
{
closed = 1;
nodes = (
"1535.39 1626.12 OFFCURVE",
"1621.66 1616.69 OFFCURVE",
"1663.53 1610.5 CURVE",
"1663.53 1343.92 LINE",
"1631.22 1345.71 OFFCURVE",
"1562.81 1349.26 OFFCURVE",
"1487.72 1349.26 CURVE SMOOTH",
"1405.7 1349.26 OFFCURVE",
"1344.21 1303.67 OFFCURVE",
"1344.21 1228.01 CURVE SMOOTH",
"1344.21 986.523 LINE",
"1664.5 986.523 LINE",
"1614.7 687.718 LINE",
"1344.21 687.718 LINE",
"1344.21 -92 LINE",
"1043.46 -92 LINE",
"1043.46 687.718 LINE",
"779.805 687.718 LINE",
"779.805 986.523 LINE",
"1043.46 986.523 LINE",
"1043.46 1231.99 LINE SMOOTH",
"1043.46 1364.78 OFFCURVE",
"1086.61 1466.87 OFFCURVE",
"1140.72 1518.71 CURVE SMOOTH",
"1211.23 1586.24 OFFCURVE",
"1324.73 1626.12 OFFCURVE",
"1437.19 1626.12 CURVE SMOOTH"
);
}
);
width = 2400;
}
);
unicode = E02D;
},
{
glyphname = uniE02E;
lastChange = "2014-01-12 16:45:08 -0800";
layers = (
{
layerId = "06D35582-4FA2-40C1-8C5B-DEFCD1A2473F";
name = Regular;
paths = (
{
closed = 1;
nodes = (
"537.252 1969 OFFCURVE",
"0 1431.75 OFFCURVE",
"0 769 CURVE SMOOTH",
"0 106.252 OFFCURVE",
"537.252 -431 OFFCURVE",
"1200 -431 CURVE SMOOTH",
"1862.75 -431 OFFCURVE",
"2400 106.252 OFFCURVE",
"2400 769 CURVE SMOOTH",
"2400 1431.75 OFFCURVE",
"1862.75 1969 OFFCURVE",
"1200 1969 CURVE SMOOTH"
);
},
{
closed = 1;
nodes = (
"1535.39 1626.12 OFFCURVE",
"1621.66 1616.69 OFFCURVE",
"1663.53 1610.5 CURVE",
"1663.53 1343.92 LINE",
"1631.22 1345.71 OFFCURVE",
"1562.81 1349.26 OFFCURVE",
"1487.72 1349.26 CURVE SMOOTH",
"1405.7 1349.26 OFFCURVE",
"1344.21 1303.67 OFFCURVE",
"1344.21 1228.01 CURVE SMOOTH",
"1344.21 986.524 LINE",
"1664.5 986.524 LINE",
"1614.7 687.719 LINE",
"1344.21 687.719 LINE",
"1344.21 -92 LINE",
"1043.45 -92 LINE",
"1043.45 687.719 LINE",
"779.804 687.719 LINE",
"779.804 986.524 LINE",
"1043.45 986.524 LINE",
"1043.45 1231.99 LINE SMOOTH",
"1043.45 1364.78 OFFCURVE",
"1086.61 1466.87 OFFCURVE",
"1140.72 1518.71 CURVE SMOOTH",
"1211.22 1586.24 OFFCURVE",
"1324.73 1626.12 OFFCURVE",
"1437.19 1626.12 CURVE SMOOTH"
);
}
);
width = 2400;
}
);
unicode = E02E;
},
{
glyphname = uniE02F;
lastChange = "2014-01-12 16:45:08 -0800";
layers = (
{
layerId = "06D35582-4FA2-40C1-8C5B-DEFCD1A2473F";
name = Regular;
paths = (
{
closed = 1;
nodes = (
"1324.73 1626.12 OFFCURVE",
"1211.23 1586.24 OFFCURVE",
"1140.72 1518.71 CURVE SMOOTH",
"1086.61 1466.87 OFFCURVE",
"1043.46 1364.78 OFFCURVE",
"1043.46 1231.99 CURVE SMOOTH",
"1043.46 986.523 LINE",
"779.805 986.523 LINE",
"779.805 687.718 LINE",
"1043.46 687.718 LINE",
"1043.46 -92 LINE",
"1344.21 -92 LINE",
"1344.21 687.718 LINE",
"1614.7 687.718 LINE",
"1664.5 986.523 LINE",
"1344.21 986.523 LINE",
"1344.21 1228.01 LINE SMOOTH",
"1344.21 1303.67 OFFCURVE",
"1405.7 1349.26 OFFCURVE",
"1487.72 1349.26 CURVE SMOOTH",
"1562.81 1349.26 OFFCURVE",
"1631.22 1345.71 OFFCURVE",
"1663.53 1343.92 CURVE",
"1663.53 1610.5 LINE",
"1621.66 1616.69 OFFCURVE",
"1535.39 1626.12 OFFCURVE",
"1437.19 1626.12 CURVE SMOOTH"
);
}
);
width = 2400;
}
);
unicode = E02F;
},
{
glyphname = uniE031;
lastChange = "2013-10-29 20:23:06 -0800";
layers = (
{
layerId = "06D35582-4FA2-40C1-8C5B-DEFCD1A2473F";
name = Regular;
paths = (
{
closed = 1;
nodes = (
"2400 1969 LINE",
"0 1969 LINE",
"0 -431 LINE",
"2400 -431 LINE"
);
},
{
closed = 1;
nodes = (
"1648.82 1392.4 OFFCURVE",
"1731.4 1353.83 OFFCURVE",
"1789.36 1292.06 CURVE",
"1861.76 1306.31 OFFCURVE",
"1929.77 1332.76 OFFCURVE",
"1991.17 1369.18 CURVE",
"1967.44 1294.96 OFFCURVE",
"1917.05 1232.69 OFFCURVE",
"1851.45 1193.36 CURVE",
"1915.72 1201.04 OFFCURVE",
"1976.96 1218.11 OFFCURVE",
"2033.97 1243.39 CURVE",
"1991.36 1179.67 OFFCURVE",
"1937.48 1123.69 OFFCURVE",
"1875.4 1078.89 CURVE",
"1875.4 1037.77 LINE SMOOTH",
"1876.32 617.83 OFFCURVE",
"1556.67 133.592 OFFCURVE",
"972.14 133.592 CURVE SMOOTH",
"792.676 133.592 OFFCURVE",
"625.634 186.211 OFFCURVE",
"485 276.379 CURVE",
"509.863 273.433 OFFCURVE",
"535.166 271.927 OFFCURVE",
"560.811 271.927 CURVE SMOOTH",
"709.699 271.927 OFFCURVE",
"846.721 322.732 OFFCURVE",
"955.48 407.964 CURVE",
"816.424 410.533 OFFCURVE",
"699.059 502.417 OFFCURVE",
"658.623 628.662 CURVE",
"678.039 624.954 OFFCURVE",
"697.941 622.955 OFFCURVE",
"718.415 622.955 CURVE SMOOTH",
"747.398 622.955 OFFCURVE",
"775.471 626.845 OFFCURVE",
"802.132 634.108 CURVE",
"656.768 663.308 OFFCURVE",
"547.22 791.751 OFFCURVE",
"547.22 945.716 CURVE SMOOTH",
"547.251 949.716 LINE",
"590.091 925.918 OFFCURVE",
"639.101 911.623 OFFCURVE",
"691.187 909.972 CURVE",
"605.911 966.962 OFFCURVE",
"549.815 1064.22 OFFCURVE",
"549.815 1174.48 CURVE SMOOTH",
"549.815 1232.72 OFFCURVE",
"565.48 1287.31 OFFCURVE",
"592.844 1334.25 CURVE",
"749.578 1141.98 OFFCURVE",
"983.748 1015.46 OFFCURVE",
"1247.86 1002.2 CURVE",
"1242.43 1025.48 OFFCURVE",
"1239.62 1049.72 OFFCURVE",
"1239.62 1074.63 CURVE SMOOTH",
"1239.62 1250.13 OFFCURVE",
"1381.92 1392.4 OFFCURVE",
"1557.41 1392.4 CURVE SMOOTH"
);
}
);
width = 2400;
}
);
unicode = E031;
},
{
glyphname = uniE032;
lastChange = "2013-10-29 20:22:55 -0800";
layers = (
{
layerId = "06D35582-4FA2-40C1-8C5B-DEFCD1A2473F";
name = Regular;
paths = (
{
closed = 1;
nodes = (
"256 1969 LINE SMOOTH",
"114.615 1969 OFFCURVE",
"0 1854.39 OFFCURVE",
"0 1713 CURVE SMOOTH",
"0 -175 LINE SMOOTH",
"0 -316 OFFCURVE",
"114.615 -431 OFFCURVE",
"256 -431 CURVE SMOOTH",
"2144 -431 LINE SMOOTH",
"2285.38 -431 OFFCURVE",
"2400 -316 OFFCURVE",
"2400 -175 CURVE SMOOTH",
"2400 1713 LINE SMOOTH",
"2400 1854.39 OFFCURVE",
"2285.38 1969 OFFCURVE",
"2144 1969 CURVE SMOOTH"
);
},
{
closed = 1;
nodes = (
"1648.82 1392.4 OFFCURVE",
"1731.4 1353.83 OFFCURVE",
"1789.36 1292.06 CURVE",
"1861.76 1306.31 OFFCURVE",
"1929.77 1332.76 OFFCURVE",
"1991.17 1369.18 CURVE",
"1967.44 1294.96 OFFCURVE",
"1917.05 1232.69 OFFCURVE",
"1851.45 1193.36 CURVE",
"1915.72 1201.04 OFFCURVE",
"1976.96 1218.11 OFFCURVE",
"2033.97 1243.39 CURVE",
"1991.36 1179.67 OFFCURVE",
"1937.48 1123.69 OFFCURVE",
"1875.4 1078.89 CURVE",
"1875.4 1037.77 LINE SMOOTH",
"1876.32 617.83 OFFCURVE",
"1556.67 133.592 OFFCURVE",
"972.14 133.592 CURVE SMOOTH",
"792.676 133.592 OFFCURVE",
"625.634 186.211 OFFCURVE",
"485 276.379 CURVE",
"509.863 273.433 OFFCURVE",
"535.166 271.927 OFFCURVE",
"560.811 271.927 CURVE SMOOTH",
"709.699 271.927 OFFCURVE",
"846.721 322.732 OFFCURVE",
"955.48 407.964 CURVE",
"816.424 410.533 OFFCURVE",
"699.059 502.417 OFFCURVE",
"658.623 628.662 CURVE",
"678.039 624.954 OFFCURVE",
"697.941 622.955 OFFCURVE",
"718.415 622.955 CURVE SMOOTH",
"747.398 622.955 OFFCURVE",
"775.471 626.845 OFFCURVE",
"802.132 634.108 CURVE",
"656.768 663.308 OFFCURVE",
"547.22 791.751 OFFCURVE",
"547.22 945.716 CURVE SMOOTH",
"547.251 949.716 LINE",
"590.091 925.918 OFFCURVE",
"639.101 911.623 OFFCURVE",
"691.187 909.972 CURVE",
"605.911 966.962 OFFCURVE",
"549.815 1064.22 OFFCURVE",
"549.815 1174.48 CURVE SMOOTH",
"549.815 1232.72 OFFCURVE",
"565.48 1287.31 OFFCURVE",
"592.844 1334.25 CURVE",
"749.578 1141.98 OFFCURVE",
"983.748 1015.46 OFFCURVE",
"1247.86 1002.2 CURVE",
"1242.43 1025.48 OFFCURVE",
"1239.62 1049.72 OFFCURVE",
"1239.62 1074.63 CURVE SMOOTH",
"1239.62 1250.13 OFFCURVE",
"1381.92 1392.4 OFFCURVE",
"1557.41 1392.4 CURVE SMOOTH"
);
}
);
width = 2400;
}
);
unicode = E032;
},
{
glyphname = uniE033;
lastChange = "2013-10-29 20:22:53 -0800";
layers = (
{
layerId = "06D35582-4FA2-40C1-8C5B-DEFCD1A2473F";
name = Regular;
paths = (
{
closed = 1;
nodes = (
"352 1969 LINE SMOOTH",
"157.596 1969 OFFCURVE",
"0 1811.4 OFFCURVE",
"0 1617 CURVE SMOOTH",
"0 -79 LINE SMOOTH",
"0 -273 OFFCURVE",
"157.596 -431 OFFCURVE",
"352 -431 CURVE SMOOTH",
"2048 -431 LINE SMOOTH",
"2242.4 -431 OFFCURVE",
"2400 -273 OFFCURVE",
"2400 -79 CURVE SMOOTH",
"2400 1617 LINE SMOOTH",
"2400 1811.4 OFFCURVE",
"2242.4 1969 OFFCURVE",
"2048 1969 CURVE SMOOTH"
);
},
{
closed = 1;
nodes = (
"1648.82 1392.4 OFFCURVE",
"1731.4 1353.83 OFFCURVE",
"1789.36 1292.06 CURVE",
"1861.76 1306.31 OFFCURVE",
"1929.77 1332.76 OFFCURVE",
"1991.17 1369.19 CURVE",
"1967.44 1294.96 OFFCURVE",
"1917.05 1232.69 OFFCURVE",
"1851.45 1193.36 CURVE",
"1915.72 1201.04 OFFCURVE",
"1976.96 1218.11 OFFCURVE",
"2033.97 1243.39 CURVE",
"1991.36 1179.67 OFFCURVE",
"1937.48 1123.69 OFFCURVE",
"1875.4 1078.89 CURVE",
"1875.4 1037.77 LINE SMOOTH",
"1876.32 617.83 OFFCURVE",
"1556.67 133.592 OFFCURVE",
"972.14 133.592 CURVE SMOOTH",
"792.676 133.592 OFFCURVE",
"625.634 186.211 OFFCURVE",
"485 276.378 CURVE",
"509.863 273.433 OFFCURVE",
"535.166 271.927 OFFCURVE",
"560.811 271.927 CURVE SMOOTH",
"709.699 271.927 OFFCURVE",
"846.721 322.732 OFFCURVE",
"955.48 407.964 CURVE",
"816.424 410.533 OFFCURVE",
"699.059 502.417 OFFCURVE",
"658.623 628.662 CURVE",
"678.039 624.954 OFFCURVE",
"697.941 622.955 OFFCURVE",
"718.415 622.955 CURVE SMOOTH",
"747.398 622.955 OFFCURVE",
"775.471 626.845 OFFCURVE",
"802.132 634.108 CURVE",
"656.768 663.308 OFFCURVE",
"547.22 791.751 OFFCURVE",
"547.22 945.716 CURVE SMOOTH",
"547.251 949.716 LINE",
"590.091 925.918 OFFCURVE",
"639.101 911.623 OFFCURVE",
"691.187 909.972 CURVE",
"605.911 966.962 OFFCURVE",
"549.815 1064.22 OFFCURVE",
"549.815 1174.48 CURVE SMOOTH",
"549.815 1232.72 OFFCURVE",
"565.48 1287.31 OFFCURVE",
"592.844 1334.25 CURVE",
"749.578 1141.98 OFFCURVE",
"983.748 1015.46 OFFCURVE",
"1247.86 1002.2 CURVE",
"1242.44 1025.48 OFFCURVE",
"1239.63 1049.72 OFFCURVE",
"1239.63 1074.63 CURVE SMOOTH",
"1239.63 1250.13 OFFCURVE",
"1381.92 1392.4 OFFCURVE",
"1557.41 1392.4 CURVE SMOOTH"
);
}
);
width = 2400;
}
);
unicode = E033;
},
{
glyphname = uniE034;
lastChange = "2013-10-29 20:22:50 -0800";
layers = (
{
layerId = "06D35582-4FA2-40C1-8C5B-DEFCD1A2473F";
name = Regular;
paths = (
{
closed = 1;
nodes = (
"836.742 1969 LINE SMOOTH",
"595.804 1969 OFFCURVE",
"475.34 1969 OFFCURVE",
"345.66 1928 CURVE",
"204.07 1876.46 OFFCURVE",
"92.539 1764.93 OFFCURVE",
"41.004 1623.34 CURVE",
"0 1493.66 OFFCURVE",
"0 1373.2 OFFCURVE",
"0 1132.26 CURVE SMOOTH",
"0 405.743 LINE SMOOTH",
"0 164.805 OFFCURVE",
"0 44.344 OFFCURVE",
"41.004 -85 CURVE",
"92.539 -227 OFFCURVE",
"204.07 -338 OFFCURVE",
"345.66 -390 CURVE",
"475.34 -431 OFFCURVE",
"595.804 -431 OFFCURVE",
"836.742 -431 CURVE SMOOTH",
"1563.26 -431 LINE SMOOTH",
"1804.2 -431 OFFCURVE",
"1924.66 -431 OFFCURVE",
"2054.34 -390 CURVE",
"2195.93 -338 OFFCURVE",
"2307.46 -227 OFFCURVE",
"2359 -85 CURVE",
"2400 44.344 OFFCURVE",
"2400 164.805 OFFCURVE",
"2400 405.743 CURVE SMOOTH",
"2400 1132.26 LINE SMOOTH",
"2400 1373.2 OFFCURVE",
"2400 1493.66 OFFCURVE",
"2359 1623.34 CURVE",
"2307.46 1764.93 OFFCURVE",
"2195.93 1876.46 OFFCURVE",
"2054.34 1928 CURVE",
"1924.66 1969 OFFCURVE",
"1804.2 1969 OFFCURVE",
"1563.26 1969 CURVE SMOOTH"
);
},
{
closed = 1;
nodes = (
"1648.82 1392.4 OFFCURVE",
"1731.4 1353.83 OFFCURVE",
"1789.36 1292.06 CURVE",
"1861.76 1306.31 OFFCURVE",
"1929.77 1332.76 OFFCURVE",
"1991.17 1369.19 CURVE",
"1967.44 1294.96 OFFCURVE",
"1917.05 1232.69 OFFCURVE",
"1851.45 1193.36 CURVE",
"1915.72 1201.04 OFFCURVE",
"1976.96 1218.11 OFFCURVE",
"2033.97 1243.39 CURVE",
"1991.36 1179.67 OFFCURVE",
"1937.48 1123.69 OFFCURVE",
"1875.4 1078.89 CURVE",
"1875.4 1037.77 LINE SMOOTH",
"1876.32 617.83 OFFCURVE",
"1556.67 133.592 OFFCURVE",
"972.14 133.592 CURVE SMOOTH",
"792.676 133.592 OFFCURVE",
"625.634 186.211 OFFCURVE",
"485 276.378 CURVE",
"509.863 273.433 OFFCURVE",
"535.166 271.927 OFFCURVE",
"560.811 271.927 CURVE SMOOTH",
"709.699 271.927 OFFCURVE",
"846.721 322.732 OFFCURVE",
"955.48 407.964 CURVE",
"816.424 410.533 OFFCURVE",
"699.059 502.417 OFFCURVE",
"658.623 628.662 CURVE",
"678.039 624.954 OFFCURVE",
"697.941 622.955 OFFCURVE",
"718.415 622.955 CURVE SMOOTH",
"747.398 622.955 OFFCURVE",
"775.471 626.845 OFFCURVE",
"802.132 634.108 CURVE",
"656.768 663.308 OFFCURVE",
"547.22 791.751 OFFCURVE",
"547.22 945.716 CURVE SMOOTH",
"547.251 949.716 LINE",
"590.091 925.918 OFFCURVE",
"639.101 911.623 OFFCURVE",
"691.187 909.972 CURVE",
"605.911 966.962 OFFCURVE",
"549.815 1064.22 OFFCURVE",
"549.815 1174.48 CURVE SMOOTH",
"549.815 1232.72 OFFCURVE",
"565.48 1287.31 OFFCURVE",
"592.844 1334.25 CURVE",
"749.578 1141.98 OFFCURVE",
"983.748 1015.46 OFFCURVE",
"1247.86 1002.2 CURVE",
"1242.44 1025.48 OFFCURVE",
"1239.63 1049.72 OFFCURVE",
"1239.63 1074.63 CURVE SMOOTH",
"1239.63 1250.13 OFFCURVE",
"1381.92 1392.4 OFFCURVE",
"1557.41 1392.4 CURVE SMOOTH"
);
}
);
width = 2400;
}
);
unicode = E034;
},
{
glyphname = uniE035;
lastChange = "2013-10-29 20:22:47 -0800";
layers = (
{
layerId = "06D35582-4FA2-40C1-8C5B-DEFCD1A2473F";
name = Regular;
paths = (
{
closed = 1;
nodes = (
"537.252 1969 OFFCURVE",
"0 1431.75 OFFCURVE",
"0 769 CURVE SMOOTH",
"0 106.252 OFFCURVE",
"537.252 -431 OFFCURVE",
"1200 -431 CURVE SMOOTH",
"1862.75 -431 OFFCURVE",
"2400 106.252 OFFCURVE",
"2400 769 CURVE SMOOTH",
"2400 1431.75 OFFCURVE",
"1862.75 1969 OFFCURVE",
"1200 1969 CURVE SMOOTH"
);
},
{
closed = 1;
nodes = (
"1648.82 1392.4 OFFCURVE",
"1731.4 1353.83 OFFCURVE",
"1789.36 1292.06 CURVE",
"1861.76 1306.31 OFFCURVE",
"1929.77 1332.76 OFFCURVE",
"1991.17 1369.18 CURVE",
"1967.44 1294.96 OFFCURVE",
"1917.05 1232.69 OFFCURVE",
"1851.45 1193.36 CURVE",
"1915.72 1201.04 OFFCURVE",
"1976.96 1218.11 OFFCURVE",
"2033.97 1243.39 CURVE",
"1991.36 1179.67 OFFCURVE",
"1937.48 1123.69 OFFCURVE",
"1875.4 1078.89 CURVE",
"1875.4 1037.77 LINE SMOOTH",
"1876.32 617.831 OFFCURVE",
"1556.67 133.593 OFFCURVE",
"972.14 133.593 CURVE SMOOTH",
"792.676 133.593 OFFCURVE",
"625.634 186.212 OFFCURVE",
"485 276.38 CURVE",
"509.863 273.434 OFFCURVE",
"535.166 271.928 OFFCURVE",
"560.811 271.928 CURVE SMOOTH",
"709.699 271.928 OFFCURVE",
"846.721 322.733 OFFCURVE",
"955.48 407.965 CURVE",
"816.424 410.534 OFFCURVE",
"699.059 502.418 OFFCURVE",
"658.623 628.663 CURVE",
"678.039 624.955 OFFCURVE",
"697.941 622.956 OFFCURVE",
"718.415 622.956 CURVE SMOOTH",
"747.398 622.956 OFFCURVE",
"775.471 626.846 OFFCURVE",
"802.132 634.109 CURVE",
"656.768 663.309 OFFCURVE",
"547.22 791.752 OFFCURVE",
"547.22 945.717 CURVE SMOOTH",
"547.251 949.717 LINE",
"590.091 925.919 OFFCURVE",
"639.101 911.624 OFFCURVE",
"691.187 909.973 CURVE",
"605.911 966.963 OFFCURVE",
"549.815 1064.22 OFFCURVE",
"549.815 1174.48 CURVE SMOOTH",
"549.815 1232.72 OFFCURVE",
"565.48 1287.31 OFFCURVE",
"592.844 1334.25 CURVE",
"749.578 1141.98 OFFCURVE",
"983.748 1015.46 OFFCURVE",
"1247.86 1002.2 CURVE",
"1242.43 1025.48 OFFCURVE",
"1239.62 1049.72 OFFCURVE",
"1239.62 1074.63 CURVE SMOOTH",
"1239.62 1250.13 OFFCURVE",
"1381.92 1392.4 OFFCURVE",
"1557.41 1392.4 CURVE SMOOTH"
);
}
);
width = 2400;
}
);
unicode = E035;
},
{
glyphname = uniE036;
lastChange = "2013-10-29 20:22:44 -0800";
layers = (
{
layerId = "06D35582-4FA2-40C1-8C5B-DEFCD1A2473F";
name = Regular;
paths = (
{
closed = 1;
nodes = (
"1648.82 1392.4 OFFCURVE",
"1731.4 1353.83 OFFCURVE",
"1789.36 1292.06 CURVE",
"1861.76 1306.31 OFFCURVE",
"1929.77 1332.76 OFFCURVE",
"1991.17 1369.18 CURVE",
"1967.44 1294.96 OFFCURVE",
"1917.05 1232.69 OFFCURVE",
"1851.45 1193.36 CURVE",
"1915.72 1201.04 OFFCURVE",
"1976.96 1218.11 OFFCURVE",
"2033.97 1243.39 CURVE",
"1991.36 1179.67 OFFCURVE",
"1937.48 1123.69 OFFCURVE",
"1875.4 1078.89 CURVE",
"1875.4 1037.77 LINE SMOOTH",
"1876.32 617.83 OFFCURVE",
"1556.67 133.592 OFFCURVE",
"972.14 133.592 CURVE SMOOTH",
"792.676 133.592 OFFCURVE",
"625.634 186.211 OFFCURVE",
"485 276.379 CURVE",
"509.863 273.433 OFFCURVE",
"535.166 271.927 OFFCURVE",
"560.811 271.927 CURVE SMOOTH",
"709.699 271.927 OFFCURVE",
"846.721 322.732 OFFCURVE",
"955.48 407.964 CURVE",
"816.424 410.533 OFFCURVE",
"699.059 502.417 OFFCURVE",
"658.623 628.662 CURVE",
"678.039 624.954 OFFCURVE",
"697.941 622.955 OFFCURVE",
"718.415 622.955 CURVE SMOOTH",
"747.398 622.955 OFFCURVE",
"775.471 626.845 OFFCURVE",
"802.132 634.108 CURVE",
"656.768 663.308 OFFCURVE",
"547.22 791.751 OFFCURVE",
"547.22 945.716 CURVE SMOOTH",
"547.251 949.715 LINE",
"590.091 925.917 OFFCURVE",
"639.101 911.622 OFFCURVE",
"691.187 909.971 CURVE",
"605.911 966.961 OFFCURVE",
"549.815 1064.22 OFFCURVE",
"549.815 1174.48 CURVE SMOOTH",
"549.815 1232.72 OFFCURVE",
"565.48 1287.31 OFFCURVE",
"592.844 1334.25 CURVE",
"749.578 1141.98 OFFCURVE",
"983.748 1015.46 OFFCURVE",
"1247.86 1002.2 CURVE",
"1242.43 1025.48 OFFCURVE",
"1239.62 1049.72 OFFCURVE",
"1239.62 1074.63 CURVE SMOOTH",
"1239.62 1250.13 OFFCURVE",
"1381.92 1392.4 OFFCURVE",
"1557.41 1392.4 CURVE SMOOTH"
);
}
);
width = 2400;
}
);
unicode = E036;
},
{
glyphname = uniE037;
lastChange = "2014-01-08 19:15:44 -0800";
layers = (
{
layerId = "06D35582-4FA2-40C1-8C5B-DEFCD1A2473F";
name = Regular;
paths = (
{
closed = 1;
nodes = (
"2076 1303 LINE",
"324 1303 LINE",
"324 235 LINE",
"2076 235 LINE"
);
}
);
width = 2400;
}
);
unicode = E037;
},
{
glyphname = uniE03A;
lastChange = "2013-12-03 05:50:48 -0800";
layers = (
{
layerId = "06D35582-4FA2-40C1-8C5B-DEFCD1A2473F";
name = Regular;
paths = (
{
closed = 1;
nodes = (
"2400 1969 LINE",
"0 1969 LINE",
"0 -431 LINE",
"2400 -431 LINE"
);
},
{
closed = 1;
nodes = (
"1546.77 1562 LINE",
"1490.6 1532.98 OFFCURVE",
"1436.2 1503.98 OFFCURVE",
"1381.76 1474.94 CURVE SMOOTH",
"1374.93 1471.52 OFFCURVE",
"1369.01 1473 OFFCURVE",
"1365 1473 CURVE SMOOTH",
"1264.69 1473 LINE",
"1317.08 1428.72 OFFCURVE",
"1358.76 1373.83 OFFCURVE",
"1383.48 1308.84 CURVE SMOOTH",
"1411 1236.47 OFFCURVE",
"1411 1147.46 OFFCURVE",
"1382.43 1076.03 CURVE SMOOTH",
"1352.77 998.31 OFFCURVE",
"1290.08 942.816 OFFCURVE",
"1226.85 894.638 CURVE SMOOTH",
"1211.48 883.115 OFFCURVE",
"1199.05 868.762 OFFCURVE",
"1186.05 853.762 CURVE SMOOTH",
"1174.43 840.213 OFFCURVE",
"1166.62 828.061 OFFCURVE",
"1163.89 811.686 CURVE SMOOTH",
"1161.02 796.385 OFFCURVE",
"1161 780.254 OFFCURVE",
"1164.67 765.313 CURVE",
"1170.15 750.043 OFFCURVE",
"1179.77 739.563 OFFCURVE",
"1192.43 727.878 CURVE SMOOTH",
"1220.08 701.217 OFFCURVE",
"1251.72 679.463 OFFCURVE",
"1282.9 655.325 CURVE SMOOTH",
"1304.19 639.099 OFFCURVE",
"1324.35 619.952 OFFCURVE",
"1344.18 603.095 CURVE SMOOTH",
"1375.41 575.897 OFFCURVE",
"1405.22 547.116 OFFCURVE",
"1427.72 512.345 CURVE SMOOTH",
"1519.66 374.422 OFFCURVE",
"1471.11 193.646 OFFCURVE",
"1354.37 88.065 CURVE SMOOTH",
"1239.9 -16 OFFCURVE",
"1078.1 -57 OFFCURVE",
"927.212 -61 CURVE SMOOTH",
"781.52 -65 OFFCURVE",
"609.109 -40 OFFCURVE",
"502.211 72.475 CURVE SMOOTH",
"450.049 126.682 OFFCURVE",
"421.786 205.191 OFFCURVE",
"433.087 280.19 CURVE SMOOTH",
"443.276 350.496 OFFCURVE",
"478.61 418.047 OFFCURVE",
"532.753 465.039 CURVE SMOOTH",
"657.525 573.581 OFFCURVE",
"834.171 598.961 OFFCURVE",
"990.485 608.981 CURVE SMOOTH",
"1000.02 609.81 LINE",
"977.817 637.213 OFFCURVE",
"955.392 668.707 OFFCURVE",
"947.202 704.198 CURVE SMOOTH",
"937.893 745.158 OFFCURVE",
"944.586 782.772 OFFCURVE",
"959.952 819.429 CURVE",
"885.418 811.676 OFFCURVE",
"807.665 818.099 OFFCURVE",
"738.663 849.725 CURVE SMOOTH",
"669.47 880.25 OFFCURVE",
"614.509 933.137 OFFCURVE",
"578.905 1001.29 CURVE SMOOTH",
"510.714 1135.64 OFFCURVE",
"536.452 1312.71 OFFCURVE",
"640.258 1419.57 CURVE SMOOTH",
"696.008 1477.35 OFFCURVE",
"757.827 1513.41 OFFCURVE",
"838.786 1536.69 CURVE SMOOTH",
"912.671 1557.94 OFFCURVE",
"992.794 1562 OFFCURVE",
"1070 1562 CURVE SMOOTH"
);
},
{
closed = 1;
nodes = (
"905.844 1479 OFFCURVE",
"879.607 1473.38 OFFCURVE",
"853.467 1460.79 CURVE SMOOTH",
"826.179 1448.12 OFFCURVE",
"805.627 1432.24 OFFCURVE",
"789.215 1411.97 CURVE SMOOTH",
"770.745 1389.61 OFFCURVE",
"759.529 1367.18 OFFCURVE",
"752.741 1340.99 CURVE",
"746.9 1314.69 OFFCURVE",
"743.997 1288.56 OFFCURVE",
"743.997 1260 CURVE SMOOTH",
"743.997 1225.51 OFFCURVE",
"748.872 1187.48 OFFCURVE",
"759.758 1143.94 CURVE SMOOTH",
"770.635 1100.43 OFFCURVE",
"786.227 1060.48 OFFCURVE",
"807.92 1023.01 CURVE SMOOTH",
"830.478 985.74 OFFCURVE",
"857.529 954.824 OFFCURVE",
"889.947 929.282 CURVE SMOOTH",
"922.769 904.184 OFFCURVE",
"960.263 891.998 OFFCURVE",
"1005 891.998 CURVE SMOOTH",
"1031.26 891.998 OFFCURVE",
"1056.74 896.715 OFFCURVE",
"1082.98 907.406 CURVE",
"1108.16 919.035 OFFCURVE",
"1129.06 932.337 OFFCURVE",
"1146.51 948.813 CURVE SMOOTH",
"1169.55 971.86 OFFCURVE",
"1183.41 996.81 OFFCURVE",
"1189.16 1024.62 CURVE SMOOTH",
"1195.06 1054.1 OFFCURVE",
"1197 1078.32 OFFCURVE",
"1197 1097 CURVE SMOOTH",
"1197 1134.52 OFFCURVE",
"1192.12 1175.48 OFFCURVE",
"1180.27 1219.93 CURVE SMOOTH",
"1169.38 1264.49 OFFCURVE",
"1151.83 1306.4 OFFCURVE",
"1129.11 1344.93 CURVE SMOOTH",
"1106.43 1384.38 OFFCURVE",
"1079.46 1416.16 OFFCURVE",
"1046.14 1441.64 CURVE SMOOTH",
"1014.17 1466.83 OFFCURVE",
"976.732 1479 OFFCURVE",
"933.996 1479 CURVE SMOOTH"
);
},
{
closed = 1;
nodes = (
"1842 1062 LINE",
"1842 854.997 LINE",
"2048 854.997 LINE",
"2048 723.997 LINE",
"1842 723.997 LINE",
"1842 517.997 LINE",
"1710 517.997 LINE",
"1710 723.997 LINE",
"1504 723.997 LINE",
"1504 854.997 LINE",
"1710 854.997 LINE",
"1710 1062 LINE"
);
},
{
closed = 1;
nodes = (
"1039 535.997 LINE SMOOTH",
"1035.4 535.997 OFFCURVE",
"1025.4 534.997 OFFCURVE",
"1009 534.997 CURVE",
"993.498 534.013 OFFCURVE",
"975.583 533.018 OFFCURVE",
"953.723 531.031 CURVE",
"933.082 528.072 OFFCURVE",
"910.302 525.101 OFFCURVE",
"885.568 520.154 CURVE SMOOTH",
"861.786 515.199 OFFCURVE",
"838.135 509.286 OFFCURVE",
"815.328 502.345 CURVE",
"804.89 498.537 OFFCURVE",
"788.164 491.65 OFFCURVE",
"768.282 482.703 CURVE SMOOTH",
"747.701 473.881 OFFCURVE",
"727.722 461.513 OFFCURVE",
"708.181 444.903 CURVE SMOOTH",
"688.749 428.386 OFFCURVE",
"672.498 408.311 OFFCURVE",
"656.738 383.686 CURVE",
"642.536 359.052 OFFCURVE",
"635.999 330.106 OFFCURVE",
"635.999 292.998 CURVE SMOOTH",
"635.999 219.048 OFFCURVE",
"668.125 160.467 OFFCURVE",
"734.614 113.534 CURVE SMOOTH",
"801.418 66.379 OFFCURVE",
"892.017 42.999 OFFCURVE",
"1007 42.999 CURVE SMOOTH",
"1109.89 42.999 OFFCURVE",
"1185.28 64.261 OFFCURVE",
"1238.02 106.257 CURVE SMOOTH",
"1290.64 148.157 OFFCURVE",
"1316 198.888 OFFCURVE",
"1316 262.999 CURVE SMOOTH",
"1316 289.175 OFFCURVE",
"1311.32 311.65 OFFCURVE",
"1302.6 332.971 CURVE SMOOTH",
"1293.9 354.229 OFFCURVE",
"1280.67 374.071 OFFCURVE",
"1262.07 394.633 CURVE SMOOTH",
"1243.32 415.356 OFFCURVE",
"1219.85 436.866 OFFCURVE",
"1190.13 459.652 CURVE",
"1159.73 481.22 OFFCURVE",
"1125.3 506.788 OFFCURVE",
"1086.08 534.28 CURVE",
"1077.99 535.201 OFFCURVE",
"1071.94 536 OFFCURVE",
"1066 535.997 CURVE SMOOTH"
);
}
);
width = 2400;
}
);
unicode = E03A;
},
{
glyphname = uniE03B;
lastChange = "2013-12-03 05:51:00 -0800";
layers = (
{
layerId = "06D35582-4FA2-40C1-8C5B-DEFCD1A2473F";
name = Regular;
paths = (
{
closed = 1;
nodes = (
"256 1969 LINE SMOOTH",
"114.615 1969 OFFCURVE",
"0 1854.39 OFFCURVE",
"0 1713 CURVE SMOOTH",
"0 -175 LINE SMOOTH",
"0 -316 OFFCURVE",
"114.615 -431 OFFCURVE",
"256 -431 CURVE SMOOTH",
"2144 -431 LINE SMOOTH",
"2285.38 -431 OFFCURVE",
"2400 -316 OFFCURVE",
"2400 -175 CURVE SMOOTH",
"2400 1713 LINE SMOOTH",
"2400 1854.39 OFFCURVE",
"2285.38 1969 OFFCURVE",
"2144 1969 CURVE SMOOTH"
);
},
{
closed = 1;
nodes = (
"1546.77 1562 LINE",
"1490.6 1532.98 OFFCURVE",
"1436.2 1503.98 OFFCURVE",
"1381.76 1474.94 CURVE SMOOTH",
"1374.93 1471.52 OFFCURVE",
"1369.01 1473 OFFCURVE",
"1365 1473 CURVE SMOOTH",
"1264.69 1473 LINE",
"1317.08 1428.72 OFFCURVE",
"1358.76 1373.83 OFFCURVE",
"1383.48 1308.84 CURVE SMOOTH",
"1411 1236.47 OFFCURVE",
"1411 1147.46 OFFCURVE",
"1382.43 1076.03 CURVE SMOOTH",
"1352.77 998.31 OFFCURVE",
"1290.08 942.816 OFFCURVE",
"1226.85 894.638 CURVE SMOOTH",
"1211.48 883.115 OFFCURVE",
"1199.05 868.762 OFFCURVE",
"1186.05 853.762 CURVE SMOOTH",
"1174.43 840.213 OFFCURVE",
"1166.62 828.061 OFFCURVE",
"1163.89 811.686 CURVE SMOOTH",
"1161.02 796.385 OFFCURVE",
"1161 780.254 OFFCURVE",
"1164.67 765.313 CURVE",
"1170.15 750.043 OFFCURVE",
"1179.77 739.563 OFFCURVE",
"1192.43 727.878 CURVE SMOOTH",
"1220.08 701.217 OFFCURVE",
"1251.72 679.463 OFFCURVE",
"1282.9 655.325 CURVE SMOOTH",
"1304.19 639.099 OFFCURVE",
"1324.35 619.952 OFFCURVE",
"1344.18 603.095 CURVE SMOOTH",
"1375.41 575.897 OFFCURVE",
"1405.22 547.116 OFFCURVE",
"1427.72 512.345 CURVE SMOOTH",
"1519.66 374.422 OFFCURVE",
"1471.11 193.646 OFFCURVE",
"1354.37 88.065 CURVE SMOOTH",
"1239.9 -16 OFFCURVE",
"1078.1 -57 OFFCURVE",
"927.212 -61 CURVE SMOOTH",
"781.52 -65 OFFCURVE",
"609.109 -40 OFFCURVE",
"502.211 72.475 CURVE SMOOTH",
"450.049 126.682 OFFCURVE",
"421.786 205.191 OFFCURVE",
"433.087 280.19 CURVE SMOOTH",
"443.276 350.496 OFFCURVE",
"478.61 418.047 OFFCURVE",
"532.753 465.039 CURVE SMOOTH",
"657.525 573.581 OFFCURVE",
"834.171 598.961 OFFCURVE",
"990.485 608.981 CURVE SMOOTH",
"1000.02 609.81 LINE",
"977.817 637.213 OFFCURVE",
"955.392 668.707 OFFCURVE",
"947.202 704.198 CURVE SMOOTH",
"937.893 745.158 OFFCURVE",
"944.586 782.772 OFFCURVE",
"959.952 819.429 CURVE",
"885.418 811.676 OFFCURVE",
"807.665 818.099 OFFCURVE",
"738.663 849.725 CURVE SMOOTH",
"669.47 880.25 OFFCURVE",
"614.509 933.137 OFFCURVE",
"578.905 1001.29 CURVE SMOOTH",
"510.714 1135.64 OFFCURVE",
"536.452 1312.71 OFFCURVE",
"640.258 1419.57 CURVE SMOOTH",
"696.008 1477.35 OFFCURVE",
"757.827 1513.41 OFFCURVE",
"838.786 1536.69 CURVE SMOOTH",
"912.671 1557.94 OFFCURVE",
"992.794 1562 OFFCURVE",
"1070 1562 CURVE SMOOTH"
);
},
{
closed = 1;
nodes = (
"905.844 1479 OFFCURVE",
"879.607 1473.38 OFFCURVE",
"853.467 1460.79 CURVE SMOOTH",
"826.179 1448.12 OFFCURVE",
"805.627 1432.24 OFFCURVE",
"789.215 1411.97 CURVE SMOOTH",
"770.745 1389.61 OFFCURVE",
"759.529 1367.18 OFFCURVE",
"752.741 1340.99 CURVE",
"746.9 1314.69 OFFCURVE",
"743.997 1288.56 OFFCURVE",
"743.997 1260 CURVE SMOOTH",
"743.997 1225.51 OFFCURVE",
"748.872 1187.48 OFFCURVE",
"759.758 1143.94 CURVE SMOOTH",
"770.635 1100.43 OFFCURVE",
"786.227 1060.48 OFFCURVE",
"807.92 1023.01 CURVE SMOOTH",
"830.478 985.74 OFFCURVE",
"857.529 954.824 OFFCURVE",
"889.947 929.282 CURVE SMOOTH",
"922.769 904.184 OFFCURVE",
"960.263 891.998 OFFCURVE",
"1005 891.998 CURVE SMOOTH",
"1031.26 891.998 OFFCURVE",
"1056.74 896.715 OFFCURVE",
"1082.98 907.406 CURVE",
"1108.16 919.035 OFFCURVE",
"1129.06 932.337 OFFCURVE",
"1146.51 948.813 CURVE SMOOTH",
"1169.55 971.86 OFFCURVE",
"1183.41 996.81 OFFCURVE",
"1189.16 1024.62 CURVE SMOOTH",
"1195.06 1054.1 OFFCURVE",
"1197 1078.32 OFFCURVE",
"1197 1097 CURVE SMOOTH",
"1197 1134.52 OFFCURVE",
"1192.12 1175.48 OFFCURVE",
"1180.27 1219.93 CURVE SMOOTH",
"1169.38 1264.49 OFFCURVE",
"1151.83 1306.4 OFFCURVE",
"1129.11 1344.93 CURVE SMOOTH",
"1106.43 1384.38 OFFCURVE",
"1079.46 1416.16 OFFCURVE",
"1046.14 1441.64 CURVE SMOOTH",
"1014.17 1466.83 OFFCURVE",
"976.732 1479 OFFCURVE",
"933.996 1479 CURVE SMOOTH"
);
},
{
closed = 1;
nodes = (
"1842 1062 LINE",
"1842 854.997 LINE",
"2048 854.997 LINE",
"2048 723.997 LINE",
"1842 723.997 LINE",
"1842 517.997 LINE",
"1710 517.997 LINE",
"1710 723.997 LINE",
"1504 723.997 LINE",
"1504 854.997 LINE",
"1710 854.997 LINE",
"1710 1062 LINE"
);
},
{
closed = 1;
nodes = (
"1039 535.997 LINE SMOOTH",
"1035.4 535.997 OFFCURVE",
"1025.4 534.997 OFFCURVE",
"1009 534.997 CURVE",
"993.498 534.013 OFFCURVE",
"975.583 533.018 OFFCURVE",
"953.723 531.031 CURVE",
"933.082 528.072 OFFCURVE",
"910.302 525.101 OFFCURVE",
"885.568 520.154 CURVE SMOOTH",
"861.786 515.199 OFFCURVE",
"838.135 509.286 OFFCURVE",
"815.328 502.345 CURVE",
"804.89 498.537 OFFCURVE",
"788.164 491.65 OFFCURVE",
"768.282 482.703 CURVE SMOOTH",
"747.701 473.881 OFFCURVE",
"727.722 461.513 OFFCURVE",
"708.181 444.903 CURVE SMOOTH",
"688.749 428.386 OFFCURVE",
"672.498 408.311 OFFCURVE",
"656.738 383.686 CURVE",
"642.536 359.052 OFFCURVE",
"635.999 330.106 OFFCURVE",
"635.999 292.998 CURVE SMOOTH",
"635.999 219.048 OFFCURVE",
"668.125 160.467 OFFCURVE",
"734.614 113.534 CURVE SMOOTH",
"801.418 66.379 OFFCURVE",
"892.017 42.999 OFFCURVE",
"1007 42.999 CURVE SMOOTH",
"1109.89 42.999 OFFCURVE",
"1185.28 64.261 OFFCURVE",
"1238.02 106.257 CURVE SMOOTH",
"1290.64 148.157 OFFCURVE",
"1316 198.888 OFFCURVE",
"1316 262.999 CURVE SMOOTH",
"1316 289.175 OFFCURVE",
"1311.32 311.65 OFFCURVE",
"1302.6 332.971 CURVE SMOOTH",
"1293.9 354.229 OFFCURVE",
"1280.67 374.071 OFFCURVE",
"1262.07 394.633 CURVE SMOOTH",
"1243.32 415.356 OFFCURVE",
"1219.85 436.866 OFFCURVE",
"1190.13 459.652 CURVE",
"1159.73 481.22 OFFCURVE",
"1125.3 506.788 OFFCURVE",
"1086.08 534.28 CURVE",
"1077.99 535.201 OFFCURVE",
"1071.94 536 OFFCURVE",
"1066 535.997 CURVE SMOOTH"
);
}
);
width = 2400;
}
);
unicode = E03B;
},
{
glyphname = uniE03C;
lastChange = "2013-12-03 05:51:03 -0800";
layers = (
{
layerId = "06D35582-4FA2-40C1-8C5B-DEFCD1A2473F";
name = Regular;
paths = (
{
closed = 1;
nodes = (
"352 1969 LINE SMOOTH",
"157.596 1969 OFFCURVE",
"0 1811.4 OFFCURVE",
"0 1617 CURVE SMOOTH",
"0 -79 LINE SMOOTH",
"0 -273 OFFCURVE",
"157.596 -431 OFFCURVE",
"352 -431 CURVE SMOOTH",
"2048 -431 LINE SMOOTH",
"2242.4 -431 OFFCURVE",
"2400 -273 OFFCURVE",
"2400 -79 CURVE SMOOTH",
"2400 1617 LINE SMOOTH",
"2400 1811.4 OFFCURVE",
"2242.4 1969 OFFCURVE",
"2048 1969 CURVE SMOOTH"
);
},
{
closed = 1;
nodes = (
"1546.77 1562 LINE",
"1490.6 1532.98 OFFCURVE",
"1436.2 1503.98 OFFCURVE",
"1381.76 1474.94 CURVE SMOOTH",
"1374.93 1471.52 OFFCURVE",
"1369.01 1473 OFFCURVE",
"1365 1473 CURVE SMOOTH",
"1264.69 1473 LINE",
"1317.08 1428.72 OFFCURVE",
"1358.76 1373.83 OFFCURVE",
"1383.48 1308.84 CURVE SMOOTH",
"1411 1236.47 OFFCURVE",
"1411 1147.46 OFFCURVE",
"1382.43 1076.03 CURVE SMOOTH",
"1352.77 998.31 OFFCURVE",
"1290.08 942.816 OFFCURVE",
"1226.85 894.638 CURVE SMOOTH",
"1211.48 883.115 OFFCURVE",
"1199.05 868.762 OFFCURVE",
"1186.05 853.762 CURVE SMOOTH",
"1174.43 840.213 OFFCURVE",
"1166.62 828.061 OFFCURVE",
"1163.89 811.686 CURVE SMOOTH",
"1161.02 796.385 OFFCURVE",
"1161 780.254 OFFCURVE",
"1164.67 765.313 CURVE",
"1170.15 750.043 OFFCURVE",
"1179.77 739.563 OFFCURVE",
"1192.43 727.878 CURVE SMOOTH",
"1220.08 701.217 OFFCURVE",
"1251.72 679.463 OFFCURVE",
"1282.9 655.325 CURVE SMOOTH",
"1304.19 639.099 OFFCURVE",
"1324.35 619.952 OFFCURVE",
"1344.18 603.095 CURVE SMOOTH",
"1375.41 575.897 OFFCURVE",
"1405.22 547.116 OFFCURVE",
"1427.72 512.345 CURVE SMOOTH",
"1519.66 374.422 OFFCURVE",
"1471.11 193.646 OFFCURVE",
"1354.37 88.065 CURVE SMOOTH",
"1239.9 -16 OFFCURVE",
"1078.1 -57 OFFCURVE",
"927.212 -61 CURVE SMOOTH",
"781.52 -65 OFFCURVE",
"609.109 -40 OFFCURVE",
"502.211 72.475 CURVE SMOOTH",
"450.049 126.682 OFFCURVE",
"421.786 205.191 OFFCURVE",
"433.087 280.19 CURVE SMOOTH",
"443.276 350.496 OFFCURVE",
"478.61 418.047 OFFCURVE",
"532.753 465.039 CURVE SMOOTH",
"657.525 573.581 OFFCURVE",
"834.171 598.961 OFFCURVE",
"990.485 608.981 CURVE SMOOTH",
"1000.02 609.81 LINE",
"977.817 637.213 OFFCURVE",
"955.392 668.707 OFFCURVE",
"947.202 704.198 CURVE SMOOTH",
"937.893 745.158 OFFCURVE",
"944.586 782.772 OFFCURVE",
"959.952 819.429 CURVE",
"885.418 811.676 OFFCURVE",
"807.665 818.099 OFFCURVE",
"738.663 849.725 CURVE SMOOTH",
"669.47 880.25 OFFCURVE",
"614.509 933.137 OFFCURVE",
"578.905 1001.29 CURVE SMOOTH",
"510.714 1135.64 OFFCURVE",
"536.452 1312.71 OFFCURVE",
"640.258 1419.57 CURVE SMOOTH",
"696.008 1477.35 OFFCURVE",
"757.827 1513.41 OFFCURVE",
"838.786 1536.69 CURVE SMOOTH",
"912.671 1557.94 OFFCURVE",
"992.794 1562 OFFCURVE",
"1070 1562 CURVE SMOOTH"
);
},
{
closed = 1;
nodes = (
"905.844 1479 OFFCURVE",
"879.607 1473.38 OFFCURVE",
"853.467 1460.79 CURVE SMOOTH",
"826.179 1448.12 OFFCURVE",
"805.627 1432.24 OFFCURVE",
"789.215 1411.97 CURVE SMOOTH",
"770.745 1389.61 OFFCURVE",
"759.529 1367.18 OFFCURVE",
"752.741 1340.99 CURVE",
"746.9 1314.69 OFFCURVE",
"743.997 1288.56 OFFCURVE",
"743.997 1260 CURVE SMOOTH",
"743.997 1225.51 OFFCURVE",
"748.872 1187.48 OFFCURVE",
"759.758 1143.94 CURVE SMOOTH",
"770.635 1100.43 OFFCURVE",
"786.227 1060.48 OFFCURVE",
"807.92 1023.01 CURVE SMOOTH",
"830.478 985.74 OFFCURVE",
"857.529 954.824 OFFCURVE",
"889.947 929.282 CURVE SMOOTH",
"922.769 904.184 OFFCURVE",
"960.263 891.998 OFFCURVE",
"1005 891.998 CURVE SMOOTH",
"1031.26 891.998 OFFCURVE",
"1056.74 896.715 OFFCURVE",
"1082.98 907.406 CURVE",
"1108.16 919.035 OFFCURVE",
"1129.06 932.337 OFFCURVE",
"1146.51 948.813 CURVE SMOOTH",
"1169.55 971.86 OFFCURVE",
"1183.41 996.81 OFFCURVE",
"1189.16 1024.62 CURVE SMOOTH",
"1195.06 1054.1 OFFCURVE",
"1197 1078.32 OFFCURVE",
"1197 1097 CURVE SMOOTH",
"1197 1134.52 OFFCURVE",
"1192.12 1175.48 OFFCURVE",
"1180.27 1219.93 CURVE SMOOTH",
"1169.38 1264.49 OFFCURVE",
"1151.83 1306.4 OFFCURVE",
"1129.11 1344.93 CURVE SMOOTH",
"1106.43 1384.38 OFFCURVE",
"1079.46 1416.16 OFFCURVE",
"1046.14 1441.64 CURVE SMOOTH",
"1014.17 1466.83 OFFCURVE",
"976.732 1479 OFFCURVE",
"933.996 1479 CURVE SMOOTH"
);
},
{
closed = 1;
nodes = (
"1842 1062 LINE",
"1842 854.997 LINE",
"2048 854.997 LINE",
"2048 723.997 LINE",
"1842 723.997 LINE",
"1842 517.997 LINE",
"1710 517.997 LINE",
"1710 723.997 LINE",
"1504 723.997 LINE",
"1504 854.997 LINE",
"1710 854.997 LINE",
"1710 1062 LINE"
);
},
{
closed = 1;
nodes = (
"1039 535.997 LINE SMOOTH",
"1035.4 535.997 OFFCURVE",
"1025.4 534.997 OFFCURVE",
"1009 534.997 CURVE",
"993.498 534.013 OFFCURVE",
"975.583 533.018 OFFCURVE",
"953.723 531.031 CURVE",
"933.082 528.072 OFFCURVE",
"910.302 525.101 OFFCURVE",
"885.568 520.154 CURVE SMOOTH",
"861.786 515.199 OFFCURVE",
"838.135 509.286 OFFCURVE",
"815.328 502.345 CURVE",
"804.89 498.537 OFFCURVE",
"788.164 491.65 OFFCURVE",
"768.282 482.703 CURVE SMOOTH",
"747.701 473.881 OFFCURVE",
"727.722 461.513 OFFCURVE",
"708.181 444.903 CURVE SMOOTH",
"688.749 428.386 OFFCURVE",
"672.498 408.311 OFFCURVE",
"656.738 383.686 CURVE",
"642.536 359.052 OFFCURVE",
"635.999 330.106 OFFCURVE",
"635.999 292.998 CURVE SMOOTH",
"635.999 219.048 OFFCURVE",
"668.125 160.467 OFFCURVE",
"734.614 113.534 CURVE SMOOTH",
"801.418 66.379 OFFCURVE",
"892.017 42.999 OFFCURVE",
"1007 42.999 CURVE SMOOTH",
"1109.89 42.999 OFFCURVE",
"1185.28 64.261 OFFCURVE",
"1238.02 106.257 CURVE SMOOTH",
"1290.64 148.157 OFFCURVE",
"1316 198.888 OFFCURVE",
"1316 262.999 CURVE SMOOTH",
"1316 289.175 OFFCURVE",
"1311.32 311.65 OFFCURVE",
"1302.6 332.971 CURVE SMOOTH",
"1293.9 354.229 OFFCURVE",
"1280.67 374.071 OFFCURVE",
"1262.07 394.633 CURVE SMOOTH",
"1243.32 415.356 OFFCURVE",
"1219.85 436.866 OFFCURVE",
"1190.13 459.652 CURVE",
"1159.73 481.22 OFFCURVE",
"1125.3 506.788 OFFCURVE",
"1086.08 534.28 CURVE",
"1077.99 535.201 OFFCURVE",
"1071.94 536 OFFCURVE",
"1066 535.997 CURVE SMOOTH"
);
}
);
width = 2400;
}
);
unicode = E03C;
},
{
glyphname = uniE03D;
lastChange = "2013-12-03 05:51:08 -0800";
layers = (
{
layerId = "06D35582-4FA2-40C1-8C5B-DEFCD1A2473F";
name = Regular;
paths = (
{
closed = 1;
nodes = (
"836.742 1969 LINE SMOOTH",
"595.804 1969 OFFCURVE",
"475.34 1969 OFFCURVE",
"345.66 1928 CURVE",
"204.07 1876.46 OFFCURVE",
"92.539 1764.93 OFFCURVE",
"41.004 1623.34 CURVE",
"0 1493.66 OFFCURVE",
"0 1373.2 OFFCURVE",
"0 1132.26 CURVE SMOOTH",
"0 405.743 LINE SMOOTH",
"0 164.805 OFFCURVE",
"0 44.344 OFFCURVE",
"41.004 -85 CURVE",
"92.539 -227 OFFCURVE",
"204.07 -338 OFFCURVE",
"345.66 -390 CURVE",
"475.34 -431 OFFCURVE",
"595.804 -431 OFFCURVE",
"836.742 -431 CURVE SMOOTH",
"1563.26 -431 LINE SMOOTH",
"1804.2 -431 OFFCURVE",
"1924.66 -431 OFFCURVE",
"2054.34 -390 CURVE",
"2195.93 -338 OFFCURVE",
"2307.46 -227 OFFCURVE",
"2359 -85 CURVE",
"2400 44.344 OFFCURVE",
"2400 164.805 OFFCURVE",
"2400 405.743 CURVE SMOOTH",
"2400 1132.26 LINE SMOOTH",
"2400 1373.2 OFFCURVE",
"2400 1493.66 OFFCURVE",
"2359 1623.34 CURVE",
"2307.46 1764.93 OFFCURVE",
"2195.93 1876.46 OFFCURVE",
"2054.34 1928 CURVE",
"1924.66 1969 OFFCURVE",
"1804.2 1969 OFFCURVE",
"1563.26 1969 CURVE SMOOTH"
);
},
{
closed = 1;
nodes = (
"1546.77 1562 LINE",
"1490.6 1532.98 OFFCURVE",
"1436.2 1503.98 OFFCURVE",
"1381.76 1474.94 CURVE SMOOTH",
"1374.93 1471.52 OFFCURVE",
"1369.01 1473 OFFCURVE",
"1365 1473 CURVE SMOOTH",
"1264.69 1473 LINE",
"1317.08 1428.72 OFFCURVE",
"1358.76 1373.83 OFFCURVE",
"1383.48 1308.84 CURVE SMOOTH",
"1411 1236.47 OFFCURVE",
"1411 1147.46 OFFCURVE",
"1382.43 1076.03 CURVE SMOOTH",
"1352.77 998.31 OFFCURVE",
"1290.08 942.816 OFFCURVE",
"1226.85 894.638 CURVE SMOOTH",
"1211.48 883.115 OFFCURVE",
"1199.05 868.762 OFFCURVE",
"1186.05 853.762 CURVE SMOOTH",
"1174.43 840.213 OFFCURVE",
"1166.62 828.061 OFFCURVE",
"1163.89 811.686 CURVE SMOOTH",
"1161.02 796.385 OFFCURVE",
"1161 780.254 OFFCURVE",
"1164.67 765.313 CURVE",
"1170.15 750.043 OFFCURVE",
"1179.77 739.563 OFFCURVE",
"1192.43 727.878 CURVE SMOOTH",
"1220.08 701.217 OFFCURVE",
"1251.72 679.463 OFFCURVE",
"1282.9 655.325 CURVE SMOOTH",
"1304.19 639.099 OFFCURVE",
"1324.35 619.952 OFFCURVE",
"1344.18 603.095 CURVE SMOOTH",
"1375.41 575.897 OFFCURVE",
"1405.22 547.116 OFFCURVE",
"1427.72 512.345 CURVE SMOOTH",
"1519.66 374.422 OFFCURVE",
"1471.11 193.646 OFFCURVE",
"1354.37 88.065 CURVE SMOOTH",
"1239.9 -16 OFFCURVE",
"1078.1 -57 OFFCURVE",
"927.212 -61 CURVE SMOOTH",
"781.52 -65 OFFCURVE",
"609.109 -40 OFFCURVE",
"502.211 72.475 CURVE SMOOTH",
"450.049 126.682 OFFCURVE",
"421.786 205.191 OFFCURVE",
"433.087 280.19 CURVE SMOOTH",
"443.276 350.496 OFFCURVE",
"478.61 418.047 OFFCURVE",
"532.753 465.039 CURVE SMOOTH",
"657.525 573.581 OFFCURVE",
"834.171 598.961 OFFCURVE",
"990.485 608.981 CURVE SMOOTH",
"1000.02 609.81 LINE",
"977.817 637.213 OFFCURVE",
"955.392 668.707 OFFCURVE",
"947.202 704.198 CURVE SMOOTH",
"937.893 745.158 OFFCURVE",
"944.586 782.772 OFFCURVE",
"959.952 819.429 CURVE",
"885.418 811.676 OFFCURVE",
"807.665 818.099 OFFCURVE",
"738.663 849.725 CURVE SMOOTH",
"669.47 880.25 OFFCURVE",
"614.509 933.137 OFFCURVE",
"578.905 1001.29 CURVE SMOOTH",
"510.714 1135.64 OFFCURVE",
"536.452 1312.71 OFFCURVE",
"640.258 1419.57 CURVE SMOOTH",
"696.008 1477.35 OFFCURVE",
"757.827 1513.41 OFFCURVE",
"838.786 1536.69 CURVE SMOOTH",
"912.671 1557.94 OFFCURVE",
"992.794 1562 OFFCURVE",
"1070 1562 CURVE SMOOTH"
);
},
{
closed = 1;
nodes = (
"905.844 1479 OFFCURVE",
"879.607 1473.38 OFFCURVE",
"853.467 1460.79 CURVE SMOOTH",
"826.179 1448.12 OFFCURVE",
"805.627 1432.24 OFFCURVE",
"789.215 1411.97 CURVE SMOOTH",
"770.745 1389.61 OFFCURVE",
"759.529 1367.18 OFFCURVE",
"752.741 1340.99 CURVE",
"746.9 1314.69 OFFCURVE",
"743.997 1288.56 OFFCURVE",
"743.997 1260 CURVE SMOOTH",
"743.997 1225.51 OFFCURVE",
"748.872 1187.48 OFFCURVE",
"759.758 1143.94 CURVE SMOOTH",
"770.635 1100.43 OFFCURVE",
"786.227 1060.48 OFFCURVE",
"807.92 1023.01 CURVE SMOOTH",
"830.478 985.74 OFFCURVE",
"857.529 954.824 OFFCURVE",
"889.947 929.282 CURVE SMOOTH",
"922.769 904.184 OFFCURVE",
"960.263 891.998 OFFCURVE",
"1005 891.998 CURVE SMOOTH",
"1031.26 891.998 OFFCURVE",
"1056.74 896.715 OFFCURVE",
"1082.98 907.406 CURVE",
"1108.16 919.035 OFFCURVE",
"1129.06 932.337 OFFCURVE",
"1146.51 948.813 CURVE SMOOTH",
"1169.55 971.86 OFFCURVE",
"1183.41 996.81 OFFCURVE",
"1189.16 1024.62 CURVE SMOOTH",
"1195.06 1054.1 OFFCURVE",
"1197 1078.32 OFFCURVE",
"1197 1097 CURVE SMOOTH",
"1197 1134.52 OFFCURVE",
"1192.12 1175.48 OFFCURVE",
"1180.27 1219.93 CURVE SMOOTH",
"1169.38 1264.49 OFFCURVE",
"1151.83 1306.4 OFFCURVE",
"1129.11 1344.93 CURVE SMOOTH",
"1106.43 1384.38 OFFCURVE",
"1079.46 1416.16 OFFCURVE",
"1046.14 1441.64 CURVE SMOOTH",
"1014.17 1466.83 OFFCURVE",
"976.732 1479 OFFCURVE",
"933.996 1479 CURVE SMOOTH"
);
},
{
closed = 1;
nodes = (
"1842 1062 LINE",
"1842 854.997 LINE",
"2048 854.997 LINE",
"2048 723.997 LINE",
"1842 723.997 LINE",
"1842 517.997 LINE",
"1710 517.997 LINE",
"1710 723.997 LINE",
"1504 723.997 LINE",
"1504 854.997 LINE",
"1710 854.997 LINE",
"1710 1062 LINE"
);
},
{
closed = 1;
nodes = (
"1039 535.997 LINE SMOOTH",
"1035.4 535.997 OFFCURVE",
"1025.4 534.997 OFFCURVE",
"1009 534.997 CURVE",
"993.498 534.013 OFFCURVE",
"975.583 533.018 OFFCURVE",
"953.723 531.031 CURVE",
"933.082 528.072 OFFCURVE",
"910.302 525.101 OFFCURVE",
"885.568 520.154 CURVE SMOOTH",
"861.786 515.199 OFFCURVE",
"838.135 509.286 OFFCURVE",
"815.328 502.345 CURVE",
"804.89 498.537 OFFCURVE",
"788.164 491.65 OFFCURVE",
"768.282 482.703 CURVE SMOOTH",
"747.701 473.881 OFFCURVE",
"727.722 461.513 OFFCURVE",
"708.181 444.903 CURVE SMOOTH",
"688.749 428.386 OFFCURVE",
"672.498 408.311 OFFCURVE",
"656.738 383.686 CURVE",
"642.536 359.052 OFFCURVE",
"635.999 330.106 OFFCURVE",
"635.999 292.998 CURVE SMOOTH",
"635.999 219.048 OFFCURVE",
"668.125 160.467 OFFCURVE",
"734.614 113.534 CURVE SMOOTH",
"801.418 66.379 OFFCURVE",
"892.017 42.999 OFFCURVE",
"1007 42.999 CURVE SMOOTH",
"1109.89 42.999 OFFCURVE",
"1185.28 64.261 OFFCURVE",
"1238.02 106.257 CURVE SMOOTH",
"1290.64 148.157 OFFCURVE",
"1316 198.888 OFFCURVE",
"1316 262.999 CURVE SMOOTH",
"1316 289.175 OFFCURVE",
"1311.32 311.65 OFFCURVE",
"1302.6 332.971 CURVE SMOOTH",
"1293.9 354.229 OFFCURVE",
"1280.67 374.071 OFFCURVE",
"1262.07 394.633 CURVE SMOOTH",
"1243.32 415.356 OFFCURVE",
"1219.85 436.866 OFFCURVE",
"1190.13 459.652 CURVE",
"1159.73 481.22 OFFCURVE",
"1125.3 506.788 OFFCURVE",
"1086.08 534.28 CURVE",
"1077.99 535.201 OFFCURVE",
"1071.94 536 OFFCURVE",
"1066 535.997 CURVE SMOOTH"
);
}
);
width = 2400;
}
);
unicode = E03D;
},
{
glyphname = uniE03E;
lastChange = "2013-12-03 05:51:11 -0800";
layers = (
{
layerId = "06D35582-4FA2-40C1-8C5B-DEFCD1A2473F";
name = Regular;
paths = (
{
closed = 1;
nodes = (
"537.252 1969 OFFCURVE",
"0 1431.75 OFFCURVE",
"0 769 CURVE SMOOTH",
"0 106.252 OFFCURVE",
"537.252 -431 OFFCURVE",
"1200 -431 CURVE SMOOTH",
"1862.75 -431 OFFCURVE",
"2400 106.252 OFFCURVE",
"2400 769 CURVE SMOOTH",
"2400 1431.75 OFFCURVE",
"1862.75 1969 OFFCURVE",
"1200 1969 CURVE SMOOTH"
);
},
{
closed = 1;
nodes = (
"1546.77 1562 LINE",
"1490.6 1532.98 OFFCURVE",
"1436.2 1503.98 OFFCURVE",
"1381.76 1474.94 CURVE SMOOTH",
"1374.93 1471.52 OFFCURVE",
"1369.01 1473 OFFCURVE",
"1365 1473 CURVE SMOOTH",
"1264.69 1473 LINE",
"1317.08 1428.72 OFFCURVE",
"1358.76 1373.83 OFFCURVE",
"1383.48 1308.84 CURVE SMOOTH",
"1411 1236.47 OFFCURVE",
"1411 1147.46 OFFCURVE",
"1382.43 1076.03 CURVE SMOOTH",
"1352.77 998.31 OFFCURVE",
"1290.08 942.816 OFFCURVE",
"1226.85 894.638 CURVE SMOOTH",
"1211.48 883.115 OFFCURVE",
"1199.05 868.762 OFFCURVE",
"1186.05 853.762 CURVE SMOOTH",
"1174.43 840.213 OFFCURVE",
"1166.62 828.061 OFFCURVE",
"1163.89 811.686 CURVE SMOOTH",
"1161.02 796.385 OFFCURVE",
"1161 780.254 OFFCURVE",
"1164.67 765.313 CURVE",
"1170.15 750.043 OFFCURVE",
"1179.77 739.563 OFFCURVE",
"1192.43 727.878 CURVE SMOOTH",
"1220.08 701.217 OFFCURVE",
"1251.72 679.463 OFFCURVE",
"1282.9 655.325 CURVE SMOOTH",
"1304.19 639.099 OFFCURVE",
"1324.35 619.952 OFFCURVE",
"1344.18 603.095 CURVE SMOOTH",
"1375.41 575.897 OFFCURVE",
"1405.22 547.116 OFFCURVE",
"1427.72 512.345 CURVE SMOOTH",
"1519.66 374.422 OFFCURVE",
"1471.11 193.646 OFFCURVE",
"1354.37 88.065 CURVE SMOOTH",
"1239.9 -16 OFFCURVE",
"1078.1 -57 OFFCURVE",
"927.212 -61 CURVE SMOOTH",
"781.52 -65 OFFCURVE",
"609.109 -40 OFFCURVE",
"502.211 72.475 CURVE SMOOTH",
"450.049 126.682 OFFCURVE",
"421.786 205.191 OFFCURVE",
"433.087 280.19 CURVE SMOOTH",
"443.276 350.496 OFFCURVE",
"478.61 418.047 OFFCURVE",
"532.753 465.039 CURVE SMOOTH",
"657.525 573.581 OFFCURVE",
"834.171 598.961 OFFCURVE",
"990.485 608.981 CURVE SMOOTH",
"1000.02 609.81 LINE",
"977.817 637.213 OFFCURVE",
"955.392 668.707 OFFCURVE",
"947.202 704.198 CURVE SMOOTH",
"937.893 745.158 OFFCURVE",
"944.586 782.772 OFFCURVE",
"959.952 819.429 CURVE",
"885.418 811.676 OFFCURVE",
"807.665 818.099 OFFCURVE",
"738.663 849.725 CURVE SMOOTH",
"669.47 880.25 OFFCURVE",
"614.509 933.137 OFFCURVE",
"578.905 1001.29 CURVE SMOOTH",
"510.714 1135.64 OFFCURVE",
"536.452 1312.71 OFFCURVE",
"640.258 1419.57 CURVE SMOOTH",
"696.008 1477.35 OFFCURVE",
"757.827 1513.41 OFFCURVE",
"838.786 1536.69 CURVE SMOOTH",
"912.671 1557.94 OFFCURVE",
"992.794 1562 OFFCURVE",
"1070 1562 CURVE SMOOTH"
);
},
{
closed = 1;
nodes = (
"905.844 1479 OFFCURVE",
"879.607 1473.38 OFFCURVE",
"853.467 1460.79 CURVE SMOOTH",
"826.179 1448.12 OFFCURVE",
"805.627 1432.24 OFFCURVE",
"789.215 1411.97 CURVE SMOOTH",
"770.745 1389.61 OFFCURVE",
"759.529 1367.18 OFFCURVE",
"752.741 1340.99 CURVE",
"746.9 1314.69 OFFCURVE",
"743.997 1288.56 OFFCURVE",
"743.997 1260 CURVE SMOOTH",
"743.997 1225.51 OFFCURVE",
"748.872 1187.48 OFFCURVE",
"759.758 1143.94 CURVE SMOOTH",
"770.635 1100.43 OFFCURVE",
"786.227 1060.48 OFFCURVE",
"807.92 1023.01 CURVE SMOOTH",
"830.478 985.74 OFFCURVE",
"857.529 954.824 OFFCURVE",
"889.947 929.282 CURVE SMOOTH",
"922.769 904.184 OFFCURVE",
"960.263 891.998 OFFCURVE",
"1005 891.998 CURVE SMOOTH",
"1031.26 891.998 OFFCURVE",
"1056.74 896.715 OFFCURVE",
"1082.98 907.406 CURVE",
"1108.16 919.035 OFFCURVE",
"1129.06 932.337 OFFCURVE",
"1146.51 948.813 CURVE SMOOTH",
"1169.55 971.86 OFFCURVE",
"1183.41 996.81 OFFCURVE",
"1189.16 1024.62 CURVE SMOOTH",
"1195.06 1054.1 OFFCURVE",
"1197 1078.32 OFFCURVE",
"1197 1097 CURVE SMOOTH",
"1197 1134.52 OFFCURVE",
"1192.12 1175.48 OFFCURVE",
"1180.27 1219.93 CURVE SMOOTH",
"1169.38 1264.49 OFFCURVE",
"1151.83 1306.4 OFFCURVE",
"1129.11 1344.93 CURVE SMOOTH",
"1106.43 1384.38 OFFCURVE",
"1079.46 1416.16 OFFCURVE",
"1046.14 1441.64 CURVE SMOOTH",
"1014.17 1466.83 OFFCURVE",
"976.732 1479 OFFCURVE",
"933.996 1479 CURVE SMOOTH"
);
},
{
closed = 1;
nodes = (
"1842 1062 LINE",
"1842 854.997 LINE",
"2048 854.997 LINE",
"2048 723.997 LINE",
"1842 723.997 LINE",
"1842 517.997 LINE",
"1710 517.997 LINE",
"1710 723.997 LINE",
"1504 723.997 LINE",
"1504 854.997 LINE",
"1710 854.997 LINE",
"1710 1062 LINE"
);
},
{
closed = 1;
nodes = (
"1039 535.997 LINE SMOOTH",
"1035.4 535.997 OFFCURVE",
"1025.4 534.997 OFFCURVE",
"1009 534.997 CURVE",
"993.498 534.013 OFFCURVE",
"975.583 533.018 OFFCURVE",
"953.723 531.031 CURVE",
"933.082 528.072 OFFCURVE",
"910.302 525.101 OFFCURVE",
"885.568 520.154 CURVE SMOOTH",
"861.786 515.199 OFFCURVE",
"838.135 509.286 OFFCURVE",
"815.328 502.345 CURVE",
"804.89 498.537 OFFCURVE",
"788.164 491.65 OFFCURVE",
"768.282 482.703 CURVE SMOOTH",
"747.701 473.881 OFFCURVE",
"727.722 461.513 OFFCURVE",
"708.181 444.903 CURVE SMOOTH",
"688.749 428.386 OFFCURVE",
"672.498 408.311 OFFCURVE",
"656.738 383.686 CURVE",
"642.536 359.052 OFFCURVE",
"635.999 330.106 OFFCURVE",
"635.999 292.998 CURVE SMOOTH",
"635.999 219.048 OFFCURVE",
"668.125 160.467 OFFCURVE",
"734.614 113.534 CURVE SMOOTH",
"801.418 66.379 OFFCURVE",
"892.017 42.999 OFFCURVE",
"1007 42.999 CURVE SMOOTH",
"1109.89 42.999 OFFCURVE",
"1185.28 64.261 OFFCURVE",
"1238.02 106.257 CURVE SMOOTH",
"1290.64 148.157 OFFCURVE",
"1316 198.888 OFFCURVE",
"1316 262.999 CURVE SMOOTH",
"1316 289.175 OFFCURVE",
"1311.32 311.65 OFFCURVE",
"1302.6 332.971 CURVE SMOOTH",
"1293.9 354.229 OFFCURVE",
"1280.67 374.071 OFFCURVE",
"1262.07 394.633 CURVE SMOOTH",
"1243.32 415.356 OFFCURVE",
"1219.85 436.866 OFFCURVE",
"1190.13 459.652 CURVE",
"1159.73 481.22 OFFCURVE",
"1125.3 506.788 OFFCURVE",
"1086.08 534.28 CURVE",
"1077.99 535.201 OFFCURVE",
"1071.94 536 OFFCURVE",
"1066 535.997 CURVE SMOOTH"
);
}
);
width = 2400;
}
);
unicode = E03E;
},
{
glyphname = uniE03F;
lastChange = "2013-12-03 05:51:15 -0800";
layers = (
{
layerId = "06D35582-4FA2-40C1-8C5B-DEFCD1A2473F";
name = Regular;
paths = (
{
closed = 1;
nodes = (
"1070 1562 LINE SMOOTH",
"992.794 1562 OFFCURVE",
"912.671 1557.94 OFFCURVE",
"838.786 1536.69 CURVE SMOOTH",
"757.827 1513.41 OFFCURVE",
"696.008 1477.35 OFFCURVE",
"640.258 1419.57 CURVE SMOOTH",
"536.452 1312.71 OFFCURVE",
"510.714 1135.64 OFFCURVE",
"578.905 1001.29 CURVE SMOOTH",
"614.509 933.137 OFFCURVE",
"669.47 880.25 OFFCURVE",
"738.663 849.725 CURVE SMOOTH",
"807.665 818.099 OFFCURVE",
"885.418 811.676 OFFCURVE",
"959.952 819.429 CURVE",
"944.586 782.772 OFFCURVE",
"937.893 745.158 OFFCURVE",
"947.202 704.198 CURVE SMOOTH",
"955.392 668.707 OFFCURVE",
"977.817 637.213 OFFCURVE",
"1000.02 609.81 CURVE",
"990.485 608.981 LINE SMOOTH",
"834.171 598.961 OFFCURVE",
"657.525 573.581 OFFCURVE",
"532.753 465.039 CURVE SMOOTH",
"478.61 418.047 OFFCURVE",
"443.276 350.496 OFFCURVE",
"433.087 280.19 CURVE SMOOTH",
"421.786 205.191 OFFCURVE",
"450.049 126.682 OFFCURVE",
"502.211 72.475 CURVE SMOOTH",
"609.109 -40 OFFCURVE",
"781.52 -65 OFFCURVE",
"927.212 -61 CURVE SMOOTH",
"1078.1 -57 OFFCURVE",
"1239.9 -16 OFFCURVE",
"1354.37 88.065 CURVE SMOOTH",
"1471.11 193.646 OFFCURVE",
"1519.66 374.422 OFFCURVE",
"1427.72 512.345 CURVE SMOOTH",
"1405.22 547.116 OFFCURVE",
"1375.41 575.897 OFFCURVE",
"1344.18 603.095 CURVE SMOOTH",
"1324.35 619.952 OFFCURVE",
"1304.19 639.099 OFFCURVE",
"1282.9 655.325 CURVE SMOOTH",
"1251.72 679.463 OFFCURVE",
"1220.08 701.217 OFFCURVE",
"1192.43 727.878 CURVE SMOOTH",
"1179.77 739.563 OFFCURVE",
"1170.15 750.043 OFFCURVE",
"1164.67 765.313 CURVE",
"1161 780.254 OFFCURVE",
"1161.02 796.385 OFFCURVE",
"1163.89 811.686 CURVE SMOOTH",
"1166.62 828.061 OFFCURVE",
"1174.43 840.213 OFFCURVE",
"1186.05 853.762 CURVE SMOOTH",
"1199.05 868.762 OFFCURVE",
"1211.48 883.115 OFFCURVE",
"1226.85 894.638 CURVE SMOOTH",
"1290.08 942.816 OFFCURVE",
"1352.77 998.31 OFFCURVE",
"1382.43 1076.03 CURVE SMOOTH",
"1411 1147.46 OFFCURVE",
"1411 1236.47 OFFCURVE",
"1383.48 1308.84 CURVE SMOOTH",
"1358.76 1373.83 OFFCURVE",
"1317.08 1428.72 OFFCURVE",
"1264.69 1473 CURVE",
"1365 1473 LINE SMOOTH",
"1369.01 1473 OFFCURVE",
"1374.93 1471.52 OFFCURVE",
"1381.76 1474.94 CURVE SMOOTH",
"1436.2 1503.98 OFFCURVE",
"1490.6 1532.98 OFFCURVE",
"1546.77 1562 CURVE"
);
},
{
closed = 1;
nodes = (
"976.732 1479 OFFCURVE",
"1014.17 1466.83 OFFCURVE",
"1046.14 1441.64 CURVE SMOOTH",
"1079.46 1416.16 OFFCURVE",
"1106.43 1384.38 OFFCURVE",
"1129.11 1344.93 CURVE SMOOTH",
"1151.83 1306.4 OFFCURVE",
"1169.38 1264.49 OFFCURVE",
"1180.27 1219.93 CURVE SMOOTH",
"1192.12 1175.48 OFFCURVE",
"1197 1134.52 OFFCURVE",
"1197 1097 CURVE SMOOTH",
"1197 1078.32 OFFCURVE",
"1195.06 1054.1 OFFCURVE",
"1189.16 1024.62 CURVE SMOOTH",
"1183.41 996.81 OFFCURVE",
"1169.55 971.86 OFFCURVE",
"1146.51 948.813 CURVE SMOOTH",
"1129.06 932.337 OFFCURVE",
"1108.16 919.035 OFFCURVE",
"1082.98 907.406 CURVE",
"1056.74 896.715 OFFCURVE",
"1031.26 891.998 OFFCURVE",
"1005 891.998 CURVE SMOOTH",
"960.263 891.998 OFFCURVE",
"922.769 904.184 OFFCURVE",
"889.947 929.282 CURVE SMOOTH",
"857.529 954.824 OFFCURVE",
"830.478 985.74 OFFCURVE",
"807.92 1023.01 CURVE SMOOTH",
"786.227 1060.48 OFFCURVE",
"770.635 1100.43 OFFCURVE",
"759.758 1143.94 CURVE SMOOTH",
"748.872 1187.48 OFFCURVE",
"743.997 1225.51 OFFCURVE",
"743.997 1260 CURVE SMOOTH",
"743.997 1288.56 OFFCURVE",
"746.9 1314.69 OFFCURVE",
"752.741 1340.99 CURVE",
"759.529 1367.18 OFFCURVE",
"770.745 1389.61 OFFCURVE",
"789.215 1411.97 CURVE SMOOTH",
"805.627 1432.24 OFFCURVE",
"826.179 1448.12 OFFCURVE",
"853.467 1460.79 CURVE SMOOTH",
"879.607 1473.38 OFFCURVE",
"905.844 1479 OFFCURVE",
"933.996 1479 CURVE SMOOTH"
);
},
{
closed = 1;
nodes = (
"1842 1062 LINE",
"1710 1062 LINE",
"1710 854.997 LINE",
"1504 854.997 LINE",
"1504 723.997 LINE",
"1710 723.997 LINE",
"1710 517.997 LINE",
"1842 517.997 LINE",
"1842 723.997 LINE",
"2048 723.997 LINE",
"2048 854.997 LINE",
"1842 854.997 LINE"
);
},
{
closed = 1;
nodes = (
"1066 535.997 LINE SMOOTH",
"1071.94 536 OFFCURVE",
"1077.99 535.201 OFFCURVE",
"1086.08 534.28 CURVE",
"1125.3 506.788 OFFCURVE",
"1159.73 481.22 OFFCURVE",
"1190.13 459.652 CURVE",
"1219.85 436.866 OFFCURVE",
"1243.32 415.356 OFFCURVE",
"1262.07 394.633 CURVE SMOOTH",
"1280.67 374.071 OFFCURVE",
"1293.9 354.229 OFFCURVE",
"1302.6 332.971 CURVE SMOOTH",
"1311.32 311.65 OFFCURVE",
"1316 289.175 OFFCURVE",
"1316 262.999 CURVE SMOOTH",
"1316 198.888 OFFCURVE",
"1290.64 148.157 OFFCURVE",
"1238.02 106.257 CURVE SMOOTH",
"1185.28 64.261 OFFCURVE",
"1109.89 42.999 OFFCURVE",
"1007 42.999 CURVE SMOOTH",
"892.017 42.999 OFFCURVE",
"801.418 66.379 OFFCURVE",
"734.614 113.534 CURVE SMOOTH",
"668.125 160.467 OFFCURVE",
"635.999 219.048 OFFCURVE",
"635.999 292.998 CURVE SMOOTH",
"635.999 330.106 OFFCURVE",
"642.536 359.052 OFFCURVE",
"656.738 383.686 CURVE",
"672.498 408.311 OFFCURVE",
"688.749 428.386 OFFCURVE",
"708.181 444.903 CURVE SMOOTH",
"727.722 461.513 OFFCURVE",
"747.701 473.881 OFFCURVE",
"768.282 482.703 CURVE SMOOTH",
"788.164 491.65 OFFCURVE",
"804.89 498.537 OFFCURVE",
"815.328 502.345 CURVE",
"838.135 509.286 OFFCURVE",
"861.786 515.199 OFFCURVE",
"885.568 520.154 CURVE SMOOTH",
"910.302 525.101 OFFCURVE",
"933.082 528.072 OFFCURVE",
"953.723 531.031 CURVE",
"975.583 533.018 OFFCURVE",
"993.498 534.013 OFFCURVE",
"1009 534.997 CURVE",
"1025.4 534.997 OFFCURVE",
"1035.4 535.997 OFFCURVE",
"1039 535.997 CURVE SMOOTH"
);
}
);
width = 2400;
}
);
unicode = E03F;
},
{
glyphname = uniE041;
lastChange = "2013-10-29 20:27:11 -0800";
layers = (
{
layerId = "06D35582-4FA2-40C1-8C5B-DEFCD1A2473F";
name = Regular;
paths = (
{
closed = 1;
nodes = (
"0 1968 LINE",
"0 -432 LINE",
"2400 -432 LINE",
"2400 1968 LINE"
);
},
{
closed = 1;
nodes = (
"435.233 1555 LINE",
"1293.91 1555 OFFCURVE",
"1990 858.756 OFFCURVE",
"1990 0 CURVE",
"1692.28 0 LINE",
"1692.28 694.293 OFFCURVE",
"1129.48 1257.21 OFFCURVE",
"435.233 1257.21 CURVE"
);
},
{
closed = 1;
nodes = (
"435.233 1025.61 LINE",
"1001.59 1025.61 OFFCURVE",
"1460.72 566.381 OFFCURVE",
"1460.72 0 CURVE",
"1163 0 LINE",
"1163 401.916 OFFCURVE",
"837.167 727.818 OFFCURVE",
"435.233 727.818 CURVE"
);
},
{
closed = 1;
nodes = (
"750.668 410.182 OFFCURVE",
"845.427 315.395 OFFCURVE",
"845.427 198.418 CURVE SMOOTH",
"845.427 81.455 OFFCURVE",
"750.668 -13 OFFCURVE",
"633.702 -13 CURVE SMOOTH",
"516.828 -13 OFFCURVE",
"422 81.455 OFFCURVE",
"422 198.418 CURVE SMOOTH",
"422 315.395 OFFCURVE",
"516.828 410.182 OFFCURVE",
"633.702 410.182 CURVE SMOOTH"
);
}
);
width = 2400;
}
);
unicode = E041;
},
{
glyphname = uniE042;
lastChange = "2013-10-29 20:27:20 -0800";
layers = (
{
layerId = "06D35582-4FA2-40C1-8C5B-DEFCD1A2473F";
name = Regular;
paths = (
{
closed = 1;
nodes = (
"256 1969 LINE SMOOTH",
"114.615 1969 OFFCURVE",
"0 1854.39 OFFCURVE",
"0 1713 CURVE SMOOTH",
"0 -175 LINE SMOOTH",
"0 -316 OFFCURVE",
"114.615 -431 OFFCURVE",
"256 -431 CURVE SMOOTH",
"2144 -431 LINE SMOOTH",
"2285.38 -431 OFFCURVE",
"2400 -316 OFFCURVE",
"2400 -175 CURVE SMOOTH",
"2400 1713 LINE SMOOTH",
"2400 1854.39 OFFCURVE",
"2285.38 1969 OFFCURVE",
"2144 1969 CURVE SMOOTH"
);
},
{
closed = 1;
nodes = (
"435.233 1555 LINE",
"1293.91 1555 OFFCURVE",
"1990 858.756 OFFCURVE",
"1990 0 CURVE",
"1692.28 0 LINE",
"1692.28 694.293 OFFCURVE",
"1129.48 1257.21 OFFCURVE",
"435.233 1257.21 CURVE"
);
},
{
closed = 1;
nodes = (
"435.233 1025.61 LINE",
"1001.59 1025.61 OFFCURVE",
"1460.72 566.381 OFFCURVE",
"1460.72 0 CURVE",
"1163 0 LINE",
"1163 401.916 OFFCURVE",
"837.167 727.818 OFFCURVE",
"435.233 727.818 CURVE"
);
},
{
closed = 1;
nodes = (
"750.668 410.182 OFFCURVE",
"845.427 315.395 OFFCURVE",
"845.427 198.418 CURVE SMOOTH",
"845.427 81.455 OFFCURVE",
"750.668 -13 OFFCURVE",
"633.702 -13 CURVE SMOOTH",
"516.828 -13 OFFCURVE",
"422 81.455 OFFCURVE",
"422 198.418 CURVE SMOOTH",
"422 315.395 OFFCURVE",
"516.828 410.182 OFFCURVE",
"633.702 410.182 CURVE SMOOTH"
);
}
);
width = 2400;
}
);
unicode = E042;
},
{
glyphname = uniE043;
lastChange = "2013-10-29 20:27:27 -0800";
layers = (
{
layerId = "06D35582-4FA2-40C1-8C5B-DEFCD1A2473F";
name = Regular;
paths = (
{
closed = 1;
nodes = (
"352 1969 LINE SMOOTH",
"157.596 1969 OFFCURVE",
"0 1811.4 OFFCURVE",
"0 1617 CURVE SMOOTH",
"0 -79 LINE SMOOTH",
"0 -273 OFFCURVE",
"157.596 -431 OFFCURVE",
"352 -431 CURVE SMOOTH",
"2048 -431 LINE SMOOTH",
"2242.4 -431 OFFCURVE",
"2400 -273 OFFCURVE",
"2400 -79 CURVE SMOOTH",
"2400 1617 LINE SMOOTH",
"2400 1811.4 OFFCURVE",
"2242.4 1969 OFFCURVE",
"2048 1969 CURVE SMOOTH"
);
},
{
closed = 1;
nodes = (
"435.233 1555 LINE",
"1293.91 1555 OFFCURVE",
"1990 858.756 OFFCURVE",
"1990 0 CURVE",
"1692.28 0 LINE",
"1692.28 694.293 OFFCURVE",
"1129.48 1257.21 OFFCURVE",
"435.233 1257.21 CURVE"
);
},
{
closed = 1;
nodes = (
"435.233 1025.61 LINE",
"1001.59 1025.61 OFFCURVE",
"1460.72 566.381 OFFCURVE",
"1460.72 0 CURVE",
"1163 0 LINE",
"1163 401.916 OFFCURVE",
"837.167 727.818 OFFCURVE",
"435.233 727.818 CURVE"
);
},
{
closed = 1;
nodes = (
"750.668 410.182 OFFCURVE",
"845.427 315.395 OFFCURVE",
"845.427 198.418 CURVE SMOOTH",
"845.427 81.455 OFFCURVE",
"750.668 -13 OFFCURVE",
"633.702 -13 CURVE SMOOTH",
"516.828 -13 OFFCURVE",
"422 81.455 OFFCURVE",
"422 198.418 CURVE SMOOTH",
"422 315.395 OFFCURVE",
"516.828 410.182 OFFCURVE",
"633.702 410.182 CURVE SMOOTH"
);
}
);
width = 2400;
}
);
unicode = E043;
},
{
glyphname = uniE044;
lastChange = "2013-10-29 20:27:34 -0800";
layers = (
{
layerId = "06D35582-4FA2-40C1-8C5B-DEFCD1A2473F";
name = Regular;
paths = (
{
closed = 1;
nodes = (
"836.742 1969 LINE SMOOTH",
"595.804 1969 OFFCURVE",
"475.34 1969 OFFCURVE",
"345.66 1928 CURVE",
"204.07 1876.46 OFFCURVE",
"92.539 1764.93 OFFCURVE",
"41.004 1623.34 CURVE",
"0 1493.66 OFFCURVE",
"0 1373.2 OFFCURVE",
"0 1132.26 CURVE SMOOTH",
"0 405.743 LINE SMOOTH",
"0 164.805 OFFCURVE",
"0 44.344 OFFCURVE",
"41.004 -85 CURVE",
"92.539 -227 OFFCURVE",
"204.07 -338 OFFCURVE",
"345.66 -390 CURVE",
"475.34 -431 OFFCURVE",
"595.804 -431 OFFCURVE",
"836.742 -431 CURVE SMOOTH",
"1563.26 -431 LINE SMOOTH",
"1804.2 -431 OFFCURVE",
"1924.66 -431 OFFCURVE",
"2054.34 -390 CURVE",
"2195.93 -338 OFFCURVE",
"2307.46 -227 OFFCURVE",
"2359 -85 CURVE",
"2400 44.344 OFFCURVE",
"2400 164.805 OFFCURVE",
"2400 405.743 CURVE SMOOTH",
"2400 1132.26 LINE SMOOTH",
"2400 1373.2 OFFCURVE",
"2400 1493.66 OFFCURVE",
"2359 1623.34 CURVE",
"2307.46 1764.93 OFFCURVE",
"2195.93 1876.46 OFFCURVE",
"2054.34 1928 CURVE",
"1924.66 1969 OFFCURVE",
"1804.2 1969 OFFCURVE",
"1563.26 1969 CURVE SMOOTH"
);
},
{
closed = 1;
nodes = (
"435.233 1555 LINE",
"1293.91 1555 OFFCURVE",
"1990 858.756 OFFCURVE",
"1990 0 CURVE",
"1692.28 0 LINE",
"1692.28 694.293 OFFCURVE",
"1129.48 1257.21 OFFCURVE",
"435.233 1257.21 CURVE"
);
},
{
closed = 1;
nodes = (
"435.233 1025.61 LINE",
"1001.59 1025.61 OFFCURVE",
"1460.72 566.381 OFFCURVE",
"1460.72 0 CURVE",
"1163 0 LINE",
"1163 401.916 OFFCURVE",
"837.167 727.818 OFFCURVE",
"435.233 727.818 CURVE"
);
},
{
closed = 1;
nodes = (
"750.668 410.182 OFFCURVE",
"845.427 315.395 OFFCURVE",
"845.427 198.418 CURVE SMOOTH",
"845.427 81.455 OFFCURVE",
"750.668 -13 OFFCURVE",
"633.702 -13 CURVE SMOOTH",
"516.828 -13 OFFCURVE",
"422 81.455 OFFCURVE",
"422 198.418 CURVE SMOOTH",
"422 315.395 OFFCURVE",
"516.828 410.182 OFFCURVE",
"633.702 410.182 CURVE SMOOTH"
);
}
);
width = 2400;
}
);
unicode = E044;
},
{
glyphname = uniE045;
lastChange = "2013-10-29 20:26:52 -0800";
layers = (
{
layerId = "06D35582-4FA2-40C1-8C5B-DEFCD1A2473F";
name = Regular;
paths = (
{
closed = 1;
nodes = (
"537.252 1969 OFFCURVE",
"0 1431.75 OFFCURVE",
"0 769 CURVE SMOOTH",
"0 106.252 OFFCURVE",
"537.252 -431 OFFCURVE",
"1200 -431 CURVE SMOOTH",
"1862.75 -431 OFFCURVE",
"2400 106.252 OFFCURVE",
"2400 769 CURVE SMOOTH",
"2400 1431.75 OFFCURVE",
"1862.75 1969 OFFCURVE",
"1200 1969 CURVE SMOOTH"
);
},
{
closed = 1;
nodes = (
"435.233 1555 LINE",
"1293.91 1555 OFFCURVE",
"1990 858.756 OFFCURVE",
"1990 0 CURVE",
"1692.28 0 LINE",
"1692.28 694.293 OFFCURVE",
"1129.48 1257.21 OFFCURVE",
"435.233 1257.21 CURVE"
);
},
{
closed = 1;
nodes = (
"435.233 1025.61 LINE",
"1001.59 1025.61 OFFCURVE",
"1460.72 566.381 OFFCURVE",
"1460.72 0 CURVE",
"1163 0 LINE",
"1163 401.916 OFFCURVE",
"837.167 727.818 OFFCURVE",
"435.233 727.818 CURVE"
);
},
{
closed = 1;
nodes = (
"750.668 410.182 OFFCURVE",
"845.427 315.395 OFFCURVE",
"845.427 198.418 CURVE SMOOTH",
"845.427 81.4552 OFFCURVE",
"750.668 -13 OFFCURVE",
"633.702 -13 CURVE SMOOTH",
"516.828 -13 OFFCURVE",
"422 81.4552 OFFCURVE",
"422 198.418 CURVE SMOOTH",
"422 315.395 OFFCURVE",
"516.828 410.182 OFFCURVE",
"633.702 410.182 CURVE SMOOTH"
);
}
);
width = 2400;
}
);
unicode = E045;
},
{
glyphname = uniE046;
lastChange = "2013-10-29 20:27:43 -0800";
layers = (
{
layerId = "06D35582-4FA2-40C1-8C5B-DEFCD1A2473F";
name = Regular;
paths = (
{
closed = 1;
nodes = (
"435.233 1257.21 LINE",
"1129.48 1257.21 OFFCURVE",
"1692.28 694.293 OFFCURVE",
"1692.28 0 CURVE",
"1990 0 LINE",
"1990 858.756 OFFCURVE",
"1293.91 1555 OFFCURVE",
"435.233 1555 CURVE"
);
},
{
closed = 1;
nodes = (
"435.233 727.818 LINE",
"837.167 727.818 OFFCURVE",
"1163 401.916 OFFCURVE",
"1163 0 CURVE",
"1460.72 0 LINE",
"1460.72 566.381 OFFCURVE",
"1001.59 1025.61 OFFCURVE",
"435.233 1025.61 CURVE"
);
},
{
closed = 1;
nodes = (
"516.828 410.182 OFFCURVE",
"422 315.395 OFFCURVE",
"422 198.418 CURVE SMOOTH",
"422 81.455 OFFCURVE",
"516.828 -13 OFFCURVE",
"633.702 -13 CURVE SMOOTH",
"750.668 -13 OFFCURVE",
"845.427 81.455 OFFCURVE",
"845.427 198.418 CURVE SMOOTH",
"845.427 315.395 OFFCURVE",
"750.668 410.182 OFFCURVE",
"633.702 410.182 CURVE SMOOTH"
);
}
);
width = 2400;
}
);
unicode = E046;
},
{
glyphname = uniE048;
lastChange = "2014-01-10 18:38:46 -0800";
layers = (
{
layerId = "06D35582-4FA2-40C1-8C5B-DEFCD1A2473F";
name = Regular;
paths = (
{
closed = 1;
nodes = (
"2076 1142 LINE",
"1200 509 LINE",
"324 1142 LINE",
"324 235 LINE",
"2076 235 LINE"
);
}
);
width = 2400;
}
);
unicode = E048;
},
{
glyphname = uniE049;
layers = (
{
layerId = "06D35582-4FA2-40C1-8C5B-DEFCD1A2473F";
name = Regular;
paths = (
{
closed = 1;
nodes = (
"2100 1303 LINE",
"300 1303 LINE",
"1200 653 LINE"
);
}
);
width = 2400;
}
);
unicode = E049;
},
{
glyphname = uniE04A;
lastChange = "2013-11-14 02:09:41 -0800";
layers = (
{
layerId = "06D35582-4FA2-40C1-8C5B-DEFCD1A2473F";
name = Regular;
paths = (
{
closed = 1;
nodes = (
"2400 1969 LINE",
"0 1969 LINE",
"0 -431 LINE",
"2400 -431 LINE"
);
},
{
closed = 1;
nodes = (
"2100 1303 LINE",
"1200 653 LINE",
"300 1303 LINE"
);
},
{
closed = 1;
nodes = (
"2076 1142 LINE",
"2076 235 LINE",
"324 235 LINE",
"324 1142 LINE",
"1200 509 LINE"
);
}
);
width = 2400;
}
);
unicode = E04A;
},
{
glyphname = uniE04B;
lastChange = "2013-11-14 02:09:48 -0800";
layers = (
{
layerId = "06D35582-4FA2-40C1-8C5B-DEFCD1A2473F";
name = Regular;
paths = (
{
closed = 1;
nodes = (
"256 1969 LINE SMOOTH",
"114.615 1969 OFFCURVE",
"0 1854.39 OFFCURVE",
"0 1713 CURVE SMOOTH",
"0 -175 LINE SMOOTH",
"0 -316 OFFCURVE",
"114.615 -431 OFFCURVE",
"256 -431 CURVE SMOOTH",
"2144 -431 LINE SMOOTH",
"2285.38 -431 OFFCURVE",
"2400 -316 OFFCURVE",
"2400 -175 CURVE SMOOTH",
"2400 1713 LINE SMOOTH",
"2400 1854.39 OFFCURVE",
"2285.38 1969 OFFCURVE",
"2144 1969 CURVE SMOOTH"
);
},
{
closed = 1;
nodes = (
"2100 1303 LINE",
"1200 653 LINE",
"300 1303 LINE"
);
},
{
closed = 1;
nodes = (
"2076 1142 LINE",
"2076 235 LINE",
"324 235 LINE",
"324 1142 LINE",
"1200 509 LINE"
);
}
);
width = 2400;
}
);
unicode = E04B;
},
{
glyphname = uniE04C;
lastChange = "2013-11-14 02:09:57 -0800";
layers = (
{
layerId = "06D35582-4FA2-40C1-8C5B-DEFCD1A2473F";
name = Regular;
paths = (
{
closed = 1;
nodes = (
"352 1969 LINE SMOOTH",
"157.596 1969 OFFCURVE",
"0 1811.4 OFFCURVE",
"0 1617 CURVE SMOOTH",
"0 -79 LINE SMOOTH",
"0 -273 OFFCURVE",
"157.596 -431 OFFCURVE",
"352 -431 CURVE SMOOTH",
"2048 -431 LINE SMOOTH",
"2242.4 -431 OFFCURVE",
"2400 -273 OFFCURVE",
"2400 -79 CURVE SMOOTH",
"2400 1617 LINE SMOOTH",
"2400 1811.4 OFFCURVE",
"2242.4 1969 OFFCURVE",
"2048 1969 CURVE SMOOTH"
);
},
{
closed = 1;
nodes = (
"2100 1303 LINE",
"1200 653 LINE",
"300 1303 LINE"
);
},
{
closed = 1;
nodes = (
"2076 1142 LINE",
"2076 235 LINE",
"324 235 LINE",
"324 1142 LINE",
"1200 509 LINE"
);
}
);
width = 2400;
}
);
unicode = E04C;
},
{
glyphname = uniE04D;
lastChange = "2013-11-14 02:10:04 -0800";
layers = (
{
layerId = "06D35582-4FA2-40C1-8C5B-DEFCD1A2473F";
name = Regular;
paths = (
{
closed = 1;
nodes = (
"836.742 1969 LINE SMOOTH",
"595.804 1969 OFFCURVE",
"475.34 1969 OFFCURVE",
"345.66 1928 CURVE",
"204.07 1876.46 OFFCURVE",
"92.539 1764.93 OFFCURVE",
"41.004 1623.34 CURVE",
"0 1493.66 OFFCURVE",
"0 1373.2 OFFCURVE",
"0 1132.26 CURVE SMOOTH",
"0 405.743 LINE SMOOTH",
"0 164.805 OFFCURVE",
"0 44.344 OFFCURVE",
"41.004 -85 CURVE",
"92.539 -227 OFFCURVE",
"204.07 -338 OFFCURVE",
"345.66 -390 CURVE",
"475.34 -431 OFFCURVE",
"595.804 -431 OFFCURVE",
"836.742 -431 CURVE SMOOTH",
"1563.26 -431 LINE SMOOTH",
"1804.2 -431 OFFCURVE",
"1924.66 -431 OFFCURVE",
"2054.34 -390 CURVE",
"2195.93 -338 OFFCURVE",
"2307.46 -227 OFFCURVE",
"2359 -85 CURVE",
"2400 44.344 OFFCURVE",
"2400 164.805 OFFCURVE",
"2400 405.743 CURVE SMOOTH",
"2400 1132.26 LINE SMOOTH",
"2400 1373.2 OFFCURVE",
"2400 1493.66 OFFCURVE",
"2359 1623.34 CURVE",
"2307.46 1764.93 OFFCURVE",
"2195.93 1876.46 OFFCURVE",
"2054.34 1928 CURVE",
"1924.66 1969 OFFCURVE",
"1804.2 1969 OFFCURVE",
"1563.26 1969 CURVE SMOOTH"
);
},
{
closed = 1;
nodes = (
"2100 1303 LINE",
"1200 653 LINE",
"300 1303 LINE"
);
},
{
closed = 1;
nodes = (
"2076 1142 LINE",
"2076 235 LINE",
"324 235 LINE",
"324 1142 LINE",
"1200 509 LINE"
);
}
);
width = 2400;
}
);
unicode = E04D;
},
{
glyphname = uniE04E;
lastChange = "2013-11-14 02:10:11 -0800";
layers = (
{
layerId = "06D35582-4FA2-40C1-8C5B-DEFCD1A2473F";
name = Regular;
paths = (
{
closed = 1;
nodes = (
"537.252 1969 OFFCURVE",
"0 1431.75 OFFCURVE",
"0 769 CURVE SMOOTH",
"0 106.252 OFFCURVE",
"537.252 -431 OFFCURVE",
"1200 -431 CURVE SMOOTH",
"1862.75 -431 OFFCURVE",
"2400 106.252 OFFCURVE",
"2400 769 CURVE SMOOTH",
"2400 1431.75 OFFCURVE",
"1862.75 1969 OFFCURVE",
"1200 1969 CURVE SMOOTH"
);
},
{
closed = 1;
nodes = (
"2100 1303 LINE",
"1200 653 LINE",
"300 1303 LINE"
);
},
{
closed = 1;
nodes = (
"2076 1142 LINE",
"2076 235 LINE",
"324 235 LINE",
"324 1142 LINE",
"1200 509 LINE"
);
}
);
width = 2400;
}
);
unicode = E04E;
},
{
glyphname = uniE04F;
lastChange = "2014-01-08 19:14:38 -0800";
layers = (
{
layerId = "06D35582-4FA2-40C1-8C5B-DEFCD1A2473F";
name = Regular;
paths = (
{
closed = 1;
nodes = (
"2100 1303 LINE",
"300 1303 LINE",
"1200 653 LINE"
);
},
{
closed = 1;
nodes = (
"2076 1142 LINE",
"1200 509 LINE",
"324 1142 LINE",
"324 235 LINE",
"2076 235 LINE"
);
}
);
width = 2400;
}
);
unicode = E04F;
},
{
glyphname = uniE061;
lastChange = "2013-12-16 06:46:30 -0800";
layers = (
{
layerId = "06D35582-4FA2-40C1-8C5B-DEFCD1A2473F";
name = Regular;
paths = (
{
closed = 1;
nodes = (
"2400 1969 LINE",
"0 1969 LINE",
"0 -431 LINE",
"2400 -431 LINE"
);
},
{
closed = 1;
nodes = (
"1401.46 1561 OFFCURVE",
"1688 1274.46 OFFCURVE",
"1688 920.999 CURVE SMOOTH",
"1688 784.188 OFFCURVE",
"1645.06 657.411 OFFCURVE",
"1571.94 553.387 CURVE",
"1951.94 173.387 LINE SMOOTH",
"1995.68 129.647 OFFCURVE",
"1995.68 58.734 OFFCURVE",
"1951.94 14.995 CURVE SMOOTH",
"1908.2 -29 OFFCURVE",
"1837.29 -29 OFFCURVE",
"1793.55 14.995 CURVE SMOOTH",
"1413.19 395.357 LINE",
"1309.62 323.269 OFFCURVE",
"1183.75 281 OFFCURVE",
"1048 281 CURVE SMOOTH",
"694.538 281 OFFCURVE",
"408 567.538 OFFCURVE",
"408 921 CURVE SMOOTH",
"408 1274.46 OFFCURVE",
"694.538 1561 OFFCURVE",
"1048 1561 CURVE SMOOTH"
);
},
{
closed = 1;
nodes = (
"800.576 1369 OFFCURVE",
"600 1168.42 OFFCURVE",
"600 921 CURVE SMOOTH",
"600 673.576 OFFCURVE",
"800.576 473 OFFCURVE",
"1048 473 CURVE SMOOTH",
"1295.42 473 OFFCURVE",
"1496 673.576 OFFCURVE",
"1496 921 CURVE SMOOTH",
"1496 1168.42 OFFCURVE",
"1295.42 1369 OFFCURVE",
"1048 1369 CURVE SMOOTH"
);
}
);
width = 2400;
}
);
unicode = E061;
},
{
glyphname = uniE062;
lastChange = "2013-12-16 06:46:30 -0800";
layers = (
{
layerId = "06D35582-4FA2-40C1-8C5B-DEFCD1A2473F";
name = Regular;
paths = (
{
closed = 1;
nodes = (
"256 1969 LINE SMOOTH",
"114.615 1969 OFFCURVE",
"0 1854.39 OFFCURVE",
"0 1713 CURVE SMOOTH",
"0 -175 LINE SMOOTH",
"0 -316 OFFCURVE",
"114.615 -431 OFFCURVE",
"256 -431 CURVE SMOOTH",
"2144 -431 LINE SMOOTH",
"2285.38 -431 OFFCURVE",
"2400 -316 OFFCURVE",
"2400 -175 CURVE SMOOTH",
"2400 1713 LINE SMOOTH",
"2400 1854.39 OFFCURVE",
"2285.38 1969 OFFCURVE",
"2144 1969 CURVE SMOOTH"
);
},
{
closed = 1;
nodes = (
"1401.46 1561 OFFCURVE",
"1688 1274.46 OFFCURVE",
"1688 920.999 CURVE SMOOTH",
"1688 784.188 OFFCURVE",
"1645.06 657.411 OFFCURVE",
"1571.94 553.387 CURVE",
"1951.94 173.387 LINE SMOOTH",
"1995.68 129.647 OFFCURVE",
"1995.68 58.734 OFFCURVE",
"1951.94 14.995 CURVE SMOOTH",
"1908.2 -29 OFFCURVE",
"1837.29 -29 OFFCURVE",
"1793.55 14.995 CURVE SMOOTH",
"1413.19 395.357 LINE",
"1309.62 323.269 OFFCURVE",
"1183.75 281 OFFCURVE",
"1048 281 CURVE SMOOTH",
"694.538 281 OFFCURVE",
"408 567.538 OFFCURVE",
"408 921 CURVE SMOOTH",
"408 1274.46 OFFCURVE",
"694.538 1561 OFFCURVE",
"1048 1561 CURVE SMOOTH"
);
},
{
closed = 1;
nodes = (
"800.576 1369 OFFCURVE",
"600 1168.42 OFFCURVE",
"600 921 CURVE SMOOTH",
"600 673.576 OFFCURVE",
"800.576 473 OFFCURVE",
"1048 473 CURVE SMOOTH",
"1295.42 473 OFFCURVE",
"1496 673.576 OFFCURVE",
"1496 921 CURVE SMOOTH",
"1496 1168.42 OFFCURVE",
"1295.42 1369 OFFCURVE",
"1048 1369 CURVE SMOOTH"
);
}
);
width = 2400;
}
);
unicode = E062;
},
{
glyphname = uniE063;
lastChange = "2013-12-16 06:46:30 -0800";
layers = (
{
layerId = "06D35582-4FA2-40C1-8C5B-DEFCD1A2473F";
name = Regular;
paths = (
{
closed = 1;
nodes = (
"352 1969 LINE SMOOTH",
"157.596 1969 OFFCURVE",
"0 1811.4 OFFCURVE",
"0 1617 CURVE SMOOTH",
"0 -79 LINE SMOOTH",
"0 -273 OFFCURVE",
"157.596 -431 OFFCURVE",
"352 -431 CURVE SMOOTH",
"2048 -431 LINE SMOOTH",
"2242.4 -431 OFFCURVE",
"2400 -273 OFFCURVE",
"2400 -79 CURVE SMOOTH",
"2400 1617 LINE SMOOTH",
"2400 1811.4 OFFCURVE",
"2242.4 1969 OFFCURVE",
"2048 1969 CURVE SMOOTH"
);
},
{
closed = 1;
nodes = (
"1401.46 1561 OFFCURVE",
"1688 1274.46 OFFCURVE",
"1688 920.999 CURVE SMOOTH",
"1688 784.188 OFFCURVE",
"1645.06 657.411 OFFCURVE",
"1571.94 553.387 CURVE",
"1951.94 173.387 LINE SMOOTH",
"1995.68 129.647 OFFCURVE",
"1995.68 58.734 OFFCURVE",
"1951.94 14.995 CURVE SMOOTH",
"1908.2 -29 OFFCURVE",
"1837.29 -29 OFFCURVE",
"1793.55 14.995 CURVE SMOOTH",
"1413.19 395.357 LINE",
"1309.62 323.269 OFFCURVE",
"1183.75 281 OFFCURVE",
"1048 281 CURVE SMOOTH",
"694.538 281 OFFCURVE",
"408 567.538 OFFCURVE",
"408 921 CURVE SMOOTH",
"408 1274.46 OFFCURVE",
"694.538 1561 OFFCURVE",
"1048 1561 CURVE SMOOTH"
);
},
{
closed = 1;
nodes = (
"800.576 1369 OFFCURVE",
"600 1168.42 OFFCURVE",
"600 921 CURVE SMOOTH",
"600 673.576 OFFCURVE",
"800.576 473 OFFCURVE",
"1048 473 CURVE SMOOTH",
"1295.42 473 OFFCURVE",
"1496 673.576 OFFCURVE",
"1496 921 CURVE SMOOTH",
"1496 1168.42 OFFCURVE",
"1295.42 1369 OFFCURVE",
"1048 1369 CURVE SMOOTH"
);
}
);
width = 2400;
}
);
unicode = E063;
},
{
glyphname = uniE064;
lastChange = "2013-12-16 06:46:30 -0800";
layers = (
{
layerId = "06D35582-4FA2-40C1-8C5B-DEFCD1A2473F";
name = Regular;
paths = (
{
closed = 1;
nodes = (
"836.742 1969 LINE SMOOTH",
"595.804 1969 OFFCURVE",
"475.34 1969 OFFCURVE",
"345.66 1928 CURVE",
"204.07 1876.46 OFFCURVE",
"92.539 1764.93 OFFCURVE",
"41.004 1623.34 CURVE",
"0 1493.66 OFFCURVE",
"0 1373.2 OFFCURVE",
"0 1132.26 CURVE SMOOTH",
"0 405.743 LINE SMOOTH",
"0 164.805 OFFCURVE",
"0 44.344 OFFCURVE",
"41.004 -85 CURVE",
"92.539 -227 OFFCURVE",
"204.07 -338 OFFCURVE",
"345.66 -390 CURVE",
"475.34 -431 OFFCURVE",
"595.804 -431 OFFCURVE",
"836.742 -431 CURVE SMOOTH",
"1563.26 -431 LINE SMOOTH",
"1804.2 -431 OFFCURVE",
"1924.66 -431 OFFCURVE",
"2054.34 -390 CURVE",
"2195.93 -338 OFFCURVE",
"2307.46 -227 OFFCURVE",
"2359 -85 CURVE",
"2400 44.344 OFFCURVE",
"2400 164.805 OFFCURVE",
"2400 405.743 CURVE SMOOTH",
"2400 1132.26 LINE SMOOTH",
"2400 1373.2 OFFCURVE",
"2400 1493.66 OFFCURVE",
"2359 1623.34 CURVE",
"2307.46 1764.93 OFFCURVE",
"2195.93 1876.46 OFFCURVE",
"2054.34 1928 CURVE",
"1924.66 1969 OFFCURVE",
"1804.2 1969 OFFCURVE",
"1563.26 1969 CURVE SMOOTH"
);
},
{
closed = 1;
nodes = (
"1401.46 1561 OFFCURVE",
"1688 1274.46 OFFCURVE",
"1688 920.999 CURVE SMOOTH",
"1688 784.188 OFFCURVE",
"1645.06 657.411 OFFCURVE",
"1571.94 553.387 CURVE",
"1951.94 173.387 LINE SMOOTH",
"1995.68 129.647 OFFCURVE",
"1995.68 58.734 OFFCURVE",
"1951.94 14.995 CURVE SMOOTH",
"1908.2 -29 OFFCURVE",
"1837.29 -29 OFFCURVE",
"1793.55 14.995 CURVE SMOOTH",
"1413.19 395.357 LINE",
"1309.62 323.269 OFFCURVE",
"1183.75 281 OFFCURVE",
"1048 281 CURVE SMOOTH",
"694.538 281 OFFCURVE",
"408 567.538 OFFCURVE",
"408 921 CURVE SMOOTH",
"408 1274.46 OFFCURVE",
"694.538 1561 OFFCURVE",
"1048 1561 CURVE SMOOTH"
);
},
{
closed = 1;
nodes = (
"800.576 1369 OFFCURVE",
"600 1168.42 OFFCURVE",
"600 921 CURVE SMOOTH",
"600 673.576 OFFCURVE",
"800.576 473 OFFCURVE",
"1048 473 CURVE SMOOTH",
"1295.42 473 OFFCURVE",
"1496 673.576 OFFCURVE",
"1496 921 CURVE SMOOTH",
"1496 1168.42 OFFCURVE",
"1295.42 1369 OFFCURVE",
"1048 1369 CURVE SMOOTH"
);
}
);
width = 2400;
}
);
unicode = E064;
},
{
glyphname = uniE065;
lastChange = "2013-12-16 06:46:30 -0800";
layers = (
{
layerId = "06D35582-4FA2-40C1-8C5B-DEFCD1A2473F";
name = Regular;
paths = (
{
closed = 1;
nodes = (
"537.252 1969 OFFCURVE",
"0 1431.75 OFFCURVE",
"0 769 CURVE SMOOTH",
"0 106.252 OFFCURVE",
"537.252 -431 OFFCURVE",
"1200 -431 CURVE SMOOTH",
"1862.75 -431 OFFCURVE",
"2400 106.252 OFFCURVE",
"2400 769 CURVE SMOOTH",
"2400 1431.75 OFFCURVE",
"1862.75 1969 OFFCURVE",
"1200 1969 CURVE SMOOTH"
);
},
{
closed = 1;
nodes = (
"1401.46 1561 OFFCURVE",
"1688 1274.46 OFFCURVE",
"1688 920.999 CURVE SMOOTH",
"1688 784.188 OFFCURVE",
"1645.06 657.411 OFFCURVE",
"1571.94 553.387 CURVE",
"1951.94 173.387 LINE SMOOTH",
"1995.68 129.647 OFFCURVE",
"1995.68 58.734 OFFCURVE",
"1951.94 14.995 CURVE SMOOTH",
"1908.2 -29 OFFCURVE",
"1837.29 -29 OFFCURVE",
"1793.55 14.995 CURVE SMOOTH",
"1413.19 395.357 LINE",
"1309.62 323.269 OFFCURVE",
"1183.75 281 OFFCURVE",
"1048 281 CURVE SMOOTH",
"694.538 281 OFFCURVE",
"408 567.538 OFFCURVE",
"408 921 CURVE SMOOTH",
"408 1274.46 OFFCURVE",
"694.538 1561 OFFCURVE",
"1048 1561 CURVE SMOOTH"
);
},
{
closed = 1;
nodes = (
"800.576 1369 OFFCURVE",
"600 1168.42 OFFCURVE",
"600 921 CURVE SMOOTH",
"600 673.576 OFFCURVE",
"800.576 473 OFFCURVE",
"1048 473 CURVE SMOOTH",
"1295.42 473 OFFCURVE",
"1496 673.576 OFFCURVE",
"1496 921 CURVE SMOOTH",
"1496 1168.42 OFFCURVE",
"1295.42 1369 OFFCURVE",
"1048 1369 CURVE SMOOTH"
);
}
);
width = 2400;
}
);
unicode = E065;
},
{
glyphname = uniE066;
lastChange = "2013-12-16 06:46:30 -0800";
layers = (
{
layerId = "06D35582-4FA2-40C1-8C5B-DEFCD1A2473F";
name = Regular;
paths = (
{
closed = 1;
nodes = (
"694.538 1561 OFFCURVE",
"408 1274.46 OFFCURVE",
"408 921 CURVE SMOOTH",
"408 567.538 OFFCURVE",
"694.538 281 OFFCURVE",
"1048 281 CURVE SMOOTH",
"1183.75 281 OFFCURVE",
"1309.62 323.269 OFFCURVE",
"1413.19 395.357 CURVE",
"1793.55 14.995 LINE SMOOTH",
"1837.29 -29 OFFCURVE",
"1908.2 -29 OFFCURVE",
"1951.94 14.995 CURVE SMOOTH",
"1995.68 58.734 OFFCURVE",
"1995.68 129.647 OFFCURVE",
"1951.94 173.387 CURVE SMOOTH",
"1571.94 553.387 LINE",
"1645.06 657.411 OFFCURVE",
"1688 784.188 OFFCURVE",
"1688 920.999 CURVE SMOOTH",
"1688 1274.46 OFFCURVE",
"1401.46 1561 OFFCURVE",
"1048 1561 CURVE SMOOTH"
);
},
{
closed = 1;
nodes = (
"1295.42 1369 OFFCURVE",
"1496 1168.42 OFFCURVE",
"1496 921 CURVE SMOOTH",
"1496 673.576 OFFCURVE",
"1295.42 473 OFFCURVE",
"1048 473 CURVE SMOOTH",
"800.576 473 OFFCURVE",
"600 673.576 OFFCURVE",
"600 921 CURVE SMOOTH",
"600 1168.42 OFFCURVE",
"800.576 1369 OFFCURVE",
"1048 1369 CURVE SMOOTH"
);
}
);
width = 2400;
}
);
unicode = E066;
},
{
glyphname = uniE067;
lastChange = "2013-12-16 06:46:30 -0800";
layers = (
{
layerId = "06D35582-4FA2-40C1-8C5B-DEFCD1A2473F";
name = Regular;
paths = (
{
closed = 1;
nodes = (
"800.576 1369 OFFCURVE",
"600 1168.42 OFFCURVE",
"600 921 CURVE SMOOTH",
"600 673.576 OFFCURVE",
"800.576 473 OFFCURVE",
"1048 473 CURVE SMOOTH",
"1295.42 473 OFFCURVE",
"1496 673.576 OFFCURVE",
"1496 921 CURVE SMOOTH",
"1496 1168.42 OFFCURVE",
"1295.42 1369 OFFCURVE",
"1048 1369 CURVE SMOOTH"
);
}
);
width = 2400;
}
);
unicode = E067;
},
{
glyphname = uniE069;
lastChange = "2013-12-16 09:29:02 -0800";
layers = (
{
layerId = "06D35582-4FA2-40C1-8C5B-DEFCD1A2473F";
name = Regular;
paths = (
{
closed = 1;
nodes = (
"944.258 1329.94 OFFCURVE",
"729.863 1190.9 OFFCURVE",
"700 983.353 CURVE SMOOTH",
"679.583 841.46 OFFCURVE",
"767.574 805.364 OFFCURVE",
"775 885.738 CURVE SMOOTH",
"799.529 1151.21 OFFCURVE",
"990.229 1257.07 OFFCURVE",
"1146 1244 CURVE SMOOTH",
"1183.07 1240.89 OFFCURVE",
"1176.42 1269.04 OFFCURVE",
"1127 1282 CURVE SMOOTH"
);
}
);
width = 2400;
}
);
unicode = E069;
},
{
glyphname = uniE071;
lastChange = "2014-01-28 09:58:37 -0800";
layers = (
{
layerId = "06D35582-4FA2-40C1-8C5B-DEFCD1A2473F";
name = Regular;
paths = (
{
closed = 1;
nodes = (
"2400 1969 LINE",
"0 1969 LINE",
"0 -431 LINE",
"2400 -431 LINE"
);
},
{
closed = 1;
nodes = (
"1199.99 1536 LINE",
"2065 254 LINE",
"1860.97 254.65 LINE",
"1664.7 546.227 LINE",
"735.293 546.227 LINE",
"539.035 254.65 LINE",
"335 254 LINE"
);
},
{
closed = 1;
nodes = (
"1199.99 1234.86 LINE",
"849.295 714.316 LINE",
"1550.7 714.316 LINE"
);
}
);
width = 2400;
}
);
unicode = E071;
},
{
glyphname = uniE072;
lastChange = "2014-01-28 09:58:37 -0800";
layers = (
{
layerId = "06D35582-4FA2-40C1-8C5B-DEFCD1A2473F";
name = Regular;
paths = (
{
closed = 1;
nodes = (
"256 1969 LINE SMOOTH",
"114.615 1969 OFFCURVE",
"0 1854.39 OFFCURVE",
"0 1713 CURVE SMOOTH",
"0 -175 LINE SMOOTH",
"0 -316 OFFCURVE",
"114.615 -431 OFFCURVE",
"256 -431 CURVE SMOOTH",
"2144 -431 LINE SMOOTH",
"2285.38 -431 OFFCURVE",
"2400 -316 OFFCURVE",
"2400 -175 CURVE SMOOTH",
"2400 1713 LINE SMOOTH",
"2400 1854.39 OFFCURVE",
"2285.38 1969 OFFCURVE",
"2144 1969 CURVE SMOOTH"
);
},
{
closed = 1;
nodes = (
"2065 254 LINE",
"1860.97 254.65 LINE",
"1664.7 546.227 LINE",
"735.293 546.227 LINE",
"539.035 254.65 LINE",
"335 254 LINE",
"1199.99 1536 LINE"
);
},
{
closed = 1;
nodes = (
"849.295 714.316 LINE",
"1550.7 714.316 LINE",
"1199.99 1234.86 LINE"
);
}
);
width = 2400;
}
);
unicode = E072;
},
{
glyphname = uniE073;
lastChange = "2014-01-28 09:58:37 -0800";
layers = (
{
layerId = "06D35582-4FA2-40C1-8C5B-DEFCD1A2473F";
name = Regular;
paths = (
{
closed = 1;
nodes = (
"352 1969 LINE SMOOTH",
"157.596 1969 OFFCURVE",
"0 1811.4 OFFCURVE",
"0 1617 CURVE SMOOTH",
"0 -79 LINE SMOOTH",
"0 -273 OFFCURVE",
"157.596 -431 OFFCURVE",
"352 -431 CURVE SMOOTH",
"2048 -431 LINE SMOOTH",
"2242.4 -431 OFFCURVE",
"2400 -273 OFFCURVE",
"2400 -79 CURVE SMOOTH",
"2400 1617 LINE SMOOTH",
"2400 1811.4 OFFCURVE",
"2242.4 1969 OFFCURVE",
"2048 1969 CURVE SMOOTH"
);
},
{
closed = 1;
nodes = (
"2065 254 LINE",
"1860.97 254.65 LINE",
"1664.7 546.227 LINE",
"735.293 546.227 LINE",
"539.035 254.65 LINE",
"335 254 LINE",
"1199.99 1536 LINE"
);
},
{
closed = 1;
nodes = (
"849.295 714.316 LINE",
"1550.7 714.316 LINE",
"1199.99 1234.86 LINE"
);
}
);
width = 2400;
}
);
unicode = E073;
},
{
glyphname = uniE074;
lastChange = "2014-01-28 09:58:37 -0800";
layers = (
{
layerId = "06D35582-4FA2-40C1-8C5B-DEFCD1A2473F";
name = Regular;
paths = (
{
closed = 1;
nodes = (
"836.742 1969 LINE SMOOTH",
"595.804 1969 OFFCURVE",
"475.34 1969 OFFCURVE",
"345.66 1928 CURVE",
"204.07 1876.46 OFFCURVE",
"92.539 1764.93 OFFCURVE",
"41.004 1623.34 CURVE",
"0 1493.66 OFFCURVE",
"0 1373.2 OFFCURVE",
"0 1132.26 CURVE SMOOTH",
"0 405.743 LINE SMOOTH",
"0 164.805 OFFCURVE",
"0 44.344 OFFCURVE",
"41.004 -85 CURVE",
"92.539 -227 OFFCURVE",
"204.07 -338 OFFCURVE",
"345.66 -390 CURVE",
"475.34 -431 OFFCURVE",
"595.804 -431 OFFCURVE",
"836.742 -431 CURVE SMOOTH",
"1563.26 -431 LINE SMOOTH",
"1804.2 -431 OFFCURVE",
"1924.66 -431 OFFCURVE",
"2054.34 -390 CURVE",
"2195.93 -338 OFFCURVE",
"2307.46 -227 OFFCURVE",
"2359 -85 CURVE",
"2400 44.344 OFFCURVE",
"2400 164.805 OFFCURVE",
"2400 405.743 CURVE SMOOTH",
"2400 1132.26 LINE SMOOTH",
"2400 1373.2 OFFCURVE",
"2400 1493.66 OFFCURVE",
"2359 1623.34 CURVE",
"2307.46 1764.93 OFFCURVE",
"2195.93 1876.46 OFFCURVE",
"2054.34 1928 CURVE",
"1924.66 1969 OFFCURVE",
"1804.2 1969 OFFCURVE",
"1563.26 1969 CURVE SMOOTH"
);
},
{
closed = 1;
nodes = (
"2065 254 LINE",
"1860.97 254.65 LINE",
"1664.7 546.227 LINE",
"735.293 546.227 LINE",
"539.035 254.65 LINE",
"335 254 LINE",
"1199.99 1536 LINE"
);
},
{
closed = 1;
nodes = (
"849.295 714.316 LINE",
"1550.7 714.316 LINE",
"1199.99 1234.86 LINE"
);
}
);
width = 2400;
}
);
unicode = E074;
},
{
glyphname = uniE075;
lastChange = "2014-01-28 09:58:37 -0800";
layers = (
{
layerId = "06D35582-4FA2-40C1-8C5B-DEFCD1A2473F";
name = Regular;
paths = (
{
closed = 1;
nodes = (
"537.252 1969 OFFCURVE",
"0 1431.75 OFFCURVE",
"0 769 CURVE SMOOTH",
"0 106.252 OFFCURVE",
"537.252 -431 OFFCURVE",
"1200 -431 CURVE SMOOTH",
"1862.75 -431 OFFCURVE",
"2400 106.252 OFFCURVE",
"2400 769 CURVE SMOOTH",
"2400 1431.75 OFFCURVE",
"1862.75 1969 OFFCURVE",
"1200 1969 CURVE SMOOTH"
);
},
{
closed = 1;
nodes = (
"2065 254 LINE",
"1860.97 254.65 LINE",
"1664.7 546.227 LINE",
"735.293 546.227 LINE",
"539.035 254.65 LINE",
"335 254 LINE",
"1199.99 1536 LINE"
);
},
{
closed = 1;
nodes = (
"849.295 714.316 LINE",
"1550.7 714.316 LINE",
"1199.99 1234.86 LINE"
);
}
);
width = 2400;
}
);
unicode = E075;
},
{
glyphname = uniE076;
lastChange = "2014-01-28 09:58:37 -0800";
layers = (
{
layerId = "06D35582-4FA2-40C1-8C5B-DEFCD1A2473F";
name = Regular;
paths = (
{
closed = 1;
nodes = (
"335 254 LINE",
"539.035 254.65 LINE",
"735.293 546.227 LINE",
"1664.7 546.227 LINE",
"1860.97 254.65 LINE",
"2065 254 LINE",
"1199.99 1536 LINE"
);
},
{
closed = 1;
nodes = (
"1550.7 714.316 LINE",
"849.295 714.316 LINE",
"1199.99 1234.86 LINE"
);
}
);
width = 2400;
}
);
unicode = E076;
},
{
glyphname = uniE099;
lastChange = "2014-02-02 01:26:02 -0800";
layers = (
{
layerId = "06D35582-4FA2-40C1-8C5B-DEFCD1A2473F";
name = Regular;
paths = (
{
closed = 1;
nodes = (
"990 1277 OFFCURVE",
"1113 1228 OFFCURVE",
"1208 1148 CURVE",
"1338 1302 LINE",
"1208 1413 OFFCURVE",
"1040 1479 OFFCURVE",
"854 1479 CURVE SMOOTH",
"440 1479 OFFCURVE",
"102 1142 OFFCURVE",
"102 726 CURVE SMOOTH",
"102 311 OFFCURVE",
"440 -25 OFFCURVE",
"854 -25 CURVE SMOOTH",
"1040 -25 OFFCURVE",
"1208 40 OFFCURVE",
"1338 151 CURVE",
"1208 304 LINE",
"1113 225 OFFCURVE",
"990 178 OFFCURVE",
"854 178 CURVE SMOOTH",
"552 178 OFFCURVE",
"304 423 OFFCURVE",
"304 726 CURVE SMOOTH",
"304 1030 OFFCURVE",
"552 1277 OFFCURVE",
"854 1277 CURVE SMOOTH"
);
},
{
closed = 1;
nodes = (
"4617 1436 LINE SMOOTH",
"4561 1436 OFFCURVE",
"4516 1391 OFFCURVE",
"4516 1335 CURVE SMOOTH",
"4516 118 LINE SMOOTH",
"4516 63 OFFCURVE",
"4561 16 OFFCURVE",
"4617 16 CURVE SMOOTH",
"5023 16 LINE SMOOTH",
"5414 16 OFFCURVE",
"5733 335 OFFCURVE",
"5733 726 CURVE SMOOTH",
"5733 1117 OFFCURVE",
"5414 1436 OFFCURVE",
"5023 1436 CURVE SMOOTH"
);
},
{
closed = 1;
nodes = (
"4719 219 LINE",
"4719 1233 LINE",
"5023 1233 LINE SMOOTH",
"5302 1233 OFFCURVE",
"5530 1005 OFFCURVE",
"5530 726 CURVE SMOOTH",
"5530 447 OFFCURVE",
"5302 219 OFFCURVE",
"5023 219 CURVE SMOOTH"
);
},
{
closed = 1;
nodes = (
"6281 118 LINE SMOOTH",
"6281 63 OFFCURVE",
"6327 16 OFFCURVE",
"6382 16 CURVE SMOOTH",
"7227 16 LINE",
"7227 219 LINE",
"6483 219 LINE",
"6483 625 LINE",
"6956 625 LINE",
"6956 828 LINE",
"6483 828 LINE",
"6483 1233 LINE",
"7227 1233 LINE",
"7227 1436 LINE",
"6382 1436 LINE SMOOTH",
"6327 1436 OFFCURVE",
"6281 1391 OFFCURVE",
"6281 1335 CURVE SMOOTH"
);
},
{
closed = 1;
nodes = (
"9348 118 LINE SMOOTH",
"9348 63 OFFCURVE",
"9394 16 OFFCURVE",
"9450 16 CURVE SMOOTH",
"10295 16 LINE",
"10295 219 LINE",
"9551 219 LINE",
"9551 625 LINE",
"10025 625 LINE",
"10025 828 LINE",
"9551 828 LINE",
"9551 1233 LINE",
"10295 1233 LINE",
"10295 1436 LINE",
"9450 1436 LINE SMOOTH",
"9394 1436 OFFCURVE",
"9348 1391 OFFCURVE",
"9348 1335 CURVE SMOOTH"
);
},
{
closed = 1;
nodes = (
"7944 1436 LINE SMOOTH",
"7890 1436 OFFCURVE",
"7843 1391 OFFCURVE",
"7843 1335 CURVE SMOOTH",
"7843 16 LINE",
"8046 16 LINE",
"8046 625 LINE",
"8385 625 LINE SMOOTH",
"8608 625 OFFCURVE",
"8789 806 OFFCURVE",
"8789 1031 CURVE SMOOTH",
"8789 1255 OFFCURVE",
"8608 1436 OFFCURVE",
"8385 1436 CURVE SMOOTH"
);
},
{
closed = 1;
nodes = (
"8046 828 LINE",
"8046 1233 LINE",
"8385 1233 LINE SMOOTH",
"8496 1233 OFFCURVE",
"8588 1143 OFFCURVE",
"8588 1031 CURVE SMOOTH",
"8588 918 OFFCURVE",
"8496 828 OFFCURVE",
"8385 828 CURVE SMOOTH"
);
},
{
closed = 1;
nodes = (
"11880 397 LINE",
"11044 1399 LINE SMOOTH",
"11018 1433 OFFCURVE",
"10973 1445 OFFCURVE",
"10933 1430 CURVE SMOOTH",
"10893 1415 OFFCURVE",
"10865 1378 OFFCURVE",
"10865 1335 CURVE SMOOTH",
"10865 16 LINE",
"11068 16 LINE",
"11068 1055 LINE",
"11903 54 LINE SMOOTH",
"11923 30 OFFCURVE",
"11951 16 OFFCURVE",
"11981 16 CURVE SMOOTH",
"11992 16 OFFCURVE",
"12004 18 OFFCURVE",
"12016 23 CURVE SMOOTH",
"12055 38 OFFCURVE",
"12082 77 OFFCURVE",
"12082 118 CURVE SMOOTH",
"12082 1436 LINE",
"11880 1436 LINE"
);
},
{
closed = 1;
nodes = (
"3940 1075 OFFCURVE",
"3940 1078 OFFCURVE",
"3939 1080 CURVE SMOOTH",
"3939 1082 OFFCURVE",
"3938 1082 OFFCURVE",
"3938 1084 CURVE SMOOTH",
"3937 1086 OFFCURVE",
"3936 1089 OFFCURVE",
"3935 1091 CURVE SMOOTH",
"3935 1093 OFFCURVE",
"3934 1094 OFFCURVE",
"3933 1096 CURVE SMOOTH",
"3932 1097 OFFCURVE",
"3931 1099 OFFCURVE",
"3930 1101 CURVE SMOOTH",
"3929 1103 OFFCURVE",
"3928 1104 OFFCURVE",
"3927 1106 CURVE SMOOTH",
"3926 1107 OFFCURVE",
"3924 1109 OFFCURVE",
"3923 1111 CURVE SMOOTH",
"3922 1113 OFFCURVE",
"3921 1114 OFFCURVE",
"3920 1115 CURVE SMOOTH",
"3918 1117 OFFCURVE",
"3917 1119 OFFCURVE",
"3915 1121 CURVE SMOOTH",
"3914 1122 OFFCURVE",
"3912 1123 OFFCURVE",
"3911 1124 CURVE",
"3909 1126 OFFCURVE",
"3908 1127 OFFCURVE",
"3906 1129 CURVE SMOOTH",
"3904 1130 OFFCURVE",
"3903 1131 OFFCURVE",
"3901 1132 CURVE",
"3901 1133 OFFCURVE",
"3900 1133 OFFCURVE",
"3900 1133 CURVE SMOOTH",
"2912 1792 LINE SMOOTH",
"2881 1813 OFFCURVE",
"2841 1813 OFFCURVE",
"2809 1792 CURVE SMOOTH",
"1821 1133 LINE SMOOTH",
"1821 1133 OFFCURVE",
"1820 1133 OFFCURVE",
"1820 1132 CURVE",
"1818 1131 OFFCURVE",
"1817 1130 OFFCURVE",
"1815 1129 CURVE",
"1814 1127 OFFCURVE",
"1812 1126 OFFCURVE",
"1810 1124 CURVE SMOOTH",
"1809 1123 OFFCURVE",
"1808 1122 OFFCURVE",
"1806 1121 CURVE SMOOTH",
"1805 1119 OFFCURVE",
"1803 1117 OFFCURVE",
"1801 1115 CURVE SMOOTH",
"1800 1114 OFFCURVE",
"1799 1113 OFFCURVE",
"1798 1111 CURVE SMOOTH",
"1797 1109 OFFCURVE",
"1795 1107 OFFCURVE",
"1794 1106 CURVE SMOOTH",
"1793 1104 OFFCURVE",
"1792 1103 OFFCURVE",
"1791 1101 CURVE",
"1790 1099 OFFCURVE",
"1789 1097 OFFCURVE",
"1788 1096 CURVE SMOOTH",
"1787 1094 OFFCURVE",
"1787 1093 OFFCURVE",
"1786 1091 CURVE SMOOTH",
"1785 1089 OFFCURVE",
"1785 1086 OFFCURVE",
"1785 1084 CURVE SMOOTH",
"1784 1082 OFFCURVE",
"1784 1082 OFFCURVE",
"1783 1080 CURVE SMOOTH",
"1782 1078 OFFCURVE",
"1782 1075 OFFCURVE",
"1781 1072 CURVE SMOOTH",
"1781 1071 OFFCURVE",
"1781 1070 OFFCURVE",
"1781 1068 CURVE SMOOTH",
"1780 1065 OFFCURVE",
"1780 1061 OFFCURVE",
"1780 1057 CURVE SMOOTH",
"1780 396 LINE SMOOTH",
"1780 393 OFFCURVE",
"1780 389 OFFCURVE",
"1781 386 CURVE SMOOTH",
"1781 384 OFFCURVE",
"1781 383 OFFCURVE",
"1781 382 CURVE SMOOTH",
"1782 380 OFFCURVE",
"1782 377 OFFCURVE",
"1783 374 CURVE SMOOTH",
"1784 373 OFFCURVE",
"1784 371 OFFCURVE",
"1785 370 CURVE SMOOTH",
"1785 367 OFFCURVE",
"1785 365 OFFCURVE",
"1786 363 CURVE SMOOTH",
"1787 361 OFFCURVE",
"1787 360 OFFCURVE",
"1788 358 CURVE SMOOTH",
"1789 356 OFFCURVE",
"1790 354 OFFCURVE",
"1791 352 CURVE SMOOTH",
"1792 350 OFFCURVE",
"1793 349 OFFCURVE",
"1794 347 CURVE SMOOTH",
"1795 345 OFFCURVE",
"1797 343 OFFCURVE",
"1798 341 CURVE SMOOTH",
"1799 340 OFFCURVE",
"1800 339 OFFCURVE",
"1801 337 CURVE SMOOTH",
"1803 336 OFFCURVE",
"1805 334 OFFCURVE",
"1806 332 CURVE SMOOTH",
"1808 331 OFFCURVE",
"1809 330 OFFCURVE",
"1810 328 CURVE SMOOTH",
"1812 327 OFFCURVE",
"1814 325 OFFCURVE",
"1815 324 CURVE SMOOTH",
"1817 323 OFFCURVE",
"1818 322 OFFCURVE",
"1820 321 CURVE SMOOTH",
"1820 320 OFFCURVE",
"1821 320 OFFCURVE",
"1821 319 CURVE SMOOTH",
"2809 -338 LINE SMOOTH",
"2825 -349 OFFCURVE",
"2842 -354 OFFCURVE",
"2861 -354 CURVE SMOOTH",
"2878 -354 OFFCURVE",
"2897 -349 OFFCURVE",
"2912 -338 CURVE SMOOTH",
"3900 319 LINE SMOOTH",
"3900 320 OFFCURVE",
"3901 320 OFFCURVE",
"3901 321 CURVE SMOOTH",
"3903 322 OFFCURVE",
"3904 323 OFFCURVE",
"3906 324 CURVE SMOOTH",
"3908 325 OFFCURVE",
"3909 327 OFFCURVE",
"3911 328 CURVE SMOOTH",
"3912 330 OFFCURVE",
"3914 331 OFFCURVE",
"3915 332 CURVE SMOOTH",
"3917 334 OFFCURVE",
"3918 336 OFFCURVE",
"3920 337 CURVE SMOOTH",
"3921 339 OFFCURVE",
"3922 340 OFFCURVE",
"3923 341 CURVE SMOOTH",
"3924 343 OFFCURVE",
"3926 345 OFFCURVE",
"3927 347 CURVE SMOOTH",
"3928 349 OFFCURVE",
"3929 350 OFFCURVE",
"3930 352 CURVE SMOOTH",
"3931 354 OFFCURVE",
"3932 356 OFFCURVE",
"3933 358 CURVE SMOOTH",
"3934 360 OFFCURVE",
"3935 361 OFFCURVE",
"3935 363 CURVE SMOOTH",
"3936 365 OFFCURVE",
"3937 367 OFFCURVE",
"3938 370 CURVE SMOOTH",
"3938 371 OFFCURVE",
"3939 373 OFFCURVE",
"3939 374 CURVE SMOOTH",
"3940 377 OFFCURVE",
"3940 380 OFFCURVE",
"3941 382 CURVE SMOOTH",
"3941 383 OFFCURVE",
"3941 384 OFFCURVE",
"3942 386 CURVE SMOOTH",
"3942 389 OFFCURVE",
"3942 393 OFFCURVE",
"3942 396 CURVE SMOOTH",
"3942 1057 LINE SMOOTH",
"3942 1061 OFFCURVE",
"3942 1065 OFFCURVE",
"3942 1068 CURVE SMOOTH",
"3941 1070 OFFCURVE",
"3941 1071 OFFCURVE",
"3941 1072 CURVE SMOOTH"
);
},
{
closed = 1;
nodes = (
"2532 726 LINE",
"2861 947 LINE",
"3189 726 LINE",
"2861 506 LINE"
);
},
{
closed = 1;
nodes = (
"2365 839 LINE",
"2040 1057 LINE",
"2768 1542 LINE",
"2768 1107 LINE"
);
},
{
closed = 1;
nodes = (
"1965 572 LINE",
"1965 883 LINE",
"2198 726 LINE"
);
},
{
closed = 1;
nodes = (
"2768 346 LINE",
"2768 -89 LINE",
"2040 396 LINE",
"2365 614 LINE"
);
},
{
closed = 1;
nodes = (
"3356 614 LINE",
"3681 396 LINE",
"2953 -89 LINE",
"2953 346 LINE"
);
},
{
closed = 1;
nodes = (
"3756 883 LINE",
"3756 572 LINE",
"3524 726 LINE"
);
},
{
closed = 1;
nodes = (
"2953 1107 LINE",
"2953 1542 LINE",
"3681 1057 LINE",
"3356 839 LINE"
);
}
);
width = 12163;
}
);
unicode = E099;
},
{
glyphname = uniE100;
lastChange = "2014-02-01 21:47:23 -0800";
layers = (
{
layerId = "06D35582-4FA2-40C1-8C5B-DEFCD1A2473F";
name = Regular;
paths = (
{
closed = 1;
nodes = (
"537.259 1969 OFFCURVE",
"0 1431.74 OFFCURVE",
"0 769 CURVE SMOOTH",
"0 106.258 OFFCURVE",
"537.259 -431 OFFCURVE",
"1200 -431 CURVE SMOOTH",
"1862.74 -431 OFFCURVE",
"2400 106.258 OFFCURVE",
"2400 769 CURVE SMOOTH",
"2400 1431.74 OFFCURVE",
"1862.74 1969 OFFCURVE",
"1200 1969 CURVE SMOOTH"
);
},
{
closed = 1;
nodes = (
"1753.94 1772 OFFCURVE",
"2203 1322.94 OFFCURVE",
"2203 769 CURVE SMOOTH",
"2203 215.059 OFFCURVE",
"1753.94 -234 OFFCURVE",
"1200 -234 CURVE SMOOTH",
"646.059 -234 OFFCURVE",
"197 215.059 OFFCURVE",
"197 769 CURVE SMOOTH",
"197 1322.94 OFFCURVE",
"646.059 1772 OFFCURVE",
"1200 1772 CURVE SMOOTH"
);
},
{
closed = 1;
nodes = (
"1235.38 1500.25 LINE SMOOTH",
"1213.95 1514.54 OFFCURVE",
"1186.06 1514.54 OFFCURVE",
"1164.63 1500.25 CURVE SMOOTH",
"486.424 1048.11 LINE",
"482.497 1045.14 LINE",
"478.883 1042.1 LINE",
"476.326 1039.6 LINE",
"473.146 1036.16 LINE",
"470.967 1033.4 LINE",
"468.287 1029.53 LINE",
"466.456 1026.56 LINE",
"464.29 1022.35 LINE",
"462.867 1019.23 LINE",
"461.227 1014.58 LINE",
"460.233 1011.5 LINE",
"459.115 1006.15 LINE",
"458.611 1003.38 LINE",
"458.026 995.063 LINE",
"458.026 542.919 LINE",
"458.611 534.565 LINE",
"459.115 531.835 LINE",
"460.233 526.484 LINE",
"461.227 523.402 LINE",
"462.867 518.711 LINE",
"464.29 515.634 LINE",
"466.456 511.379 LINE",
"468.287 508.45 LINE",
"470.967 504.586 LINE",
"473.146 501.817 LINE",
"476.326 498.383 LINE",
"478.883 495.883 LINE",
"482.497 492.84 LINE",
"486.424 489.873 LINE",
"1164.63 37.728 LINE SMOOTH",
"1175.35 30.584 OFFCURVE",
"1187.69 26.997 OFFCURVE",
"1200 26.997 CURVE SMOOTH",
"1212.35 26.997 OFFCURVE",
"1224.67 30.584 OFFCURVE",
"1235.38 37.728 CURVE SMOOTH",
"1913.57 489.873 LINE",
"1914.64 490.656 LINE",
"1917.52 492.84 LINE",
"1921.15 495.883 LINE",
"1923.68 498.383 LINE",
"1926.85 501.817 LINE",
"1929.05 504.586 LINE",
"1931.74 508.45 LINE",
"1933.56 511.379 LINE",
"1935.72 515.634 LINE",
"1937.15 518.711 LINE",
"1938.78 523.402 LINE",
"1939.78 526.484 LINE",
"1940.89 531.835 LINE",
"1941.4 534.565 LINE",
"1941.97 542.919 LINE",
"1941.97 995.063 LINE",
"1941.4 1003.38 LINE",
"1940.89 1006.15 LINE",
"1939.78 1011.5 LINE",
"1938.78 1014.58 LINE",
"1937.15 1019.23 LINE",
"1935.72 1022.35 LINE",
"1933.56 1026.56 LINE",
"1931.74 1029.53 LINE",
"1929.05 1033.4 LINE",
"1926.85 1036.16 LINE",
"1923.68 1039.6 LINE",
"1921.15 1042.1 LINE",
"1917.52 1045.14 LINE",
"1914.64 1047.33 LINE",
"1913.57 1048.11 LINE"
);
},
{
closed = 1;
nodes = (
"1136.24 1328.04 LINE",
"1136.24 1030.62 LINE",
"859.796 845.686 LINE",
"636.617 994.985 LINE"
);
},
{
closed = 1;
nodes = (
"1263.77 1328.04 LINE",
"1763.4 994.985 LINE",
"1540.24 845.686 LINE",
"1263.77 1030.62 LINE"
);
},
{
closed = 1;
nodes = (
"1200 919.848 LINE",
"1425.54 768.994 LINE",
"1200 618.132 LINE",
"974.471 768.994 LINE"
);
},
{
closed = 1;
nodes = (
"585.56 875.705 LINE",
"745.106 768.988 LINE",
"585.56 662.278 LINE"
);
},
{
closed = 1;
nodes = (
"1814.45 875.702 LINE",
"1814.45 662.278 LINE",
"1654.93 768.994 LINE"
);
},
{
closed = 1;
nodes = (
"859.802 692.255 LINE",
"1136.24 507.364 LINE",
"1136.24 209.94 LINE",
"636.615 542.999 LINE"
);
},
{
closed = 1;
nodes = (
"1540.24 692.255 LINE",
"1763.4 542.999 LINE",
"1263.77 209.94 LINE",
"1263.77 507.364 LINE"
);
}
);
width = 2400;
}
);
unicode = E100;
},
{
glyphname = uniE101;
lastChange = "2014-02-01 21:47:23 -0800";
layers = (
{
layerId = "06D35582-4FA2-40C1-8C5B-DEFCD1A2473F";
name = Regular;
paths = (
{
closed = 1;
nodes = (
"2400 1969 LINE",
"0 1969 LINE",
"0 -431 LINE",
"2400 -431 LINE"
);
},
{
closed = 1;
nodes = (
"1913.57 1048.11 LINE",
"1914.64 1047.33 LINE",
"1917.52 1045.14 LINE",
"1921.15 1042.1 LINE",
"1923.68 1039.6 LINE",
"1926.85 1036.16 LINE",
"1929.05 1033.4 LINE",
"1931.74 1029.53 LINE",
"1933.56 1026.56 LINE",
"1935.72 1022.35 LINE",
"1937.15 1019.23 LINE",
"1938.78 1014.58 LINE",
"1939.78 1011.5 LINE",
"1940.89 1006.15 LINE",
"1941.4 1003.38 LINE",
"1941.97 995.063 LINE",
"1941.97 542.919 LINE",
"1941.4 534.565 LINE",
"1940.89 531.835 LINE",
"1939.78 526.484 LINE",
"1938.78 523.402 LINE",
"1937.15 518.711 LINE",
"1935.72 515.634 LINE",
"1933.56 511.379 LINE",
"1931.74 508.45 LINE",
"1929.05 504.586 LINE",
"1926.85 501.817 LINE",
"1923.68 498.383 LINE",
"1921.15 495.883 LINE",
"1917.52 492.84 LINE",
"1914.64 490.656 LINE",
"1913.57 489.873 LINE",
"1235.38 37.728 LINE SMOOTH",
"1224.67 30.584 OFFCURVE",
"1212.35 26.997 OFFCURVE",
"1200 26.997 CURVE SMOOTH",
"1187.69 26.997 OFFCURVE",
"1175.35 30.584 OFFCURVE",
"1164.63 37.728 CURVE SMOOTH",
"486.424 489.873 LINE",
"485.388 490.656 LINE",
"482.497 492.84 LINE",
"478.883 495.883 LINE",
"476.326 498.383 LINE",
"473.146 501.817 LINE",
"470.967 504.586 LINE",
"468.287 508.45 LINE",
"466.456 511.379 LINE",
"464.29 515.634 LINE",
"462.867 518.711 LINE",
"461.227 523.402 LINE",
"460.233 526.484 LINE",
"459.115 531.835 LINE",
"458.611 534.565 LINE",
"458.026 542.919 LINE",
"458.026 995.063 LINE",
"458.611 1003.38 LINE",
"459.115 1006.15 LINE",
"460.233 1011.5 LINE",
"461.227 1014.58 LINE",
"462.867 1019.23 LINE",
"464.29 1022.35 LINE",
"466.456 1026.56 LINE",
"468.287 1029.53 LINE",
"470.967 1033.4 LINE",
"473.146 1036.16 LINE",
"476.326 1039.6 LINE",
"478.883 1042.1 LINE",
"482.497 1045.14 LINE",
"485.388 1047.33 LINE",
"486.424 1048.11 LINE",
"1164.63 1500.25 LINE SMOOTH",
"1186.06 1514.54 OFFCURVE",
"1213.95 1514.54 OFFCURVE",
"1235.38 1500.25 CURVE SMOOTH"
);
},
{
closed = 1;
nodes = (
"1136.24 1328.04 LINE",
"636.617 994.985 LINE",
"859.796 845.686 LINE",
"1136.24 1030.62 LINE"
);
},
{
closed = 1;
nodes = (
"1263.77 1328.04 LINE",
"1263.77 1030.62 LINE",
"1540.24 845.686 LINE",
"1763.4 994.985 LINE"
);
},
{
closed = 1;
nodes = (
"1200 919.848 LINE",
"974.471 768.994 LINE",
"1200 618.132 LINE",
"1425.54 768.994 LINE"
);
},
{
closed = 1;
nodes = (
"585.56 875.705 LINE",
"585.56 662.278 LINE",
"745.106 768.988 LINE"
);
},
{
closed = 1;
nodes = (
"1814.45 875.702 LINE",
"1654.93 768.994 LINE",
"1814.45 662.278 LINE"
);
},
{
closed = 1;
nodes = (
"859.802 692.255 LINE",
"636.615 542.999 LINE",
"1136.24 209.94 LINE",
"1136.24 507.364 LINE"
);
},
{
closed = 1;
nodes = (
"1540.24 692.255 LINE",
"1263.77 507.364 LINE",
"1263.77 209.94 LINE",
"1763.4 542.999 LINE"
);
}
);
width = 2400;
}
);
unicode = E101;
},
{
glyphname = uniE102;
lastChange = "2014-02-01 21:47:23 -0800";
layers = (
{
layerId = "06D35582-4FA2-40C1-8C5B-DEFCD1A2473F";
name = Regular;
paths = (
{
closed = 1;
nodes = (
"256 1969 LINE SMOOTH",
"114.615 1969 OFFCURVE",
"0 1854.39 OFFCURVE",
"0 1713 CURVE SMOOTH",
"0 -175 LINE SMOOTH",
"0 -316 OFFCURVE",
"114.615 -431 OFFCURVE",
"256 -431 CURVE SMOOTH",
"2144 -431 LINE SMOOTH",
"2285.38 -431 OFFCURVE",
"2400 -316 OFFCURVE",
"2400 -175 CURVE SMOOTH",
"2400 1713 LINE SMOOTH",
"2400 1854.39 OFFCURVE",
"2285.38 1969 OFFCURVE",
"2144 1969 CURVE SMOOTH"
);
},
{
closed = 1;
nodes = (
"1913.57 1048.11 LINE",
"1914.64 1047.33 LINE",
"1917.52 1045.14 LINE",
"1921.15 1042.1 LINE",
"1923.68 1039.6 LINE",
"1926.85 1036.16 LINE",
"1929.05 1033.4 LINE",
"1931.74 1029.53 LINE",
"1933.56 1026.56 LINE",
"1935.72 1022.35 LINE",
"1937.15 1019.23 LINE",
"1938.78 1014.58 LINE",
"1939.78 1011.5 LINE",
"1940.89 1006.15 LINE",
"1941.4 1003.38 LINE",
"1941.97 995.063 LINE",
"1941.97 542.919 LINE",
"1941.4 534.565 LINE",
"1940.89 531.835 LINE",
"1939.78 526.484 LINE",
"1938.78 523.402 LINE",
"1937.15 518.711 LINE",
"1935.72 515.634 LINE",
"1933.56 511.379 LINE",
"1931.74 508.45 LINE",
"1929.05 504.586 LINE",
"1926.85 501.817 LINE",
"1923.68 498.383 LINE",
"1921.15 495.883 LINE",
"1917.52 492.84 LINE",
"1914.64 490.656 LINE",
"1913.57 489.873 LINE",
"1235.38 37.728 LINE SMOOTH",
"1224.67 30.584 OFFCURVE",
"1212.35 26.997 OFFCURVE",
"1200 26.997 CURVE SMOOTH",
"1187.69 26.997 OFFCURVE",
"1175.35 30.584 OFFCURVE",
"1164.63 37.728 CURVE SMOOTH",
"486.424 489.873 LINE",
"485.388 490.656 LINE",
"482.497 492.84 LINE",
"478.883 495.883 LINE",
"476.326 498.383 LINE",
"473.146 501.817 LINE",
"470.967 504.586 LINE",
"468.287 508.45 LINE",
"466.456 511.379 LINE",
"464.29 515.634 LINE",
"462.867 518.711 LINE",
"461.227 523.402 LINE",
"460.233 526.484 LINE",
"459.115 531.835 LINE",
"458.611 534.565 LINE",
"458.026 542.919 LINE",
"458.026 995.063 LINE",
"458.611 1003.38 LINE",
"459.115 1006.15 LINE",
"460.233 1011.5 LINE",
"461.227 1014.58 LINE",
"462.867 1019.23 LINE",
"464.29 1022.35 LINE",
"466.456 1026.56 LINE",
"468.287 1029.53 LINE",
"470.967 1033.4 LINE",
"473.146 1036.16 LINE",
"476.326 1039.6 LINE",
"478.883 1042.1 LINE",
"482.497 1045.14 LINE",
"485.388 1047.33 LINE",
"486.424 1048.11 LINE",
"1164.63 1500.25 LINE SMOOTH",
"1186.06 1514.54 OFFCURVE",
"1213.95 1514.54 OFFCURVE",
"1235.38 1500.25 CURVE SMOOTH"
);
},
{
closed = 1;
nodes = (
"1136.24 1328.04 LINE",
"636.617 994.985 LINE",
"859.796 845.686 LINE",
"1136.24 1030.62 LINE"
);
},
{
closed = 1;
nodes = (
"1263.77 1328.04 LINE",
"1263.77 1030.62 LINE",
"1540.24 845.686 LINE",
"1763.4 994.985 LINE"
);
},
{
closed = 1;
nodes = (
"1200 919.848 LINE",
"974.471 768.994 LINE",
"1200 618.132 LINE",
"1425.54 768.994 LINE"
);
},
{
closed = 1;
nodes = (
"585.56 875.705 LINE",
"585.56 662.278 LINE",
"745.106 768.988 LINE"
);
},
{
closed = 1;
nodes = (
"1814.45 875.702 LINE",
"1654.93 768.994 LINE",
"1814.45 662.278 LINE"
);
},
{
closed = 1;
nodes = (
"859.802 692.255 LINE",
"636.615 542.999 LINE",
"1136.24 209.94 LINE",
"1136.24 507.364 LINE"
);
},
{
closed = 1;
nodes = (
"1540.24 692.255 LINE",
"1263.77 507.364 LINE",
"1263.77 209.94 LINE",
"1763.4 542.999 LINE"
);
}
);
width = 2400;
}
);
unicode = E102;
},
{
glyphname = uniE103;
lastChange = "2014-02-01 21:47:23 -0800";
layers = (
{
layerId = "06D35582-4FA2-40C1-8C5B-DEFCD1A2473F";
name = Regular;
paths = (
{
closed = 1;
nodes = (
"352 1969 LINE SMOOTH",
"157.596 1969 OFFCURVE",
"0 1811.4 OFFCURVE",
"0 1617 CURVE SMOOTH",
"0 -79 LINE SMOOTH",
"0 -273 OFFCURVE",
"157.596 -431 OFFCURVE",
"352 -431 CURVE SMOOTH",
"2048 -431 LINE SMOOTH",
"2242.4 -431 OFFCURVE",
"2400 -273 OFFCURVE",
"2400 -79 CURVE SMOOTH",
"2400 1617 LINE SMOOTH",
"2400 1811.4 OFFCURVE",
"2242.4 1969 OFFCURVE",
"2048 1969 CURVE SMOOTH"
);
},
{
closed = 1;
nodes = (
"1913.57 1048.11 LINE",
"1914.64 1047.33 LINE",
"1917.52 1045.14 LINE",
"1921.15 1042.1 LINE",
"1923.68 1039.6 LINE",
"1926.85 1036.16 LINE",
"1929.05 1033.4 LINE",
"1931.74 1029.53 LINE",
"1933.56 1026.56 LINE",
"1935.72 1022.35 LINE",
"1937.15 1019.23 LINE",
"1938.78 1014.58 LINE",
"1939.78 1011.5 LINE",
"1940.89 1006.15 LINE",
"1941.4 1003.38 LINE",
"1941.97 995.063 LINE",
"1941.97 542.919 LINE",
"1941.4 534.565 LINE",
"1940.89 531.835 LINE",
"1939.78 526.484 LINE",
"1938.78 523.402 LINE",
"1937.15 518.711 LINE",
"1935.72 515.634 LINE",
"1933.56 511.379 LINE",
"1931.74 508.45 LINE",
"1929.05 504.586 LINE",
"1926.85 501.817 LINE",
"1923.68 498.383 LINE",
"1921.15 495.883 LINE",
"1917.52 492.84 LINE",
"1914.64 490.656 LINE",
"1913.57 489.873 LINE",
"1235.38 37.728 LINE SMOOTH",
"1224.67 30.584 OFFCURVE",
"1212.35 26.997 OFFCURVE",
"1200 26.997 CURVE SMOOTH",
"1187.69 26.997 OFFCURVE",
"1175.35 30.584 OFFCURVE",
"1164.63 37.728 CURVE SMOOTH",
"486.424 489.873 LINE",
"485.388 490.656 LINE",
"482.497 492.84 LINE",
"478.883 495.883 LINE",
"476.326 498.383 LINE",
"473.146 501.817 LINE",
"470.967 504.586 LINE",
"468.287 508.45 LINE",
"466.456 511.379 LINE",
"464.29 515.634 LINE",
"462.867 518.711 LINE",
"461.227 523.402 LINE",
"460.233 526.484 LINE",
"459.115 531.835 LINE",
"458.611 534.565 LINE",
"458.026 542.919 LINE",
"458.026 995.063 LINE",
"458.611 1003.38 LINE",
"459.115 1006.15 LINE",
"460.233 1011.5 LINE",
"461.227 1014.58 LINE",
"462.867 1019.23 LINE",
"464.29 1022.35 LINE",
"466.456 1026.56 LINE",
"468.287 1029.53 LINE",
"470.967 1033.4 LINE",
"473.146 1036.16 LINE",
"476.326 1039.6 LINE",
"478.883 1042.1 LINE",
"482.497 1045.14 LINE",
"485.388 1047.33 LINE",
"486.424 1048.11 LINE",
"1164.63 1500.25 LINE SMOOTH",
"1186.06 1514.54 OFFCURVE",
"1213.95 1514.54 OFFCURVE",
"1235.38 1500.25 CURVE SMOOTH"
);
},
{
closed = 1;
nodes = (
"1136.24 1328.04 LINE",
"636.617 994.985 LINE",
"859.796 845.686 LINE",
"1136.24 1030.62 LINE"
);
},
{
closed = 1;
nodes = (
"1263.77 1328.04 LINE",
"1263.77 1030.62 LINE",
"1540.24 845.686 LINE",
"1763.4 994.985 LINE"
);
},
{
closed = 1;
nodes = (
"1200 919.848 LINE",
"974.471 768.994 LINE",
"1200 618.132 LINE",
"1425.54 768.994 LINE"
);
},
{
closed = 1;
nodes = (
"585.56 875.705 LINE",
"585.56 662.278 LINE",
"745.106 768.988 LINE"
);
},
{
closed = 1;
nodes = (
"1814.45 875.702 LINE",
"1654.93 768.994 LINE",
"1814.45 662.278 LINE"
);
},
{
closed = 1;
nodes = (
"859.802 692.255 LINE",
"636.615 542.999 LINE",
"1136.24 209.94 LINE",
"1136.24 507.364 LINE"
);
},
{
closed = 1;
nodes = (
"1540.24 692.255 LINE",
"1263.77 507.364 LINE",
"1263.77 209.94 LINE",
"1763.4 542.999 LINE"
);
}
);
width = 2400;
}
);
unicode = E103;
},
{
glyphname = uniE104;
lastChange = "2014-02-01 21:47:23 -0800";
layers = (
{
layerId = "06D35582-4FA2-40C1-8C5B-DEFCD1A2473F";
name = Regular;
paths = (
{
closed = 1;
nodes = (
"836.742 1969 LINE SMOOTH",
"595.804 1969 OFFCURVE",
"475.34 1969 OFFCURVE",
"345.66 1928 CURVE",
"204.07 1876.46 OFFCURVE",
"92.539 1764.93 OFFCURVE",
"41.004 1623.34 CURVE",
"0 1493.66 OFFCURVE",
"0 1373.2 OFFCURVE",
"0 1132.26 CURVE SMOOTH",
"0 405.743 LINE SMOOTH",
"0 164.805 OFFCURVE",
"0 44.344 OFFCURVE",
"41.004 -85 CURVE",
"92.539 -227 OFFCURVE",
"204.07 -338 OFFCURVE",
"345.66 -390 CURVE",
"475.34 -431 OFFCURVE",
"595.804 -431 OFFCURVE",
"836.742 -431 CURVE SMOOTH",
"1563.26 -431 LINE SMOOTH",
"1804.2 -431 OFFCURVE",
"1924.66 -431 OFFCURVE",
"2054.34 -390 CURVE",
"2195.93 -338 OFFCURVE",
"2307.46 -227 OFFCURVE",
"2359 -85 CURVE",
"2400 44.344 OFFCURVE",
"2400 164.805 OFFCURVE",
"2400 405.743 CURVE SMOOTH",
"2400 1132.26 LINE SMOOTH",
"2400 1373.2 OFFCURVE",
"2400 1493.66 OFFCURVE",
"2359 1623.34 CURVE",
"2307.46 1764.93 OFFCURVE",
"2195.93 1876.46 OFFCURVE",
"2054.34 1928 CURVE",
"1924.66 1969 OFFCURVE",
"1804.2 1969 OFFCURVE",
"1563.26 1969 CURVE SMOOTH"
);
},
{
closed = 1;
nodes = (
"1913.57 1048.11 LINE",
"1914.64 1047.33 LINE",
"1917.52 1045.14 LINE",
"1921.15 1042.1 LINE",
"1923.68 1039.6 LINE",
"1926.85 1036.16 LINE",
"1929.05 1033.4 LINE",
"1931.74 1029.53 LINE",
"1933.56 1026.56 LINE",
"1935.72 1022.35 LINE",
"1937.15 1019.23 LINE",
"1938.78 1014.58 LINE",
"1939.78 1011.5 LINE",
"1940.89 1006.15 LINE",
"1941.4 1003.38 LINE",
"1941.97 995.063 LINE",
"1941.97 542.919 LINE",
"1941.4 534.565 LINE",
"1940.89 531.835 LINE",
"1939.78 526.484 LINE",
"1938.78 523.402 LINE",
"1937.15 518.711 LINE",
"1935.72 515.634 LINE",
"1933.56 511.379 LINE",
"1931.74 508.45 LINE",
"1929.05 504.586 LINE",
"1926.85 501.817 LINE",
"1923.68 498.383 LINE",
"1921.15 495.883 LINE",
"1917.52 492.84 LINE",
"1914.64 490.656 LINE",
"1913.57 489.873 LINE",
"1235.38 37.728 LINE SMOOTH",
"1224.67 30.584 OFFCURVE",
"1212.35 26.997 OFFCURVE",
"1200 26.997 CURVE SMOOTH",
"1187.69 26.997 OFFCURVE",
"1175.35 30.584 OFFCURVE",
"1164.63 37.728 CURVE SMOOTH",
"486.424 489.873 LINE",
"485.388 490.656 LINE",
"482.497 492.84 LINE",
"478.883 495.883 LINE",
"476.326 498.383 LINE",
"473.146 501.817 LINE",
"470.967 504.586 LINE",
"468.287 508.45 LINE",
"466.456 511.379 LINE",
"464.29 515.634 LINE",
"462.867 518.711 LINE",
"461.227 523.402 LINE",
"460.233 526.484 LINE",
"459.115 531.835 LINE",
"458.611 534.565 LINE",
"458.026 542.919 LINE",
"458.026 995.063 LINE",
"458.611 1003.38 LINE",
"459.115 1006.15 LINE",
"460.233 1011.5 LINE",
"461.227 1014.58 LINE",
"462.867 1019.23 LINE",
"464.29 1022.35 LINE",
"466.456 1026.56 LINE",
"468.287 1029.53 LINE",
"470.967 1033.4 LINE",
"473.146 1036.16 LINE",
"476.326 1039.6 LINE",
"478.883 1042.1 LINE",
"482.497 1045.14 LINE",
"485.388 1047.33 LINE",
"486.424 1048.11 LINE",
"1164.63 1500.25 LINE SMOOTH",
"1186.06 1514.54 OFFCURVE",
"1213.95 1514.54 OFFCURVE",
"1235.38 1500.25 CURVE SMOOTH"
);
},
{
closed = 1;
nodes = (
"1136.24 1328.04 LINE",
"636.617 994.985 LINE",
"859.796 845.686 LINE",
"1136.24 1030.62 LINE"
);
},
{
closed = 1;
nodes = (
"1263.77 1328.04 LINE",
"1263.77 1030.62 LINE",
"1540.24 845.686 LINE",
"1763.4 994.985 LINE"
);
},
{
closed = 1;
nodes = (
"1200 919.848 LINE",
"974.471 768.994 LINE",
"1200 618.132 LINE",
"1425.54 768.994 LINE"
);
},
{
closed = 1;
nodes = (
"585.56 875.705 LINE",
"585.56 662.278 LINE",
"745.106 768.988 LINE"
);
},
{
closed = 1;
nodes = (
"1814.45 875.702 LINE",
"1654.93 768.994 LINE",
"1814.45 662.278 LINE"
);
},
{
closed = 1;
nodes = (
"859.802 692.255 LINE",
"636.615 542.999 LINE",
"1136.24 209.94 LINE",
"1136.24 507.364 LINE"
);
},
{
closed = 1;
nodes = (
"1540.24 692.255 LINE",
"1263.77 507.364 LINE",
"1263.77 209.94 LINE",
"1763.4 542.999 LINE"
);
}
);
width = 2400;
}
);
unicode = E104;
},
{
glyphname = uniE105;
lastChange = "2014-02-01 21:47:23 -0800";
layers = (
{
layerId = "06D35582-4FA2-40C1-8C5B-DEFCD1A2473F";
name = Regular;
paths = (
{
closed = 1;
nodes = (
"537.252 1969 OFFCURVE",
"0 1431.75 OFFCURVE",
"0 769 CURVE SMOOTH",
"0 106.252 OFFCURVE",
"537.252 -431 OFFCURVE",
"1200 -431 CURVE SMOOTH",
"1862.75 -431 OFFCURVE",
"2400 106.252 OFFCURVE",
"2400 769 CURVE SMOOTH",
"2400 1431.75 OFFCURVE",
"1862.75 1969 OFFCURVE",
"1200 1969 CURVE SMOOTH"
);
},
{
closed = 1;
nodes = (
"1913.57 1048.11 LINE",
"1914.64 1047.33 LINE SMOOTH",
"1915.64 1046.63 OFFCURVE",
"1916.57 1045.89 OFFCURVE",
"1917.52 1045.15 CURVE SMOOTH",
"1921.15 1042.1 LINE SMOOTH",
"1922.02 1041.32 OFFCURVE",
"1922.84 1040.46 OFFCURVE",
"1923.68 1039.6 CURVE SMOOTH",
"1926.84 1036.16 LINE SMOOTH",
"1927.62 1035.27 OFFCURVE",
"1928.35 1034.33 OFFCURVE",
"1929.05 1033.4 CURVE",
"1931.74 1029.53 LINE",
"1932.34 1028.55 OFFCURVE",
"1932.99 1027.58 OFFCURVE",
"1933.56 1026.56 CURVE",
"1935.72 1022.35 LINE",
"1936.19 1021.33 OFFCURVE",
"1936.72 1020.28 OFFCURVE",
"1937.15 1019.23 CURVE",
"1938.78 1014.58 LINE SMOOTH",
"1939.12 1013.56 OFFCURVE",
"1939.51 1012.55 OFFCURVE",
"1939.78 1011.5 CURVE",
"1940.89 1006.15 LINE",
"1941.05 1005.21 OFFCURVE",
"1941.26 1004.31 OFFCURVE",
"1941.4 1003.38 CURVE",
"1941.97 995.063 LINE",
"1941.97 542.919 LINE",
"1941.4 534.565 LINE",
"1941.26 533.669 OFFCURVE",
"1941.05 532.733 OFFCURVE",
"1940.89 531.835 CURVE",
"1939.78 526.484 LINE",
"1939.51 525.429 OFFCURVE",
"1939.12 524.418 OFFCURVE",
"1938.78 523.402 CURVE SMOOTH",
"1937.15 518.711 LINE",
"1936.72 517.661 OFFCURVE",
"1936.19 516.65 OFFCURVE",
"1935.72 515.634 CURVE",
"1933.56 511.379 LINE",
"1932.99 510.403 OFFCURVE",
"1932.34 509.426 OFFCURVE",
"1931.74 508.45 CURVE",
"1929.05 504.586 LINE SMOOTH",
"1928.35 503.61 OFFCURVE",
"1927.62 502.714 OFFCURVE",
"1926.84 501.817 CURVE SMOOTH",
"1923.68 498.383 LINE SMOOTH",
"1922.84 497.522 OFFCURVE",
"1922.02 496.665 OFFCURVE",
"1921.15 495.883 CURVE SMOOTH",
"1917.52 492.84 LINE SMOOTH",
"1916.57 492.097 OFFCURVE",
"1915.64 491.354 OFFCURVE",
"1914.64 490.656 CURVE SMOOTH",
"1913.57 489.873 LINE",
"1235.38 37.728 LINE SMOOTH",
"1224.67 30.584 OFFCURVE",
"1212.35 26.997 OFFCURVE",
"1200 26.997 CURVE SMOOTH",
"1187.69 26.997 OFFCURVE",
"1175.35 30.584 OFFCURVE",
"1164.63 37.728 CURVE SMOOTH",
"486.424 489.873 LINE",
"485.388 490.656 LINE",
"484.39 491.354 OFFCURVE",
"483.436 492.097 OFFCURVE",
"482.497 492.84 CURVE SMOOTH",
"478.883 495.883 LINE SMOOTH",
"478.006 496.665 OFFCURVE",
"477.169 497.522 OFFCURVE",
"476.326 498.383 CURVE SMOOTH",
"473.146 501.817 LINE",
"472.406 502.714 OFFCURVE",
"471.666 503.61 OFFCURVE",
"470.967 504.586 CURVE SMOOTH",
"468.287 508.45 LINE SMOOTH",
"467.642 509.426 OFFCURVE",
"467.039 510.403 OFFCURVE",
"466.456 511.379 CURVE",
"464.29 515.634 LINE SMOOTH",
"463.805 516.65 OFFCURVE",
"463.312 517.661 OFFCURVE",
"462.867 518.711 CURVE",
"461.227 523.402 LINE SMOOTH",
"460.878 524.418 OFFCURVE",
"460.528 525.429 OFFCURVE",
"460.233 526.484 CURVE",
"459.115 531.835 LINE",
"458.965 532.733 OFFCURVE",
"458.732 533.669 OFFCURVE",
"458.611 534.565 CURVE",
"458.026 542.919 LINE",
"458.026 995.063 LINE",
"458.611 1003.38 LINE",
"458.732 1004.31 OFFCURVE",
"458.965 1005.21 OFFCURVE",
"459.115 1006.15 CURVE",
"460.233 1011.5 LINE",
"460.528 1012.55 OFFCURVE",
"460.878 1013.56 OFFCURVE",
"461.227 1014.58 CURVE SMOOTH",
"462.867 1019.23 LINE",
"463.312 1020.28 OFFCURVE",
"463.805 1021.33 OFFCURVE",
"464.29 1022.35 CURVE SMOOTH",
"466.456 1026.56 LINE",
"467.039 1027.58 OFFCURVE",
"467.642 1028.55 OFFCURVE",
"468.287 1029.53 CURVE SMOOTH",
"470.967 1033.4 LINE",
"471.666 1034.33 OFFCURVE",
"472.406 1035.27 OFFCURVE",
"473.146 1036.16 CURVE",
"476.326 1039.6 LINE SMOOTH",
"477.169 1040.46 OFFCURVE",
"478.006 1041.32 OFFCURVE",
"478.883 1042.1 CURVE SMOOTH",
"482.497 1045.15 LINE SMOOTH",
"483.436 1045.89 OFFCURVE",
"484.39 1046.63 OFFCURVE",
"485.388 1047.33 CURVE SMOOTH",
"486.424 1048.11 LINE",
"1164.63 1500.25 LINE SMOOTH",
"1186.06 1514.54 OFFCURVE",
"1213.95 1514.54 OFFCURVE",
"1235.38 1500.25 CURVE SMOOTH"
);
},
{
closed = 1;
nodes = (
"1136.24 1328.04 LINE",
"636.617 994.985 LINE",
"859.796 845.686 LINE",
"1136.24 1030.62 LINE"
);
},
{
closed = 1;
nodes = (
"1263.77 1328.04 LINE",
"1263.77 1030.62 LINE",
"1540.24 845.686 LINE",
"1763.4 994.985 LINE"
);
},
{
closed = 1;
nodes = (
"1200 919.848 LINE",
"974.471 768.994 LINE",
"1200 618.132 LINE",
"1425.54 768.994 LINE"
);
},
{
closed = 1;
nodes = (
"585.56 875.705 LINE",
"585.56 662.278 LINE",
"745.106 768.988 LINE"
);
},
{
closed = 1;
nodes = (
"1814.45 875.702 LINE",
"1654.93 768.994 LINE",
"1814.45 662.278 LINE"
);
},
{
closed = 1;
nodes = (
"859.802 692.255 LINE",
"636.615 542.999 LINE",
"1136.24 209.94 LINE",
"1136.24 507.364 LINE"
);
},
{
closed = 1;
nodes = (
"1540.24 692.255 LINE",
"1263.77 507.364 LINE",
"1263.77 209.94 LINE",
"1763.4 542.999 LINE"
);
}
);
width = 2400;
}
);
unicode = E105;
},
{
glyphname = uniE106;
lastChange = "2014-02-01 21:47:23 -0800";
layers = (
{
layerId = "06D35582-4FA2-40C1-8C5B-DEFCD1A2473F";
name = Regular;
paths = (
{
closed = 1;
nodes = (
"1235.38 1500.25 LINE SMOOTH",
"1213.95 1514.54 OFFCURVE",
"1186.06 1514.54 OFFCURVE",
"1164.63 1500.25 CURVE SMOOTH",
"486.424 1048.11 LINE",
"482.497 1045.14 LINE",
"478.883 1042.1 LINE",
"476.326 1039.6 LINE",
"473.146 1036.16 LINE",
"470.967 1033.4 LINE",
"468.287 1029.53 LINE",
"466.456 1026.56 LINE",
"464.29 1022.35 LINE",
"462.867 1019.23 LINE",
"461.227 1014.58 LINE",
"460.233 1011.5 LINE",
"459.115 1006.15 LINE",
"458.611 1003.38 LINE",
"458.026 995.063 LINE",
"458.026 542.919 LINE",
"458.611 534.565 LINE",
"459.115 531.835 LINE",
"460.233 526.484 LINE",
"461.227 523.402 LINE",
"462.867 518.711 LINE",
"464.29 515.634 LINE",
"466.456 511.379 LINE",
"468.287 508.45 LINE",
"470.967 504.586 LINE",
"473.146 501.817 LINE",
"476.326 498.383 LINE",
"478.883 495.883 LINE",
"482.497 492.84 LINE",
"486.424 489.873 LINE",
"1164.63 37.728 LINE SMOOTH",
"1175.35 30.584 OFFCURVE",
"1187.69 26.997 OFFCURVE",
"1200 26.997 CURVE SMOOTH",
"1212.35 26.997 OFFCURVE",
"1224.67 30.584 OFFCURVE",
"1235.38 37.728 CURVE SMOOTH",
"1913.57 489.873 LINE",
"1914.64 490.656 LINE",
"1917.52 492.84 LINE",
"1921.15 495.883 LINE",
"1923.68 498.383 LINE",
"1926.85 501.817 LINE",
"1929.05 504.586 LINE",
"1931.74 508.45 LINE",
"1933.56 511.379 LINE",
"1935.72 515.634 LINE",
"1937.15 518.711 LINE",
"1938.78 523.402 LINE",
"1939.78 526.484 LINE",
"1940.89 531.835 LINE",
"1941.4 534.565 LINE",
"1941.97 542.919 LINE",
"1941.97 995.063 LINE",
"1941.4 1003.38 LINE",
"1940.89 1006.15 LINE",
"1939.78 1011.5 LINE",
"1938.78 1014.58 LINE",
"1937.15 1019.23 LINE",
"1935.72 1022.35 LINE",
"1933.56 1026.56 LINE",
"1931.74 1029.53 LINE",
"1929.05 1033.4 LINE",
"1926.85 1036.16 LINE",
"1923.68 1039.6 LINE",
"1921.15 1042.1 LINE",
"1917.52 1045.14 LINE",
"1914.64 1047.33 LINE",
"1913.57 1048.11 LINE"
);
},
{
closed = 1;
nodes = (
"1136.24 1328.04 LINE",
"1136.24 1030.62 LINE",
"859.796 845.686 LINE",
"636.617 994.985 LINE"
);
},
{
closed = 1;
nodes = (
"1263.77 1328.04 LINE",
"1763.4 994.985 LINE",
"1540.24 845.686 LINE",
"1263.77 1030.62 LINE"
);
},
{
closed = 1;
nodes = (
"1200 919.848 LINE",
"1425.54 768.994 LINE",
"1200 618.132 LINE",
"974.471 768.994 LINE"
);
},
{
closed = 1;
nodes = (
"585.56 875.705 LINE",
"745.106 768.988 LINE",
"585.56 662.278 LINE"
);
},
{
closed = 1;
nodes = (
"1814.45 875.702 LINE",
"1814.45 662.278 LINE",
"1654.93 768.994 LINE"
);
},
{
closed = 1;
nodes = (
"859.802 692.255 LINE",
"1136.24 507.364 LINE",
"1136.24 209.94 LINE",
"636.615 542.999 LINE"
);
},
{
closed = 1;
nodes = (
"1540.24 692.255 LINE",
"1763.4 542.999 LINE",
"1263.77 209.94 LINE",
"1263.77 507.364 LINE"
);
}
);
width = 2400;
}
);
unicode = E106;
},
{
glyphname = uniE121;
lastChange = "2014-02-01 21:52:16 -0800";
layers = (
{
layerId = "06D35582-4FA2-40C1-8C5B-DEFCD1A2473F";
name = Regular;
paths = (
{
closed = 1;
nodes = (
"0 1969 LINE",
"0 -431 LINE",
"2400 -431 LINE",
"2400 1969 LINE"
);
},
{
closed = 1;
nodes = (
"702.941 -131 OFFCURVE",
"299.996 271.942 OFFCURVE",
"299.996 769 CURVE SMOOTH",
"299.996 1266.05 OFFCURVE",
"702.941 1669 OFFCURVE",
"1200 1669 CURVE SMOOTH",
"1697.05 1669 OFFCURVE",
"2100 1266.05 OFFCURVE",
"2100 769 CURVE SMOOTH",
"2100 271.942 OFFCURVE",
"1697.05 -131 OFFCURVE",
"1200 -131 CURVE SMOOTH"
);
},
{
closed = 1;
nodes = (
"1572.32 1465.21 OFFCURVE",
"1394.62 1537.58 OFFCURVE",
"1200 1537.58 CURVE SMOOTH",
"1137.57 1537.58 OFFCURVE",
"1076.91 1530.09 OFFCURVE",
"1018.8 1516.04 CURVE",
"1030.1 1501.12 OFFCURVE",
"1174.7 1309.18 OFFCURVE",
"1306.24 1067.51 CURVE",
"1597.82 1176.8 OFFCURVE",
"1706.97 1344.76 OFFCURVE",
"1707.73 1345.94 CURVE"
);
},
{
closed = 1;
nodes = (
"1024.55 1257.65 OFFCURVE",
"882.342 1450.36 OFFCURVE",
"872.036 1464.25 CURVE",
"657.672 1362.95 OFFCURVE",
"497.692 1165.47 OFFCURVE",
"447.803 927.474 CURVE",
"467.504 927.127 OFFCURVE",
"788.08 923.103 OFFCURVE",
"1157.55 1021.22 CURVE"
);
},
{
closed = 1;
nodes = (
"1383.32 916.394 OFFCURVE",
"1400.49 879.107 OFFCURVE",
"1416.48 841.569 CURVE SMOOTH",
"1433.06 801.849 LINE",
"1697.64 835.121 OFFCURVE",
"1958.27 778.932 OFFCURVE",
"1968.47 776.696 CURVE",
"1966.68 959.105 OFFCURVE",
"1901.4 1126.32 OFFCURVE",
"1793.59 1257.24 CURVE",
"1790.8 1253.19 OFFCURVE",
"1667.25 1076.29 OFFCURVE",
"1365.41 953.057 CURVE"
);
},
{
closed = 1;
nodes = (
"822.739 783.623 OFFCURVE",
"440.499 793.141 OFFCURVE",
"431.829 793.373 CURVE",
"431.407 769.007 LINE SMOOTH",
"431.407 571.677 OFFCURVE",
"505.805 391.745 OFFCURVE",
"628.039 255.648 CURVE",
"629.935 258.96 LINE SMOOTH",
"649.971 293.069 OFFCURVE",
"859.247 635.737 OFFCURVE",
"1253.22 763.078 CURVE SMOOTH",
"1283.55 772.234 LINE",
"1264.23 815.959 OFFCURVE",
"1243.19 859.733 OFFCURVE",
"1221.15 902.857 CURVE"
);
},
{
closed = 1;
nodes = (
"1580.76 403.485 OFFCURVE",
"1621.69 177.895 OFFCURVE",
"1629.49 131.538 CURVE",
"1802.06 248.041 OFFCURVE",
"1924.73 432.78 OFFCURVE",
"1958.9 647.034 CURVE",
"1943.38 652.115 OFFCURVE",
"1728.25 720.283 OFFCURVE",
"1479.93 680.537 CURVE"
);
},
{
closed = 1;
nodes = (
"898.163 492.501 OFFCURVE",
"743.421 195.41 OFFCURVE",
"728.791 165.565 CURVE SMOOTH",
"727.484 162.851 LINE",
"857.833 61.092 OFFCURVE",
"1021.82 0.417 OFFCURVE",
"1200 0.417 CURVE SMOOTH",
"1306.47 0.417 OFFCURVE",
"1407.88 22.08 OFFCURVE",
"1500.08 61.221 CURVE",
"1488.66 128.618 OFFCURVE",
"1443.98 364.038 OFFCURVE",
"1335.87 644.974 CURVE",
"1330.8 643.263 LINE SMOOTH"
);
}
);
width = 2400;
}
);
unicode = E121;
},
{
glyphname = uniE122;
lastChange = "2014-02-01 21:52:16 -0800";
layers = (
{
layerId = "06D35582-4FA2-40C1-8C5B-DEFCD1A2473F";
name = Regular;
paths = (
{
closed = 1;
nodes = (
"256 1969 LINE SMOOTH",
"114.615 1969 OFFCURVE",
"0 1854.39 OFFCURVE",
"0 1713 CURVE SMOOTH",
"0 -175 LINE SMOOTH",
"0 -316 OFFCURVE",
"114.615 -431 OFFCURVE",
"256 -431 CURVE SMOOTH",
"2144 -431 LINE SMOOTH",
"2285.38 -431 OFFCURVE",
"2400 -316 OFFCURVE",
"2400 -175 CURVE SMOOTH",
"2400 1713 LINE SMOOTH",
"2400 1854.39 OFFCURVE",
"2285.38 1969 OFFCURVE",
"2144 1969 CURVE SMOOTH"
);
},
{
closed = 1;
nodes = (
"1697.05 1669 OFFCURVE",
"2100 1266.05 OFFCURVE",
"2100 769 CURVE SMOOTH",
"2100 271.942 OFFCURVE",
"1697.05 -131 OFFCURVE",
"1200 -131 CURVE SMOOTH",
"702.941 -131 OFFCURVE",
"299.996 271.942 OFFCURVE",
"299.996 769 CURVE SMOOTH",
"299.996 1266.05 OFFCURVE",
"702.941 1669 OFFCURVE",
"1200 1669 CURVE SMOOTH"
);
},
{
closed = 1;
nodes = (
"1137.57 1537.58 OFFCURVE",
"1076.91 1530.09 OFFCURVE",
"1018.8 1516.04 CURVE",
"1030.1 1501.12 OFFCURVE",
"1174.7 1309.18 OFFCURVE",
"1306.24 1067.51 CURVE",
"1597.82 1176.8 OFFCURVE",
"1706.97 1344.76 OFFCURVE",
"1707.73 1345.94 CURVE",
"1572.32 1465.21 OFFCURVE",
"1394.62 1537.58 OFFCURVE",
"1200 1537.58 CURVE SMOOTH"
);
},
{
closed = 1;
nodes = (
"657.672 1362.95 OFFCURVE",
"497.692 1165.47 OFFCURVE",
"447.803 927.474 CURVE",
"467.504 927.127 OFFCURVE",
"788.08 923.103 OFFCURVE",
"1157.55 1021.22 CURVE",
"1024.55 1257.65 OFFCURVE",
"882.342 1450.36 OFFCURVE",
"872.036 1464.25 CURVE"
);
},
{
closed = 1;
nodes = (
"1790.8 1253.19 OFFCURVE",
"1667.25 1076.29 OFFCURVE",
"1365.41 953.057 CURVE",
"1383.32 916.394 OFFCURVE",
"1400.49 879.107 OFFCURVE",
"1416.48 841.569 CURVE SMOOTH",
"1433.06 801.849 LINE",
"1697.64 835.121 OFFCURVE",
"1958.27 778.932 OFFCURVE",
"1968.47 776.696 CURVE",
"1966.68 959.105 OFFCURVE",
"1901.4 1126.32 OFFCURVE",
"1793.59 1257.24 CURVE"
);
},
{
closed = 1;
nodes = (
"822.739 783.623 OFFCURVE",
"440.499 793.141 OFFCURVE",
"431.829 793.373 CURVE",
"431.407 769.007 LINE SMOOTH",
"431.407 571.677 OFFCURVE",
"505.805 391.745 OFFCURVE",
"628.039 255.648 CURVE",
"629.935 258.96 LINE SMOOTH",
"649.971 293.069 OFFCURVE",
"859.247 635.737 OFFCURVE",
"1253.22 763.078 CURVE SMOOTH",
"1283.55 772.234 LINE",
"1264.23 815.959 OFFCURVE",
"1243.19 859.733 OFFCURVE",
"1221.15 902.857 CURVE"
);
},
{
closed = 1;
nodes = (
"1580.76 403.485 OFFCURVE",
"1621.69 177.895 OFFCURVE",
"1629.49 131.538 CURVE",
"1802.06 248.041 OFFCURVE",
"1924.73 432.78 OFFCURVE",
"1958.9 647.034 CURVE",
"1943.38 652.115 OFFCURVE",
"1728.25 720.283 OFFCURVE",
"1479.93 680.537 CURVE"
);
},
{
closed = 1;
nodes = (
"1330.8 643.263 LINE SMOOTH",
"898.163 492.501 OFFCURVE",
"743.421 195.41 OFFCURVE",
"728.791 165.565 CURVE SMOOTH",
"727.484 162.851 LINE",
"857.833 61.092 OFFCURVE",
"1021.82 0.417 OFFCURVE",
"1200 0.417 CURVE SMOOTH",
"1306.47 0.417 OFFCURVE",
"1407.88 22.08 OFFCURVE",
"1500.08 61.221 CURVE",
"1488.66 128.618 OFFCURVE",
"1443.98 364.038 OFFCURVE",
"1335.87 644.974 CURVE"
);
}
);
width = 2400;
}
);
unicode = E122;
},
{
glyphname = uniE123;
lastChange = "2014-02-01 21:52:16 -0800";
layers = (
{
layerId = "06D35582-4FA2-40C1-8C5B-DEFCD1A2473F";
name = Regular;
paths = (
{
closed = 1;
nodes = (
"352 1969 LINE SMOOTH",
"157.596 1969 OFFCURVE",
"0 1811.4 OFFCURVE",
"0 1617 CURVE SMOOTH",
"0 -79 LINE SMOOTH",
"0 -273 OFFCURVE",
"157.596 -431 OFFCURVE",
"352 -431 CURVE SMOOTH",
"2048 -431 LINE SMOOTH",
"2242.4 -431 OFFCURVE",
"2400 -273 OFFCURVE",
"2400 -79 CURVE SMOOTH",
"2400 1617 LINE SMOOTH",
"2400 1811.4 OFFCURVE",
"2242.4 1969 OFFCURVE",
"2048 1969 CURVE SMOOTH"
);
},
{
closed = 1;
nodes = (
"1697.05 1669 OFFCURVE",
"2100 1266.05 OFFCURVE",
"2100 769 CURVE SMOOTH",
"2100 271.942 OFFCURVE",
"1697.05 -131 OFFCURVE",
"1200 -131 CURVE SMOOTH",
"702.941 -131 OFFCURVE",
"299.996 271.942 OFFCURVE",
"299.996 769 CURVE SMOOTH",
"299.996 1266.05 OFFCURVE",
"702.941 1669 OFFCURVE",
"1200 1669 CURVE SMOOTH"
);
},
{
closed = 1;
nodes = (
"1137.57 1537.58 OFFCURVE",
"1076.91 1530.09 OFFCURVE",
"1018.8 1516.04 CURVE",
"1030.1 1501.12 OFFCURVE",
"1174.7 1309.18 OFFCURVE",
"1306.24 1067.51 CURVE",
"1597.82 1176.8 OFFCURVE",
"1706.97 1344.76 OFFCURVE",
"1707.73 1345.94 CURVE",
"1572.32 1465.21 OFFCURVE",
"1394.62 1537.58 OFFCURVE",
"1200 1537.58 CURVE SMOOTH"
);
},
{
closed = 1;
nodes = (
"657.672 1362.95 OFFCURVE",
"497.692 1165.47 OFFCURVE",
"447.803 927.474 CURVE",
"467.504 927.127 OFFCURVE",
"788.08 923.103 OFFCURVE",
"1157.55 1021.22 CURVE",
"1024.55 1257.65 OFFCURVE",
"882.342 1450.36 OFFCURVE",
"872.036 1464.25 CURVE"
);
},
{
closed = 1;
nodes = (
"1790.8 1253.19 OFFCURVE",
"1667.25 1076.29 OFFCURVE",
"1365.41 953.057 CURVE",
"1383.32 916.394 OFFCURVE",
"1400.49 879.107 OFFCURVE",
"1416.48 841.569 CURVE SMOOTH",
"1433.06 801.849 LINE",
"1697.64 835.121 OFFCURVE",
"1958.27 778.932 OFFCURVE",
"1968.47 776.696 CURVE",
"1966.68 959.105 OFFCURVE",
"1901.4 1126.32 OFFCURVE",
"1793.59 1257.24 CURVE"
);
},
{
closed = 1;
nodes = (
"822.739 783.623 OFFCURVE",
"440.499 793.141 OFFCURVE",
"431.829 793.373 CURVE",
"431.407 769.007 LINE SMOOTH",
"431.407 571.677 OFFCURVE",
"505.805 391.745 OFFCURVE",
"628.039 255.648 CURVE",
"629.935 258.96 LINE SMOOTH",
"649.971 293.069 OFFCURVE",
"859.247 635.737 OFFCURVE",
"1253.22 763.078 CURVE SMOOTH",
"1283.55 772.234 LINE",
"1264.23 815.959 OFFCURVE",
"1243.19 859.733 OFFCURVE",
"1221.15 902.857 CURVE"
);
},
{
closed = 1;
nodes = (
"1580.76 403.485 OFFCURVE",
"1621.69 177.895 OFFCURVE",
"1629.49 131.538 CURVE",
"1802.06 248.041 OFFCURVE",
"1924.73 432.78 OFFCURVE",
"1958.9 647.034 CURVE",
"1943.38 652.115 OFFCURVE",
"1728.25 720.283 OFFCURVE",
"1479.93 680.537 CURVE"
);
},
{
closed = 1;
nodes = (
"1330.8 643.263 LINE SMOOTH",
"898.163 492.501 OFFCURVE",
"743.421 195.41 OFFCURVE",
"728.791 165.565 CURVE SMOOTH",
"727.484 162.851 LINE",
"857.833 61.092 OFFCURVE",
"1021.82 0.417 OFFCURVE",
"1200 0.417 CURVE SMOOTH",
"1306.47 0.417 OFFCURVE",
"1407.88 22.08 OFFCURVE",
"1500.08 61.221 CURVE",
"1488.66 128.618 OFFCURVE",
"1443.98 364.038 OFFCURVE",
"1335.87 644.974 CURVE"
);
}
);
width = 2400;
}
);
unicode = E123;
},
{
glyphname = uniE124;
lastChange = "2014-02-01 21:52:16 -0800";
layers = (
{
layerId = "06D35582-4FA2-40C1-8C5B-DEFCD1A2473F";
name = Regular;
paths = (
{
closed = 1;
nodes = (
"836.742 1969 LINE SMOOTH",
"595.804 1969 OFFCURVE",
"475.34 1969 OFFCURVE",
"345.66 1928 CURVE",
"204.07 1876.46 OFFCURVE",
"92.539 1764.93 OFFCURVE",
"41.004 1623.34 CURVE",
"0 1493.66 OFFCURVE",
"0 1373.2 OFFCURVE",
"0 1132.26 CURVE SMOOTH",
"0 405.743 LINE SMOOTH",
"0 164.805 OFFCURVE",
"0 44.344 OFFCURVE",
"41.004 -85 CURVE",
"92.539 -227 OFFCURVE",
"204.07 -338 OFFCURVE",
"345.66 -390 CURVE",
"475.34 -431 OFFCURVE",
"595.804 -431 OFFCURVE",
"836.742 -431 CURVE SMOOTH",
"1563.26 -431 LINE SMOOTH",
"1804.2 -431 OFFCURVE",
"1924.66 -431 OFFCURVE",
"2054.34 -390 CURVE",
"2195.93 -338 OFFCURVE",
"2307.46 -227 OFFCURVE",
"2359 -85 CURVE",
"2400 44.344 OFFCURVE",
"2400 164.805 OFFCURVE",
"2400 405.743 CURVE SMOOTH",
"2400 1132.26 LINE SMOOTH",
"2400 1373.2 OFFCURVE",
"2400 1493.66 OFFCURVE",
"2359 1623.34 CURVE",
"2307.46 1764.93 OFFCURVE",
"2195.93 1876.46 OFFCURVE",
"2054.34 1928 CURVE",
"1924.66 1969 OFFCURVE",
"1804.2 1969 OFFCURVE",
"1563.26 1969 CURVE SMOOTH"
);
},
{
closed = 1;
nodes = (
"1697.05 1669 OFFCURVE",
"2100 1266.05 OFFCURVE",
"2100 769 CURVE SMOOTH",
"2100 271.942 OFFCURVE",
"1697.05 -131 OFFCURVE",
"1200 -131 CURVE SMOOTH",
"702.941 -131 OFFCURVE",
"299.996 271.942 OFFCURVE",
"299.996 769 CURVE SMOOTH",
"299.996 1266.05 OFFCURVE",
"702.941 1669 OFFCURVE",
"1200 1669 CURVE SMOOTH"
);
},
{
closed = 1;
nodes = (
"1137.57 1537.58 OFFCURVE",
"1076.91 1530.09 OFFCURVE",
"1018.8 1516.04 CURVE",
"1030.1 1501.12 OFFCURVE",
"1174.7 1309.18 OFFCURVE",
"1306.24 1067.51 CURVE",
"1597.82 1176.8 OFFCURVE",
"1706.97 1344.76 OFFCURVE",
"1707.73 1345.94 CURVE",
"1572.32 1465.21 OFFCURVE",
"1394.62 1537.58 OFFCURVE",
"1200 1537.58 CURVE SMOOTH"
);
},
{
closed = 1;
nodes = (
"657.672 1362.95 OFFCURVE",
"497.692 1165.47 OFFCURVE",
"447.803 927.474 CURVE",
"467.504 927.127 OFFCURVE",
"788.08 923.103 OFFCURVE",
"1157.55 1021.22 CURVE",
"1024.55 1257.65 OFFCURVE",
"882.342 1450.36 OFFCURVE",
"872.036 1464.25 CURVE"
);
},
{
closed = 1;
nodes = (
"1790.8 1253.19 OFFCURVE",
"1667.25 1076.29 OFFCURVE",
"1365.41 953.057 CURVE",
"1383.32 916.394 OFFCURVE",
"1400.49 879.107 OFFCURVE",
"1416.48 841.569 CURVE SMOOTH",
"1433.06 801.849 LINE",
"1697.64 835.121 OFFCURVE",
"1958.27 778.932 OFFCURVE",
"1968.47 776.696 CURVE",
"1966.68 959.105 OFFCURVE",
"1901.4 1126.32 OFFCURVE",
"1793.59 1257.24 CURVE"
);
},
{
closed = 1;
nodes = (
"822.739 783.623 OFFCURVE",
"440.499 793.141 OFFCURVE",
"431.829 793.373 CURVE",
"431.407 769.007 LINE SMOOTH",
"431.407 571.677 OFFCURVE",
"505.805 391.745 OFFCURVE",
"628.039 255.648 CURVE",
"629.935 258.96 LINE SMOOTH",
"649.971 293.069 OFFCURVE",
"859.247 635.737 OFFCURVE",
"1253.22 763.078 CURVE SMOOTH",
"1283.55 772.234 LINE",
"1264.23 815.959 OFFCURVE",
"1243.19 859.733 OFFCURVE",
"1221.15 902.857 CURVE"
);
},
{
closed = 1;
nodes = (
"1580.76 403.485 OFFCURVE",
"1621.69 177.895 OFFCURVE",
"1629.49 131.538 CURVE",
"1802.06 248.041 OFFCURVE",
"1924.73 432.78 OFFCURVE",
"1958.9 647.034 CURVE",
"1943.38 652.115 OFFCURVE",
"1728.25 720.283 OFFCURVE",
"1479.93 680.537 CURVE"
);
},
{
closed = 1;
nodes = (
"1330.8 643.263 LINE SMOOTH",
"898.163 492.501 OFFCURVE",
"743.421 195.41 OFFCURVE",
"728.791 165.565 CURVE SMOOTH",
"727.484 162.851 LINE",
"857.833 61.092 OFFCURVE",
"1021.82 0.417 OFFCURVE",
"1200 0.417 CURVE SMOOTH",
"1306.47 0.417 OFFCURVE",
"1407.88 22.08 OFFCURVE",
"1500.08 61.221 CURVE",
"1488.66 128.618 OFFCURVE",
"1443.98 364.038 OFFCURVE",
"1335.87 644.974 CURVE"
);
}
);
width = 2400;
}
);
unicode = E124;
},
{
glyphname = uniE125;
lastChange = "2014-02-01 21:52:16 -0800";
layers = (
{
layerId = "06D35582-4FA2-40C1-8C5B-DEFCD1A2473F";
name = Regular;
paths = (
{
closed = 1;
nodes = (
"537.252 1969 OFFCURVE",
"0 1431.75 OFFCURVE",
"0 769 CURVE SMOOTH",
"0 106.252 OFFCURVE",
"537.252 -431 OFFCURVE",
"1200 -431 CURVE SMOOTH",
"1862.75 -431 OFFCURVE",
"2400 106.252 OFFCURVE",
"2400 769 CURVE SMOOTH",
"2400 1431.75 OFFCURVE",
"1862.75 1969 OFFCURVE",
"1200 1969 CURVE SMOOTH"
);
},
{
closed = 1;
nodes = (
"1697.05 1669 OFFCURVE",
"2100 1266.05 OFFCURVE",
"2100 769 CURVE SMOOTH",
"2100 271.942 OFFCURVE",
"1697.05 -131 OFFCURVE",
"1200 -131 CURVE SMOOTH",
"702.941 -131 OFFCURVE",
"299.996 271.942 OFFCURVE",
"299.996 769 CURVE SMOOTH",
"299.996 1266.05 OFFCURVE",
"702.941 1669 OFFCURVE",
"1200 1669 CURVE SMOOTH"
);
},
{
closed = 1;
nodes = (
"1137.57 1537.58 OFFCURVE",
"1076.91 1530.09 OFFCURVE",
"1018.8 1516.04 CURVE",
"1030.1 1501.12 OFFCURVE",
"1174.7 1309.18 OFFCURVE",
"1306.24 1067.51 CURVE",
"1597.82 1176.8 OFFCURVE",
"1706.97 1344.76 OFFCURVE",
"1707.73 1345.94 CURVE",
"1572.32 1465.21 OFFCURVE",
"1394.62 1537.58 OFFCURVE",
"1200 1537.58 CURVE SMOOTH"
);
},
{
closed = 1;
nodes = (
"657.672 1362.95 OFFCURVE",
"497.692 1165.47 OFFCURVE",
"447.803 927.474 CURVE",
"467.504 927.127 OFFCURVE",
"788.08 923.103 OFFCURVE",
"1157.55 1021.22 CURVE",
"1024.55 1257.65 OFFCURVE",
"882.342 1450.36 OFFCURVE",
"872.036 1464.25 CURVE"
);
},
{
closed = 1;
nodes = (
"1790.8 1253.19 OFFCURVE",
"1667.25 1076.29 OFFCURVE",
"1365.41 953.057 CURVE",
"1383.32 916.394 OFFCURVE",
"1400.49 879.107 OFFCURVE",
"1416.48 841.569 CURVE SMOOTH",
"1433.06 801.849 LINE",
"1697.64 835.121 OFFCURVE",
"1958.27 778.932 OFFCURVE",
"1968.47 776.696 CURVE",
"1966.68 959.105 OFFCURVE",
"1901.4 1126.32 OFFCURVE",
"1793.59 1257.24 CURVE"
);
},
{
closed = 1;
nodes = (
"822.739 783.623 OFFCURVE",
"440.499 793.141 OFFCURVE",
"431.829 793.373 CURVE",
"431.407 769.007 LINE SMOOTH",
"431.407 571.677 OFFCURVE",
"505.805 391.745 OFFCURVE",
"628.039 255.648 CURVE",
"629.935 258.96 LINE SMOOTH",
"649.971 293.069 OFFCURVE",
"859.247 635.737 OFFCURVE",
"1253.22 763.078 CURVE SMOOTH",
"1283.55 772.234 LINE",
"1264.23 815.959 OFFCURVE",
"1243.19 859.733 OFFCURVE",
"1221.15 902.857 CURVE"
);
},
{
closed = 1;
nodes = (
"1580.76 403.485 OFFCURVE",
"1621.69 177.895 OFFCURVE",
"1629.49 131.538 CURVE",
"1802.06 248.041 OFFCURVE",
"1924.73 432.78 OFFCURVE",
"1958.9 647.034 CURVE",
"1943.38 652.115 OFFCURVE",
"1728.25 720.283 OFFCURVE",
"1479.93 680.537 CURVE"
);
},
{
closed = 1;
nodes = (
"1330.8 643.263 LINE SMOOTH",
"898.163 492.501 OFFCURVE",
"743.421 195.41 OFFCURVE",
"728.791 165.565 CURVE SMOOTH",
"727.484 162.851 LINE",
"857.833 61.092 OFFCURVE",
"1021.82 0.417 OFFCURVE",
"1200 0.417 CURVE SMOOTH",
"1306.47 0.417 OFFCURVE",
"1407.88 22.08 OFFCURVE",
"1500.08 61.221 CURVE",
"1488.66 128.618 OFFCURVE",
"1443.98 364.038 OFFCURVE",
"1335.87 644.974 CURVE"
);
}
);
width = 2400;
}
);
unicode = E125;
},
{
glyphname = uniE126;
lastChange = "2014-02-01 21:52:16 -0800";
layers = (
{
layerId = "06D35582-4FA2-40C1-8C5B-DEFCD1A2473F";
name = Regular;
paths = (
{
closed = 1;
nodes = (
"702.941 1669 OFFCURVE",
"299.996 1266.05 OFFCURVE",
"299.996 769 CURVE SMOOTH",
"299.996 271.942 OFFCURVE",
"702.941 -131 OFFCURVE",
"1200 -131 CURVE SMOOTH",
"1697.05 -131 OFFCURVE",
"2100 271.942 OFFCURVE",
"2100 769 CURVE SMOOTH",
"2100 1266.05 OFFCURVE",
"1697.05 1669 OFFCURVE",
"1200 1669 CURVE SMOOTH"
);
},
{
closed = 1;
nodes = (
"1394.62 1537.58 OFFCURVE",
"1572.32 1465.21 OFFCURVE",
"1707.73 1345.94 CURVE",
"1706.97 1344.76 OFFCURVE",
"1597.82 1176.8 OFFCURVE",
"1306.24 1067.51 CURVE",
"1174.7 1309.18 OFFCURVE",
"1030.1 1501.12 OFFCURVE",
"1018.8 1516.04 CURVE",
"1076.91 1530.09 OFFCURVE",
"1137.57 1537.58 OFFCURVE",
"1200 1537.58 CURVE SMOOTH"
);
},
{
closed = 1;
nodes = (
"882.342 1450.36 OFFCURVE",
"1024.55 1257.65 OFFCURVE",
"1157.55 1021.22 CURVE",
"788.08 923.103 OFFCURVE",
"467.504 927.127 OFFCURVE",
"447.803 927.474 CURVE",
"497.692 1165.47 OFFCURVE",
"657.672 1362.95 OFFCURVE",
"872.036 1464.25 CURVE"
);
},
{
closed = 1;
nodes = (
"1901.4 1126.32 OFFCURVE",
"1966.68 959.105 OFFCURVE",
"1968.47 776.696 CURVE",
"1958.27 778.932 OFFCURVE",
"1697.64 835.121 OFFCURVE",
"1433.06 801.849 CURVE",
"1416.48 841.569 LINE SMOOTH",
"1400.49 879.107 OFFCURVE",
"1383.32 916.394 OFFCURVE",
"1365.41 953.057 CURVE",
"1667.25 1076.29 OFFCURVE",
"1790.8 1253.19 OFFCURVE",
"1793.59 1257.24 CURVE"
);
},
{
closed = 1;
nodes = (
"1243.19 859.733 OFFCURVE",
"1264.23 815.959 OFFCURVE",
"1283.55 772.234 CURVE",
"1253.22 763.078 LINE SMOOTH",
"859.247 635.737 OFFCURVE",
"649.971 293.069 OFFCURVE",
"629.935 258.96 CURVE SMOOTH",
"628.039 255.648 LINE",
"505.805 391.745 OFFCURVE",
"431.407 571.677 OFFCURVE",
"431.407 769.007 CURVE SMOOTH",
"431.829 793.373 LINE",
"440.499 793.141 OFFCURVE",
"822.739 783.623 OFFCURVE",
"1221.15 902.857 CURVE"
);
},
{
closed = 1;
nodes = (
"1728.25 720.283 OFFCURVE",
"1943.38 652.115 OFFCURVE",
"1958.9 647.034 CURVE",
"1924.73 432.78 OFFCURVE",
"1802.06 248.041 OFFCURVE",
"1629.49 131.538 CURVE",
"1621.69 177.895 OFFCURVE",
"1580.76 403.485 OFFCURVE",
"1479.93 680.537 CURVE"
);
},
{
closed = 1;
nodes = (
"1335.87 644.974 LINE",
"1443.98 364.038 OFFCURVE",
"1488.66 128.618 OFFCURVE",
"1500.08 61.221 CURVE",
"1407.88 22.08 OFFCURVE",
"1306.47 0.417 OFFCURVE",
"1200 0.417 CURVE SMOOTH",
"1021.82 0.417 OFFCURVE",
"857.833 61.092 OFFCURVE",
"727.484 162.851 CURVE",
"728.791 165.565 LINE SMOOTH",
"743.421 195.41 OFFCURVE",
"898.163 492.501 OFFCURVE",
"1330.8 643.263 CURVE SMOOTH"
);
}
);
width = 2400;
}
);
unicode = E126;
},
{
glyphname = uniE127;
lastChange = "2014-02-01 21:52:16 -0800";
layers = (
{
layerId = "06D35582-4FA2-40C1-8C5B-DEFCD1A2473F";
name = Regular;
paths = (
{
closed = 1;
nodes = (
"2096 274.153 OFFCURVE",
"1694.84 -127 OFFCURVE",
"1200 -127 CURVE SMOOTH",
"705.155 -127 OFFCURVE",
"304 274.153 OFFCURVE",
"304 769 CURVE SMOOTH",
"304 1263.84 OFFCURVE",
"705.155 1665 OFFCURVE",
"1200 1665 CURVE SMOOTH",
"1694.84 1665 OFFCURVE",
"2096 1263.84 OFFCURVE",
"2096 769 CURVE SMOOTH"
);
}
);
width = 2400;
}
);
unicode = E127;
},
{
glyphname = uniE128;
lastChange = "2014-02-01 21:52:16 -0800";
layers = (
{
layerId = "06D35582-4FA2-40C1-8C5B-DEFCD1A2473F";
name = Regular;
paths = (
{
closed = 1;
nodes = (
"1059.18 1544.28 LINE",
"1059.18 1544.28 OFFCURVE",
"1025.23 1537.35 OFFCURVE",
"1014.29 1534.71 CURVE SMOOTH",
"985.801 1527.82 LINE",
"1003.49 1504.45 LINE SMOOTH",
"1010.6 1495.08 OFFCURVE",
"1033.26 1464.82 OFFCURVE",
"1065.31 1418.99 CURVE",
"808.39 1378.27 OFFCURVE",
"618.377 1233.34 OFFCURVE",
"618.377 1060.8 CURVE SMOOTH",
"618.377 973.161 OFFCURVE",
"667.402 892.646 OFFCURVE",
"749.318 829.292 CURVE",
"612.571 814.371 OFFCURVE",
"506.295 812.308 OFFCURVE",
"458.517 812.308 CURVE SMOOTH",
"432.348 812.568 LINE",
"413.24 813.081 LINE",
"412.42 744.66 LINE",
"458.47 743.912 LINE SMOOTH",
"516.998 743.912 OFFCURVE",
"661.119 746.934 OFFCURVE",
"841.945 771.866 CURVE",
"943.518 721.383 OFFCURVE",
"1072.29 691.197 OFFCURVE",
"1212.4 691.197 CURVE SMOOTH",
"1294.78 691.197 OFFCURVE",
"1373.25 701.636 OFFCURVE",
"1444.57 720.497 CURVE",
"1453.98 695.533 LINE",
"1409.23 687.231 OFFCURVE",
"1365.98 675.854 OFFCURVE",
"1324.48 661.394 CURVE SMOOTH",
"1085.33 578.055 OFFCURVE",
"931.33 449.718 OFFCURVE",
"844.255 356.734 CURVE SMOOTH",
"749.391 255.433 OFFCURVE",
"711.714 174.491 OFFCURVE",
"710.156 171.096 CURVE SMOOTH",
"707.337 164.95 LINE",
"707.667 157.335 LINE",
"719.86 144.489 LINE",
"727.942 138.185 OFFCURVE",
"759.79 115.228 OFFCURVE",
"759.79 115.228 CURVE",
"772.302 142.527 LINE SMOOTH",
"772.658 143.291 OFFCURVE",
"808.914 219.893 OFFCURVE",
"898.923 314.639 CURVE SMOOTH",
"980.566 400.581 OFFCURVE",
"1124.58 519.297 OFFCURVE",
"1346.99 596.8 CURVE SMOOTH",
"1388.6 611.301 OFFCURVE",
"1432.21 622.429 OFFCURVE",
"1477.51 630.229 CURVE",
"1566.03 376.3 OFFCURVE",
"1602.86 174.14 OFFCURVE",
"1610.56 128.354 CURVE SMOOTH",
"1615.51 98.929 LINE",
"1677.58 142.375 LINE",
"1675.47 154.122 LINE SMOOTH",
"1663.98 217.949 OFFCURVE",
"1626.2 407.401 OFFCURVE",
"1546.57 639.407 CURVE",
"1577.02 642.275 OFFCURVE",
"1608.12 643.743 OFFCURVE",
"1639.82 643.743 CURVE SMOOTH",
"1811.26 643.743 OFFCURVE",
"1942.79 600.55 OFFCURVE",
"1944.04 600.135 CURVE SMOOTH",
"1968.09 591.988 LINE",
"1980.45 660.182 LINE",
"1964.88 665.279 LINE SMOOTH",
"1950.23 670.077 OFFCURVE",
"1816.66 712.143 OFFCURVE",
"1639.82 712.143 CURVE SMOOTH",
"1600.03 712.143 OFFCURVE",
"1561.08 709.968 OFFCURVE",
"1523.05 705.726 CURVE",
"1509.96 740.85 LINE",
"1687.2 804.806 OFFCURVE",
"1806.41 924.139 OFFCURVE",
"1806.41 1060.8 CURVE SMOOTH",
"1806.41 1097.73 OFFCURVE",
"1797.7 1133.4 OFFCURVE",
"1781.49 1167.05 CURVE",
"1804.94 1191.51 OFFCURVE",
"1820.23 1210.59 OFFCURVE",
"1828.23 1221.22 CURVE SMOOTH",
"1836.95 1232.81 LINE",
"1828.19 1244.37 LINE",
"1808.42 1269.44 LINE",
"1792.27 1289.07 LINE",
"1777.81 1268.16 LINE SMOOTH",
"1776.99 1266.97 OFFCURVE",
"1766.04 1251.31 OFFCURVE",
"1743.39 1226.65 CURVE",
"1645.71 1347.49 OFFCURVE",
"1444.62 1430.41 OFFCURVE",
"1212.4 1430.41 CURVE SMOOTH",
"1188.74 1430.41 OFFCURVE",
"1165.4 1429.55 OFFCURVE",
"1142.46 1427.87 CURVE",
"1109.35 1476.11 OFFCURVE",
"1082.54 1512.89 OFFCURVE",
"1066.41 1534.57 CURVE SMOOTH"
);
}
);
width = 2400;
}
);
unicode = E128;
},
{
glyphname = uniE129;
lastChange = "2014-02-01 21:52:16 -0800";
layers = (
{
layerId = "06D35582-4FA2-40C1-8C5B-DEFCD1A2473F";
name = Regular;
paths = (
{
closed = 1;
nodes = (
"2048 -410 OFFCURVE",
"1689.83 -464 OFFCURVE",
"1248 -464 CURVE SMOOTH",
"806.172 -464 OFFCURVE",
"448 -410 OFFCURVE",
"448 -344 CURVE SMOOTH",
"448 -278 OFFCURVE",
"806.172 -224 OFFCURVE",
"1248 -224 CURVE SMOOTH",
"1689.83 -224 OFFCURVE",
"2048 -278 OFFCURVE",
"2048 -344 CURVE SMOOTH"
);
}
);
width = 2400;
}
);
unicode = E129;
},
{
glyphname = uniE151;
lastChange = "2014-02-01 21:50:37 -0800";
layers = (
{
layerId = "06D35582-4FA2-40C1-8C5B-DEFCD1A2473F";
name = Regular;
paths = (
{
closed = 1;
nodes = (
"536.34 393 OFFCURVE",
"368 561.34 OFFCURVE",
"368 769 CURVE SMOOTH",
"368 976.661 OFFCURVE",
"536.34 1145 OFFCURVE",
"744 1145 CURVE SMOOTH",
"951.66 1145 OFFCURVE",
"1120 976.661 OFFCURVE",
"1120 769 CURVE SMOOTH",
"1120 561.34 OFFCURVE",
"951.66 393 OFFCURVE",
"744 393 CURVE SMOOTH"
);
},
{
closed = 1;
nodes = (
"1448.34 393 OFFCURVE",
"1280 561.342 OFFCURVE",
"1280 769 CURVE SMOOTH",
"1280 976.662 OFFCURVE",
"1448.34 1145 OFFCURVE",
"1656 1145 CURVE SMOOTH",
"1863.66 1145 OFFCURVE",
"2032 976.662 OFFCURVE",
"2032 769 CURVE SMOOTH",
"2032 561.342 OFFCURVE",
"1863.66 393 OFFCURVE",
"1656 393 CURVE SMOOTH"
);
},
{
closed = 1;
nodes = (
"0 -431 LINE",
"2400 -431 LINE",
"2400 1969 LINE",
"0 1969 LINE"
);
}
);
width = 2400;
}
);
unicode = E151;
},
{
glyphname = uniE152;
lastChange = "2014-02-01 21:50:37 -0800";
layers = (
{
layerId = "06D35582-4FA2-40C1-8C5B-DEFCD1A2473F";
name = Regular;
paths = (
{
closed = 1;
nodes = (
"256 1969 LINE SMOOTH",
"114.615 1969 OFFCURVE",
"0 1854.39 OFFCURVE",
"0 1713 CURVE SMOOTH",
"0 -175 LINE SMOOTH",
"0 -316 OFFCURVE",
"114.615 -431 OFFCURVE",
"256 -431 CURVE SMOOTH",
"2144 -431 LINE SMOOTH",
"2285.38 -431 OFFCURVE",
"2400 -316 OFFCURVE",
"2400 -175 CURVE SMOOTH",
"2400 1713 LINE SMOOTH",
"2400 1854.39 OFFCURVE",
"2285.38 1969 OFFCURVE",
"2144 1969 CURVE SMOOTH"
);
},
{
closed = 1;
nodes = (
"951.66 1145 OFFCURVE",
"1120 976.661 OFFCURVE",
"1120 769 CURVE SMOOTH",
"1120 561.34 OFFCURVE",
"951.66 393 OFFCURVE",
"744 393 CURVE SMOOTH",
"536.34 393 OFFCURVE",
"368 561.34 OFFCURVE",
"368 769 CURVE SMOOTH",
"368 976.661 OFFCURVE",
"536.34 1145 OFFCURVE",
"744 1145 CURVE SMOOTH"
);
},
{
closed = 1;
nodes = (
"1863.66 1145 OFFCURVE",
"2032 976.662 OFFCURVE",
"2032 769 CURVE SMOOTH",
"2032 561.342 OFFCURVE",
"1863.66 393 OFFCURVE",
"1656 393 CURVE SMOOTH",
"1448.34 393 OFFCURVE",
"1280 561.342 OFFCURVE",
"1280 769 CURVE SMOOTH",
"1280 976.662 OFFCURVE",
"1448.34 1145 OFFCURVE",
"1656 1145 CURVE SMOOTH"
);
}
);
width = 2400;
}
);
unicode = E152;
},
{
glyphname = uniE153;
lastChange = "2014-02-01 21:50:37 -0800";
layers = (
{
layerId = "06D35582-4FA2-40C1-8C5B-DEFCD1A2473F";
name = Regular;
paths = (
{
closed = 1;
nodes = (
"352 1969 LINE SMOOTH",
"157.596 1969 OFFCURVE",
"0 1811.4 OFFCURVE",
"0 1617 CURVE SMOOTH",
"0 -79 LINE SMOOTH",
"0 -273 OFFCURVE",
"157.596 -431 OFFCURVE",
"352 -431 CURVE SMOOTH",
"2048 -431 LINE SMOOTH",
"2242.4 -431 OFFCURVE",
"2400 -273 OFFCURVE",
"2400 -79 CURVE SMOOTH",
"2400 1617 LINE SMOOTH",
"2400 1811.4 OFFCURVE",
"2242.4 1969 OFFCURVE",
"2048 1969 CURVE SMOOTH"
);
},
{
closed = 1;
nodes = (
"951.66 1145 OFFCURVE",
"1120 976.661 OFFCURVE",
"1120 769 CURVE SMOOTH",
"1120 561.34 OFFCURVE",
"951.66 393 OFFCURVE",
"744 393 CURVE SMOOTH",
"536.34 393 OFFCURVE",
"368 561.34 OFFCURVE",
"368 769 CURVE SMOOTH",
"368 976.661 OFFCURVE",
"536.34 1145 OFFCURVE",
"744 1145 CURVE SMOOTH"
);
},
{
closed = 1;
nodes = (
"1863.66 1145 OFFCURVE",
"2032 976.662 OFFCURVE",
"2032 769 CURVE SMOOTH",
"2032 561.342 OFFCURVE",
"1863.66 393 OFFCURVE",
"1656 393 CURVE SMOOTH",
"1448.34 393 OFFCURVE",
"1280 561.342 OFFCURVE",
"1280 769 CURVE SMOOTH",
"1280 976.662 OFFCURVE",
"1448.34 1145 OFFCURVE",
"1656 1145 CURVE SMOOTH"
);
}
);
width = 2400;
}
);
unicode = E153;
},
{
glyphname = uniE154;
lastChange = "2014-02-01 21:50:37 -0800";
layers = (
{
layerId = "06D35582-4FA2-40C1-8C5B-DEFCD1A2473F";
name = Regular;
paths = (
{
closed = 1;
nodes = (
"836.742 1969 LINE SMOOTH",
"595.804 1969 OFFCURVE",
"475.34 1969 OFFCURVE",
"345.66 1928 CURVE",
"204.07 1876.46 OFFCURVE",
"92.539 1764.93 OFFCURVE",
"41.004 1623.34 CURVE",
"0 1493.66 OFFCURVE",
"0 1373.2 OFFCURVE",
"0 1132.26 CURVE SMOOTH",
"0 405.743 LINE SMOOTH",
"0 164.805 OFFCURVE",
"0 44.344 OFFCURVE",
"41.004 -85 CURVE",
"92.539 -227 OFFCURVE",
"204.07 -338 OFFCURVE",
"345.66 -390 CURVE",
"475.34 -431 OFFCURVE",
"595.804 -431 OFFCURVE",
"836.742 -431 CURVE SMOOTH",
"1563.26 -431 LINE SMOOTH",
"1804.2 -431 OFFCURVE",
"1924.66 -431 OFFCURVE",
"2054.34 -390 CURVE",
"2195.93 -338 OFFCURVE",
"2307.46 -227 OFFCURVE",
"2359 -85 CURVE",
"2400 44.344 OFFCURVE",
"2400 164.805 OFFCURVE",
"2400 405.743 CURVE SMOOTH",
"2400 1132.26 LINE SMOOTH",
"2400 1373.2 OFFCURVE",
"2400 1493.66 OFFCURVE",
"2359 1623.34 CURVE",
"2307.46 1764.93 OFFCURVE",
"2195.93 1876.46 OFFCURVE",
"2054.34 1928 CURVE",
"1924.66 1969 OFFCURVE",
"1804.2 1969 OFFCURVE",
"1563.26 1969 CURVE SMOOTH"
);
},
{
closed = 1;
nodes = (
"951.66 1145 OFFCURVE",
"1120 976.661 OFFCURVE",
"1120 769 CURVE SMOOTH",
"1120 561.34 OFFCURVE",
"951.66 393 OFFCURVE",
"744 393 CURVE SMOOTH",
"536.34 393 OFFCURVE",
"368 561.34 OFFCURVE",
"368 769 CURVE SMOOTH",
"368 976.661 OFFCURVE",
"536.34 1145 OFFCURVE",
"744 1145 CURVE SMOOTH"
);
},
{
closed = 1;
nodes = (
"1863.66 1145 OFFCURVE",
"2032 976.662 OFFCURVE",
"2032 769 CURVE SMOOTH",
"2032 561.342 OFFCURVE",
"1863.66 393 OFFCURVE",
"1656 393 CURVE SMOOTH",
"1448.34 393 OFFCURVE",
"1280 561.342 OFFCURVE",
"1280 769 CURVE SMOOTH",
"1280 976.662 OFFCURVE",
"1448.34 1145 OFFCURVE",
"1656 1145 CURVE SMOOTH"
);
}
);
width = 2400;
}
);
unicode = E154;
},
{
glyphname = uniE155;
lastChange = "2014-02-01 21:50:37 -0800";
layers = (
{
layerId = "06D35582-4FA2-40C1-8C5B-DEFCD1A2473F";
name = Regular;
paths = (
{
closed = 1;
nodes = (
"537.252 1969 OFFCURVE",
"0 1431.75 OFFCURVE",
"0 769 CURVE SMOOTH",
"0 106.252 OFFCURVE",
"537.252 -431 OFFCURVE",
"1200 -431 CURVE SMOOTH",
"1862.75 -431 OFFCURVE",
"2400 106.252 OFFCURVE",
"2400 769 CURVE SMOOTH",
"2400 1431.75 OFFCURVE",
"1862.75 1969 OFFCURVE",
"1200 1969 CURVE SMOOTH"
);
},
{
closed = 1;
nodes = (
"951.66 1145 OFFCURVE",
"1120 976.661 OFFCURVE",
"1120 769 CURVE SMOOTH",
"1120 561.34 OFFCURVE",
"951.66 393 OFFCURVE",
"744 393 CURVE SMOOTH",
"536.34 393 OFFCURVE",
"368 561.34 OFFCURVE",
"368 769 CURVE SMOOTH",
"368 976.661 OFFCURVE",
"536.34 1145 OFFCURVE",
"744 1145 CURVE SMOOTH"
);
},
{
closed = 1;
nodes = (
"1863.66 1145 OFFCURVE",
"2032 976.662 OFFCURVE",
"2032 769 CURVE SMOOTH",
"2032 561.342 OFFCURVE",
"1863.66 393 OFFCURVE",
"1656 393 CURVE SMOOTH",
"1448.34 393 OFFCURVE",
"1280 561.342 OFFCURVE",
"1280 769 CURVE SMOOTH",
"1280 976.662 OFFCURVE",
"1448.34 1145 OFFCURVE",
"1656 1145 CURVE SMOOTH"
);
}
);
width = 2400;
}
);
unicode = E155;
},
{
glyphname = uniE156;
lastChange = "2014-02-01 21:50:37 -0800";
layers = (
{
layerId = "06D35582-4FA2-40C1-8C5B-DEFCD1A2473F";
name = Regular;
paths = (
{
closed = 1;
nodes = (
"536.34 1145 OFFCURVE",
"368 976.661 OFFCURVE",
"368 769 CURVE SMOOTH",
"368 561.34 OFFCURVE",
"536.34 393 OFFCURVE",
"744 393 CURVE SMOOTH",
"951.66 393 OFFCURVE",
"1120 561.34 OFFCURVE",
"1120 769 CURVE SMOOTH",
"1120 976.661 OFFCURVE",
"951.66 1145 OFFCURVE",
"744 1145 CURVE SMOOTH"
);
},
{
closed = 1;
nodes = (
"1448.34 1145 OFFCURVE",
"1280 976.662 OFFCURVE",
"1280 769 CURVE SMOOTH",
"1280 561.342 OFFCURVE",
"1448.34 393 OFFCURVE",
"1656 393 CURVE SMOOTH",
"1863.66 393 OFFCURVE",
"2032 561.342 OFFCURVE",
"2032 769 CURVE SMOOTH",
"2032 976.662 OFFCURVE",
"1863.66 1145 OFFCURVE",
"1656 1145 CURVE SMOOTH"
);
}
);
width = 2400;
}
);
unicode = E156;
},
{
glyphname = uniE157;
lastChange = "2014-02-01 21:50:37 -0800";
layers = (
{
layerId = "06D35582-4FA2-40C1-8C5B-DEFCD1A2473F";
name = Regular;
paths = (
{
closed = 1;
nodes = (
"536.34 1145 OFFCURVE",
"368 976.661 OFFCURVE",
"368 769 CURVE SMOOTH",
"368 561.34 OFFCURVE",
"536.34 393 OFFCURVE",
"744 393 CURVE SMOOTH",
"951.66 393 OFFCURVE",
"1120 561.34 OFFCURVE",
"1120 769 CURVE SMOOTH",
"1120 976.661 OFFCURVE",
"951.66 1145 OFFCURVE",
"744 1145 CURVE SMOOTH"
);
}
);
width = 2400;
}
);
unicode = E157;
},
{
glyphname = uniE158;
lastChange = "2014-02-01 21:50:37 -0800";
layers = (
{
layerId = "06D35582-4FA2-40C1-8C5B-DEFCD1A2473F";
name = Regular;
paths = (
{
closed = 1;
nodes = (
"1448.34 1145 OFFCURVE",
"1280 976.662 OFFCURVE",
"1280 769 CURVE SMOOTH",
"1280 561.342 OFFCURVE",
"1448.34 393 OFFCURVE",
"1656 393 CURVE SMOOTH",
"1863.66 393 OFFCURVE",
"2032 561.342 OFFCURVE",
"2032 769 CURVE SMOOTH",
"2032 976.662 OFFCURVE",
"1863.66 1145 OFFCURVE",
"1656 1145 CURVE SMOOTH"
);
}
);
width = 2400;
}
);
unicode = E158;
},
{
glyphname = uniE173;
lastChange = "2014-01-21 20:32:05 -0800";
layers = (
{
layerId = "06D35582-4FA2-40C1-8C5B-DEFCD1A2473F";
name = Regular;
paths = (
{
closed = 1;
nodes = (
"1007.53 1111.28 OFFCURVE",
"832.997 1160.94 OFFCURVE",
"729.856 1067.14 CURVE SMOOTH",
"668.039 1010.86 OFFCURVE",
"631.94 943.041 OFFCURVE",
"631.94 870.005 CURVE SMOOTH",
"631.94 564.903 OFFCURVE",
"888.721 517.391 OFFCURVE",
"1205.54 517.391 CURVE SMOOTH",
"1522.32 517.391 OFFCURVE",
"1779.13 526.669 OFFCURVE",
"1779.12 869.999 CURVE",
"1779.12 943.526 OFFCURVE",
"1742.5 1011.77 OFFCURVE",
"1679.87 1068.33 CURVE SMOOTH",
"1576.61 1161.48 OFFCURVE",
"1402.65 1111.3 OFFCURVE",
"1205.53 1111.28 CURVE SMOOTH"
);
}
);
width = 2400;
}
);
unicode = E173;
},
{
glyphname = uniE174;
lastChange = "2014-01-21 06:43:10 -0800";
layers = (
{
layerId = "06D35582-4FA2-40C1-8C5B-DEFCD1A2473F";
name = Regular;
paths = (
{
closed = 1;
nodes = (
"1007.53 1111.28 OFFCURVE",
"832.997 1160.94 OFFCURVE",
"729.856 1067.14 CURVE SMOOTH",
"668.039 1010.86 OFFCURVE",
"631.94 943.041 OFFCURVE",
"631.94 870.005 CURVE SMOOTH",
"631.94 564.903 OFFCURVE",
"888.721 517.391 OFFCURVE",
"1205.54 517.391 CURVE SMOOTH",
"1522.32 517.391 OFFCURVE",
"1779.13 526.669 OFFCURVE",
"1779.12 869.999 CURVE SMOOTH",
"1779.12 943.526 OFFCURVE",
"1742.5 1011.77 OFFCURVE",
"1679.87 1068.33 CURVE SMOOTH",
"1576.61 1161.48 OFFCURVE",
"1402.65 1111.3 OFFCURVE",
"1205.53 1111.28 CURVE SMOOTH"
);
},
{
closed = 1;
nodes = (
"959.966 1023.15 OFFCURVE",
"1013.4 946.593 OFFCURVE",
"1013.4 852.049 CURVE SMOOTH",
"1013.4 757.482 OFFCURVE",
"959.97 680.835 OFFCURVE",
"894.06 680.835 CURVE SMOOTH",
"828.153 680.835 OFFCURVE",
"774.712 757.482 OFFCURVE",
"774.712 852.049 CURVE SMOOTH",
"774.712 946.593 OFFCURVE",
"828.145 1023.22 OFFCURVE",
"894.06 1023.22 CURVE SMOOTH"
);
},
{
closed = 1;
nodes = (
"1597.04 1023.15 OFFCURVE",
"1650.48 946.593 OFFCURVE",
"1650.48 852.049 CURVE SMOOTH",
"1650.48 757.482 OFFCURVE",
"1597.04 680.835 OFFCURVE",
"1531.13 680.835 CURVE SMOOTH",
"1465.22 680.835 OFFCURVE",
"1411.79 757.482 OFFCURVE",
"1411.79 852.049 CURVE SMOOTH",
"1411.79 946.593 OFFCURVE",
"1465.22 1023.22 OFFCURVE",
"1531.13 1023.22 CURVE SMOOTH"
);
}
);
width = 2400;
}
);
unicode = E174;
},
{
glyphname = uniE175;
lastChange = "2014-01-21 06:43:10 -0800";
layers = (
{
layerId = "06D35582-4FA2-40C1-8C5B-DEFCD1A2473F";
name = Regular;
paths = (
{
closed = 1;
nodes = (
"851.145 964.979 OFFCURVE",
"816.546 914.316 OFFCURVE",
"816.546 851.822 CURVE SMOOTH",
"816.546 789.323 OFFCURVE",
"851.145 738.662 OFFCURVE",
"893.825 738.662 CURVE SMOOTH",
"936.506 738.662 OFFCURVE",
"971.103 789.323 OFFCURVE",
"971.103 851.822 CURVE SMOOTH",
"971.103 914.316 OFFCURVE",
"936.506 964.979 OFFCURVE",
"893.825 964.979 CURVE SMOOTH"
);
},
{
closed = 1;
nodes = (
"1488.69 964.978 OFFCURVE",
"1454.09 914.315 OFFCURVE",
"1454.09 851.821 CURVE SMOOTH",
"1454.09 789.322 OFFCURVE",
"1488.69 738.661 OFFCURVE",
"1531.37 738.661 CURVE SMOOTH",
"1574.05 738.661 OFFCURVE",
"1608.66 789.322 OFFCURVE",
"1608.66 851.821 CURVE SMOOTH",
"1608.66 914.315 OFFCURVE",
"1574.05 964.978 OFFCURVE",
"1531.37 964.978 CURVE SMOOTH"
);
},
{
closed = 1;
nodes = (
"1186.72 744.34 OFFCURVE",
"1169.08 726.708 OFFCURVE",
"1169.08 706.044 CURVE SMOOTH",
"1169.08 685.385 OFFCURVE",
"1186.72 667.748 OFFCURVE",
"1207.38 667.748 CURVE SMOOTH",
"1228.04 667.748 OFFCURVE",
"1245.68 685.385 OFFCURVE",
"1245.68 706.044 CURVE SMOOTH",
"1245.68 726.708 OFFCURVE",
"1228.04 744.34 OFFCURVE",
"1207.38 744.34 CURVE SMOOTH"
);
},
{
closed = 1;
nodes = (
"1135.77 637.933 OFFCURVE",
"1130.29 629.184 OFFCURVE",
"1131.66 621.289 CURVE SMOOTH",
"1134.35 605.983 OFFCURVE",
"1157.58 563.188 OFFCURVE",
"1207.49 563.188 CURVE SMOOTH",
"1249.16 563.188 OFFCURVE",
"1278.25 603.746 OFFCURVE",
"1282.75 619.687 CURVE SMOOTH",
"1284.89 627.372 OFFCURVE",
"1280.33 636.669 OFFCURVE",
"1273.03 639.075 CURVE SMOOTH",
"1265.64 641.517 OFFCURVE",
"1256.81 636.392 OFFCURVE",
"1254.63 628.626 CURVE SMOOTH",
"1252.68 621.673 OFFCURVE",
"1233.42 594.421 OFFCURVE",
"1207.49 594.421 CURVE SMOOTH",
"1173.8 594.421 OFFCURVE",
"1161.23 622.788 OFFCURVE",
"1160.51 627.029 CURVE SMOOTH",
"1159.11 634.979 OFFCURVE",
"1150.88 641.037 OFFCURVE",
"1143.29 639.495 CURVE SMOOTH"
);
}
);
width = 2400;
}
);
unicode = E175;
},
{
glyphname = uniE176;
lastChange = "2014-01-21 06:43:10 -0800";
layers = (
{
layerId = "06D35582-4FA2-40C1-8C5B-DEFCD1A2473F";
name = Regular;
paths = (
{
closed = 1;
nodes = (
"786.408 251.417 OFFCURVE",
"777.302 258.098 OFFCURVE",
"777.302 266.329 CURVE SMOOTH",
"777.302 274.568 OFFCURVE",
"786.408 281.248 OFFCURVE",
"797.642 281.248 CURVE SMOOTH",
"808.878 281.248 OFFCURVE",
"817.982 274.568 OFFCURVE",
"817.982 266.329 CURVE SMOOTH",
"817.982 258.098 OFFCURVE",
"808.878 251.417 OFFCURVE",
"797.642 251.417 CURVE SMOOTH"
);
},
{
closed = 1;
nodes = (
"718.607 254.132 OFFCURVE",
"709.503 260.806 OFFCURVE",
"709.503 269.043 CURVE SMOOTH",
"709.503 277.281 OFFCURVE",
"718.607 283.961 OFFCURVE",
"729.844 283.961 CURVE SMOOTH",
"741.076 283.961 OFFCURVE",
"750.181 277.281 OFFCURVE",
"750.181 269.043 CURVE SMOOTH",
"750.181 260.806 OFFCURVE",
"741.076 254.132 OFFCURVE",
"729.844 254.132 CURVE SMOOTH"
);
},
{
closed = 1;
nodes = (
"851.497 262.266 OFFCURVE",
"842.39 268.944 OFFCURVE",
"842.39 277.18 CURVE SMOOTH",
"842.39 285.417 OFFCURVE",
"851.497 292.095 OFFCURVE",
"862.731 292.095 CURVE SMOOTH",
"873.963 292.095 OFFCURVE",
"883.069 285.417 OFFCURVE",
"883.069 277.18 CURVE SMOOTH",
"883.069 268.944 OFFCURVE",
"873.963 262.266 OFFCURVE",
"862.731 262.266 CURVE SMOOTH"
);
},
{
closed = 1;
nodes = (
"653.521 278.535 OFFCURVE",
"644.415 285.215 OFFCURVE",
"644.415 293.452 CURVE SMOOTH",
"644.415 301.689 OFFCURVE",
"653.521 308.371 OFFCURVE",
"664.755 308.371 CURVE SMOOTH",
"675.989 308.371 OFFCURVE",
"685.095 301.689 OFFCURVE",
"685.095 293.452 CURVE SMOOTH",
"685.095 285.215 OFFCURVE",
"675.989 278.535 OFFCURVE",
"664.755 278.535 CURVE SMOOTH"
);
},
{
closed = 1;
nodes = (
"604.705 319.216 OFFCURVE",
"595.598 325.895 OFFCURVE",
"595.598 334.132 CURVE SMOOTH",
"595.598 342.368 OFFCURVE",
"604.705 349.047 OFFCURVE",
"615.939 349.047 CURVE SMOOTH",
"627.171 349.047 OFFCURVE",
"636.278 342.368 OFFCURVE",
"636.278 334.132 CURVE SMOOTH",
"636.278 325.895 OFFCURVE",
"627.171 319.216 OFFCURVE",
"615.939 319.216 CURVE SMOOTH"
);
},
{
closed = 1;
nodes = (
"560.345 385.761 OFFCURVE",
"569.45 392.44 OFFCURVE",
"580.682 392.44 CURVE SMOOTH",
"591.915 392.44 OFFCURVE",
"601.023 385.761 OFFCURVE",
"601.023 377.524 CURVE SMOOTH",
"601.023 369.289 OFFCURVE",
"591.915 362.61 OFFCURVE",
"580.682 362.61 CURVE SMOOTH",
"569.45 362.61 OFFCURVE",
"560.345 369.289 OFFCURVE",
"560.345 377.524 CURVE SMOOTH"
);
},
{
closed = 1;
nodes = (
"530.51 431.867 OFFCURVE",
"539.618 438.543 OFFCURVE",
"550.85 438.543 CURVE SMOOTH",
"562.085 438.543 OFFCURVE",
"571.191 431.867 OFFCURVE",
"571.191 423.627 CURVE SMOOTH",
"571.191 415.395 OFFCURVE",
"562.085 408.713 OFFCURVE",
"550.85 408.713 CURVE SMOOTH",
"539.618 408.713 OFFCURVE",
"530.51 415.395 OFFCURVE",
"530.51 423.627 CURVE SMOOTH"
);
},
{
closed = 1;
nodes = (
"501.649 449.392 OFFCURVE",
"492.544 456.072 OFFCURVE",
"492.544 464.31 CURVE SMOOTH",
"492.544 472.546 OFFCURVE",
"501.649 479.224 OFFCURVE",
"512.88 479.224 CURVE SMOOTH",
"524.117 479.224 OFFCURVE",
"533.223 472.546 OFFCURVE",
"533.223 464.31 CURVE SMOOTH",
"533.223 456.072 OFFCURVE",
"524.117 449.392 OFFCURVE",
"512.88 449.392 CURVE SMOOTH"
);
},
{
closed = 1;
nodes = (
"450.121 479.224 OFFCURVE",
"441.014 485.905 OFFCURVE",
"441.014 494.139 CURVE SMOOTH",
"441.014 502.376 OFFCURVE",
"450.121 509.057 OFFCURVE",
"461.355 509.057 CURVE SMOOTH",
"472.588 509.057 OFFCURVE",
"481.694 502.376 OFFCURVE",
"481.694 494.139 CURVE SMOOTH",
"481.694 485.905 OFFCURVE",
"472.588 479.224 OFFCURVE",
"461.355 479.224 CURVE SMOOTH"
);
},
{
closed = 1;
nodes = (
"538.333 404.434 OFFCURVE",
"526.537 413.086 OFFCURVE",
"526.537 423.352 CURVE SMOOTH",
"526.537 433.615 OFFCURVE",
"538.333 442.266 OFFCURVE",
"550.874 442.266 CURVE SMOOTH",
"563.421 442.266 OFFCURVE",
"575.217 433.615 OFFCURVE",
"575.217 423.352 CURVE SMOOTH",
"575.217 413.086 OFFCURVE",
"563.421 404.434 OFFCURVE",
"550.874 404.434 CURVE SMOOTH"
);
},
{
closed = 1;
nodes = (
"371.482 388.128 OFFCURVE",
"374.57 384.144 OFFCURVE",
"375.525 371.328 CURVE SMOOTH",
"376.717 355.344 OFFCURVE",
"390.643 341.276 OFFCURVE",
"406.866 341.276 CURVE SMOOTH",
"423.09 341.276 OFFCURVE",
"437.016 355.344 OFFCURVE",
"438.208 371.328 CURVE SMOOTH",
"439.163 384.144 OFFCURVE",
"442.251 388.129 OFFCURVE",
"406.866 457.584 CURVE"
);
},
{
closed = 1;
nodes = (
"785.098 247.416 OFFCURVE",
"773.303 256.071 OFFCURVE",
"773.303 266.328 CURVE SMOOTH",
"773.303 276.593 OFFCURVE",
"785.098 285.247 OFFCURVE",
"797.642 285.247 CURVE SMOOTH",
"810.187 285.247 OFFCURVE",
"821.982 276.593 OFFCURVE",
"821.982 266.328 CURVE SMOOTH",
"821.982 256.071 OFFCURVE",
"810.187 247.416 OFFCURVE",
"797.642 247.416 CURVE SMOOTH"
);
},
{
closed = 1;
nodes = (
"717.298 250.132 OFFCURVE",
"705.502 258.778 OFFCURVE",
"705.502 269.042 CURVE SMOOTH",
"705.502 279.306 OFFCURVE",
"717.297 287.96 OFFCURVE",
"729.844 287.96 CURVE SMOOTH",
"742.386 287.96 OFFCURVE",
"754.181 279.306 OFFCURVE",
"754.181 269.042 CURVE SMOOTH",
"754.181 258.778 OFFCURVE",
"742.385 250.132 OFFCURVE",
"729.844 250.132 CURVE SMOOTH"
);
},
{
closed = 1;
nodes = (
"850.188 258.266 OFFCURVE",
"838.39 266.915 OFFCURVE",
"838.39 277.18 CURVE SMOOTH",
"838.39 287.443 OFFCURVE",
"850.188 296.095 OFFCURVE",
"862.73 296.095 CURVE SMOOTH",
"875.273 296.095 OFFCURVE",
"887.069 287.443 OFFCURVE",
"887.069 277.18 CURVE SMOOTH",
"887.069 266.915 OFFCURVE",
"875.272 258.266 OFFCURVE",
"862.73 258.266 CURVE SMOOTH"
);
},
{
closed = 1;
nodes = (
"652.21 274.533 OFFCURVE",
"640.415 283.188 OFFCURVE",
"640.415 293.45 CURVE SMOOTH",
"640.415 303.714 OFFCURVE",
"652.21 312.369 OFFCURVE",
"664.755 312.369 CURVE SMOOTH",
"677.299 312.369 OFFCURVE",
"689.095 303.714 OFFCURVE",
"689.095 293.45 CURVE SMOOTH",
"689.095 283.188 OFFCURVE",
"677.299 274.533 OFFCURVE",
"664.755 274.533 CURVE SMOOTH"
);
},
{
closed = 1;
nodes = (
"603.395 315.216 OFFCURVE",
"591.598 323.867 OFFCURVE",
"591.598 334.132 CURVE SMOOTH",
"591.598 344.393 OFFCURVE",
"603.395 353.046 OFFCURVE",
"615.938 353.046 CURVE SMOOTH",
"628.481 353.046 OFFCURVE",
"640.278 344.393 OFFCURVE",
"640.278 334.132 CURVE SMOOTH",
"640.278 323.867 OFFCURVE",
"628.481 315.216 OFFCURVE",
"615.938 315.216 CURVE SMOOTH"
);
},
{
closed = 1;
nodes = (
"556.345 387.787 OFFCURVE",
"568.14 396.438 OFFCURVE",
"580.682 396.438 CURVE SMOOTH",
"593.224 396.438 OFFCURVE",
"605.022 387.787 OFFCURVE",
"605.022 377.522 CURVE SMOOTH",
"605.022 367.261 OFFCURVE",
"593.225 358.608 OFFCURVE",
"580.682 358.608 CURVE SMOOTH",
"568.14 358.608 OFFCURVE",
"556.345 367.262 OFFCURVE",
"556.345 377.522 CURVE SMOOTH"
);
},
{
closed = 1;
nodes = (
"500.339 445.391 OFFCURVE",
"488.543 454.043 OFFCURVE",
"488.543 464.309 CURVE SMOOTH",
"488.543 474.572 OFFCURVE",
"500.339 483.223 OFFCURVE",
"512.88 483.223 CURVE SMOOTH",
"525.427 483.223 OFFCURVE",
"537.223 474.572 OFFCURVE",
"537.223 464.309 CURVE SMOOTH",
"537.223 454.043 OFFCURVE",
"525.427 445.391 OFFCURVE",
"512.88 445.391 CURVE SMOOTH"
);
},
{
closed = 1;
nodes = (
"448.811 475.223 OFFCURVE",
"437.014 483.876 OFFCURVE",
"437.014 494.138 CURVE SMOOTH",
"437.014 504.401 OFFCURVE",
"448.811 513.056 OFFCURVE",
"461.354 513.056 CURVE SMOOTH",
"473.898 513.056 OFFCURVE",
"485.694 504.401 OFFCURVE",
"485.694 494.138 CURVE SMOOTH",
"485.694 483.876 OFFCURVE",
"473.898 475.223 OFFCURVE",
"461.354 475.223 CURVE SMOOTH"
);
},
{
closed = 1;
nodes = (
"1513.94 -100 OFFCURVE",
"1527.81 -133 OFFCURVE",
"1569.28 -148 CURVE",
"1569.28 -148 OFFCURVE",
"1611.56 -158 OFFCURVE",
"1596.04 -188 CURVE SMOOTH",
"1588.25 -203 OFFCURVE",
"1517.02 -193 OFFCURVE",
"1517.02 -193 CURVE",
"1463.92 -187 OFFCURVE",
"1397.75 -162 OFFCURVE",
"1391.34 -66 CURVE",
"1376.96 -66 OFFCURVE",
"1362.39 -65 OFFCURVE",
"1347.67 -64 CURVE",
"1347.67 -76 LINE",
"1348.02 -83 OFFCURVE",
"1352.99 -165 OFFCURVE",
"1397.27 -192 CURVE SMOOTH",
"1433.08 -214 OFFCURVE",
"1421.18 -248 OFFCURVE",
"1367.34 -240 CURVE SMOOTH",
"1345.65 -237 OFFCURVE",
"1237 -217 OFFCURVE",
"1227.18 -70 CURVE",
"1227.18 -61 LINE",
"1220.81 -61 OFFCURVE",
"1214.41 -61 OFFCURVE",
"1208 -61 CURVE SMOOTH",
"1199.96 -61 OFFCURVE",
"1191.95 -61 OFFCURVE",
"1183.97 -61 CURVE",
"1183.97 -70 LINE",
"1167 -238 OFFCURVE",
"1048.22 -242 OFFCURVE",
"1048.22 -242 CURVE",
"983.87 -252 OFFCURVE",
"978.883 -214 OFFCURVE",
"1011.04 -195 CURVE SMOOTH",
"1059.3 -166 OFFCURVE",
"1063.49 -76 OFFCURVE",
"1063.49 -76 CURVE",
"1063.49 -64 LINE",
"1048.68 -65 OFFCURVE",
"1034.04 -66 OFFCURVE",
"1019.59 -67 CURVE",
"1010.12 -173 OFFCURVE",
"904.37 -191 OFFCURVE",
"904.37 -191 CURVE",
"904.37 -195 OFFCURVE",
"829 -202 OFFCURVE",
"815.727 -191 CURVE",
"815.727 -191 OFFCURVE",
"792.556 -169 OFFCURVE",
"849.101 -148 CURVE",
"860.679 -142 LINE",
"862.101 -141 OFFCURVE",
"863.476 -140 OFFCURVE",
"864.805 -139 CURVE SMOOTH",
"868.657 -136 LINE",
"886.915 -120 OFFCURVE",
"895.579 -96 OFFCURVE",
"899.691 -77 CURVE",
"661.988 -103 OFFCURVE",
"497.999 -158 OFFCURVE",
"497.999 -221 CURVE SMOOTH",
"497.999 -309 OFFCURVE",
"815.874 -381 OFFCURVE",
"1208 -381 CURVE SMOOTH",
"1600.12 -381 OFFCURVE",
"1918 -309 OFFCURVE",
"1918 -221 CURVE SMOOTH",
"1918 -157 OFFCURVE",
"1750.87 -102 OFFCURVE",
"1509.49 -76 CURVE"
);
}
);
width = 2400;
}
);
unicode = E176;
},
{
glyphname = uniE177;
lastChange = "2013-12-02 23:53:15 -0800";
layers = (
{
layerId = "06D35582-4FA2-40C1-8C5B-DEFCD1A2473F";
name = Regular;
paths = (
{
closed = 1;
nodes = (
"1803.81 1706.78 LINE SMOOTH",
"1782.77 1704.21 OFFCURVE",
"1745.28 1699.75 OFFCURVE",
"1691.42 1678.67 CURVE SMOOTH",
"1637.57 1657.61 OFFCURVE",
"1574.36 1622.49 OFFCURVE",
"1506.45 1577.99 CURVE",
"1408.1 1603.75 OFFCURVE",
"1307.42 1617.81 OFFCURVE",
"1206.74 1617.81 CURVE SMOOTH",
"1106.06 1617.81 OFFCURVE",
"1005.37 1603.75 OFFCURVE",
"907.029 1577.99 CURVE",
"864.881 1608.43 OFFCURVE",
"825.078 1631.85 OFFCURVE",
"785.273 1650.58 CURVE SMOOTH",
"708.004 1688.05 OFFCURVE",
"665.857 1699.75 OFFCURVE",
"628.394 1704.43 CURVE SMOOTH",
"607.321 1706.78 OFFCURVE",
"595.614 1706.78 OFFCURVE",
"590.931 1706.78 CURVE",
"583.908 1704.43 OFFCURVE",
"579.224 1704.43 OFFCURVE",
"576.881 1702.09 CURVE",
"532.394 1587.37 OFFCURVE",
"527.712 1479.66 OFFCURVE",
"565.176 1383.66 CURVE",
"483.224 1297.02 OFFCURVE",
"441.078 1189.31 OFFCURVE",
"441.078 1062.87 CURVE SMOOTH",
"441.078 973.9 OFFCURVE",
"452.786 896.629 OFFCURVE",
"473.857 828.729 CURVE SMOOTH",
"482.518 802.494 LINE",
"438.76 804.542 OFFCURVE",
"401.343 805.793 OFFCURVE",
"365.976 806.412 CURVE SMOOTH",
"201.905 809.286 OFFCURVE",
"69.661 797.568 OFFCURVE",
"-50 769.535 CURVE SMOOTH",
"-52 769.033 OFFCURVE",
"-54 767.723 OFFCURVE",
"-55 765.844 CURVE SMOOTH",
"-56 763.969 OFFCURVE",
"-57 761.75 OFFCURVE",
"-56 759.599 CURVE",
"-56 755.901 OFFCURVE",
"-52 753.266 OFFCURVE",
"-48 753.204 CURVE",
"-46 753.419 LINE",
"73.29 781.424 OFFCURVE",
"201.376 792.601 OFFCURVE",
"368.848 789.672 CURVE SMOOTH",
"406.33 789.017 OFFCURVE",
"445.546 787.692 OFFCURVE",
"488.693 785.621 CURVE",
"494.975 769.156 OFFCURVE",
"501.665 753.66 OFFCURVE",
"508.802 739.044 CURVE",
"311.722 731.845 OFFCURVE",
"111.064 699.194 OFFCURVE",
"-43 649.073 CURVE",
"-46 648.393 OFFCURVE",
"-47 646.94 OFFCURVE",
"-48 644.967 CURVE SMOOTH",
"-49 643.003 OFFCURVE",
"-49 640.759 OFFCURVE",
"-49 638.656 CURVE",
"-48 635.168 OFFCURVE",
"-44 632.862 OFFCURVE",
"-41 632.922 CURVE",
"-38 633.33 LINE",
"116.774 683.659 OFFCURVE",
"319.036 716.211 OFFCURVE",
"517.126 722.779 CURVE",
"556.605 649.13 OFFCURVE",
"608.953 599.061 OFFCURVE",
"679.907 559.46 CURVE SMOOTH",
"780.591 503.264 OFFCURVE",
"877.225 482.192 OFFCURVE",
"996.645 470.485 CURVE",
"963.32 444.164 OFFCURVE",
"924.557 394.14 OFFCURVE",
"910.719 329.656 CURVE",
"858.879 304.949 OFFCURVE",
"694.811 244.64 OFFCURVE",
"596.354 413.395 CURVE",
"596.354 413.395 OFFCURVE",
"541.246 513.809 OFFCURVE",
"435.774 521.66 CURVE",
"435.774 521.66 OFFCURVE",
"333.459 523.225 OFFCURVE",
"428.707 458.122 CURVE",
"428.707 458.122 OFFCURVE",
"497.169 425.966 OFFCURVE",
"544.41 305.161 CURVE",
"544.41 305.161 OFFCURVE",
"606.031 99 OFFCURVE",
"903.399 165 CURVE",
"903.399 -48 LINE",
"903.399 -48 OFFCURVE",
"902.734 -106 OFFCURVE",
"868.657 -136 CURVE",
"864.805 -139 LINE",
"860.679 -142 LINE",
"849.101 -148 LINE",
"792.556 -169 OFFCURVE",
"815.727 -191 OFFCURVE",
"815.727 -191 CURVE",
"829 -202 OFFCURVE",
"904.37 -195 OFFCURVE",
"904.37 -191 CURVE",
"904.37 -191 OFFCURVE",
"1018.45 -172 OFFCURVE",
"1020.26 -54 CURVE SMOOTH",
"1020.3 181 LINE",
"1020.3 181 OFFCURVE",
"1018.11 276.071 OFFCURVE",
"1063.49 308.079 CURVE",
"1063.49 -76 LINE",
"1063.49 -76 OFFCURVE",
"1059.3 -166 OFFCURVE",
"1011.04 -195 CURVE SMOOTH",
"978.883 -214 OFFCURVE",
"983.87 -252 OFFCURVE",
"1048.22 -242 CURVE",
"1048.22 -242 OFFCURVE",
"1167 -238 OFFCURVE",
"1183.97 -70 CURVE",
"1183.97 321.619 LINE",
"1227.18 321.619 LINE",
"1227.18 -70 LINE",
"1237 -217 OFFCURVE",
"1345.65 -237 OFFCURVE",
"1367.34 -240 CURVE SMOOTH",
"1421.18 -248 OFFCURVE",
"1433.08 -214 OFFCURVE",
"1397.27 -192 CURVE SMOOTH",
"1352.99 -165 OFFCURVE",
"1348.02 -83 OFFCURVE",
"1347.67 -76 CURVE",
"1347.65 305.368 LINE",
"1392.99 270.153 OFFCURVE",
"1390.83 181 OFFCURVE",
"1390.83 181 CURVE",
"1390.83 -51 LINE SMOOTH",
"1390.83 -159 OFFCURVE",
"1461.16 -187 OFFCURVE",
"1517.02 -193 CURVE",
"1517.02 -193 OFFCURVE",
"1588.25 -203 OFFCURVE",
"1596.04 -188 CURVE SMOOTH",
"1611.56 -158 OFFCURVE",
"1569.28 -148 OFFCURVE",
"1569.28 -148 CURVE",
"1500.02 -123 OFFCURVE",
"1507.74 -48 OFFCURVE",
"1507.74 -48 CURVE",
"1507.74 256.579 LINE SMOOTH",
"1507.74 361.598 OFFCURVE",
"1457.52 434.8 OFFCURVE",
"1414.49 470.485 CURVE",
"1473.04 477.508 OFFCURVE",
"1536.89 486.873 OFFCURVE",
"1586.06 498.581 CURVE SMOOTH",
"1679.72 524.337 OFFCURVE",
"1789.77 580.532 OFFCURVE",
"1857.66 664.826 CURVE SMOOTH",
"1871.19 681.736 OFFCURVE",
"1884.02 701.038 OFFCURVE",
"1895.86 722.588 CURVE",
"2092.16 715.601 OFFCURVE",
"2293.61 683.19 OFFCURVE",
"2447.29 633.331 CURVE",
"2449.68 632.923 LINE",
"2453.34 632.863 OFFCURVE",
"2456.55 635.169 OFFCURVE",
"2457.66 638.659 CURVE SMOOTH",
"2458.35 640.762 OFFCURVE",
"2458.16 643.006 OFFCURVE",
"2457.17 644.968 CURVE SMOOTH",
"2456.16 646.941 OFFCURVE",
"2454.46 648.394 OFFCURVE",
"2452.36 649.074 CURVE SMOOTH",
"2298.98 698.833 OFFCURVE",
"2100.11 731.371 OFFCURVE",
"1904.41 738.885 CURVE",
"1911.79 753.62 OFFCURVE",
"1918.72 769.289 OFFCURVE",
"1925.13 785.858 CURVE",
"1966.35 787.793 OFFCURVE",
"2004.02 789.044 OFFCURVE",
"2040.07 789.674 CURVE SMOOTH",
"2207.55 792.604 OFFCURVE",
"2335.63 781.426 OFFCURVE",
"2455.39 753.423 CURVE",
"2457.4 753.205 LINE",
"2461.19 753.268 OFFCURVE",
"2464.43 755.903 OFFCURVE",
"2465.28 759.601 CURVE SMOOTH",
"2465.79 761.752 OFFCURVE",
"2465.42 763.972 OFFCURVE",
"2464.26 765.846 CURVE SMOOTH",
"2463.09 767.726 OFFCURVE",
"2461.28 769.036 OFFCURVE",
"2459.13 769.538 CURVE SMOOTH",
"2339.27 797.571 OFFCURVE",
"2207.02 809.288 OFFCURVE",
"2042.94 806.414 CURVE SMOOTH",
"2008.85 805.817 OFFCURVE",
"1973.09 804.633 OFFCURVE",
"1931.35 802.714 CURVE",
"1956.76 874.813 OFFCURVE",
"1972.4 962.513 OFFCURVE",
"1972.4 1062.87 CURVE SMOOTH",
"1972.4 1186.97 OFFCURVE",
"1930.25 1292.34 OFFCURVE",
"1848.3 1383.66 CURVE",
"1885.77 1479.66 OFFCURVE",
"1878.21 1595.72 OFFCURVE",
"1833.73 1710.44 CURVE"
);
},
{
closed = 1;
nodes = (
"472.588 509.057 OFFCURVE",
"481.694 502.376 OFFCURVE",
"481.694 494.139 CURVE SMOOTH",
"481.694 485.905 OFFCURVE",
"472.588 479.224 OFFCURVE",
"461.355 479.224 CURVE SMOOTH",
"450.121 479.224 OFFCURVE",
"441.014 485.905 OFFCURVE",
"441.014 494.139 CURVE SMOOTH",
"441.014 502.376 OFFCURVE",
"450.121 509.057 OFFCURVE",
"461.355 509.057 CURVE SMOOTH"
);
},
{
closed = 1;
nodes = (
"524.117 479.224 OFFCURVE",
"533.223 472.546 OFFCURVE",
"533.223 464.31 CURVE SMOOTH",
"533.223 456.072 OFFCURVE",
"524.117 449.392 OFFCURVE",
"512.88 449.392 CURVE SMOOTH",
"501.649 449.392 OFFCURVE",
"492.544 456.072 OFFCURVE",
"492.544 464.31 CURVE SMOOTH",
"492.544 472.546 OFFCURVE",
"501.649 479.224 OFFCURVE",
"512.88 479.224 CURVE SMOOTH"
);
},
{
closed = 1;
nodes = (
"562.085 438.543 OFFCURVE",
"571.191 431.867 OFFCURVE",
"571.191 423.627 CURVE SMOOTH",
"571.191 415.395 OFFCURVE",
"562.085 408.713 OFFCURVE",
"550.85 408.713 CURVE SMOOTH",
"539.618 408.713 OFFCURVE",
"530.511 415.395 OFFCURVE",
"530.511 423.627 CURVE SMOOTH",
"530.511 431.867 OFFCURVE",
"539.618 438.543 OFFCURVE",
"550.85 438.543 CURVE SMOOTH"
);
},
{
closed = 1;
nodes = (
"591.915 392.44 OFFCURVE",
"601.023 385.761 OFFCURVE",
"601.023 377.524 CURVE SMOOTH",
"601.023 369.289 OFFCURVE",
"591.915 362.61 OFFCURVE",
"580.682 362.61 CURVE SMOOTH",
"569.45 362.61 OFFCURVE",
"560.345 369.289 OFFCURVE",
"560.345 377.524 CURVE SMOOTH",
"560.345 385.761 OFFCURVE",
"569.45 392.44 OFFCURVE",
"580.682 392.44 CURVE SMOOTH"
);
},
{
closed = 1;
nodes = (
"627.171 349.047 OFFCURVE",
"636.278 342.368 OFFCURVE",
"636.278 334.132 CURVE SMOOTH",
"636.278 325.895 OFFCURVE",
"627.171 319.216 OFFCURVE",
"615.939 319.216 CURVE SMOOTH",
"604.705 319.216 OFFCURVE",
"595.598 325.895 OFFCURVE",
"595.598 334.132 CURVE SMOOTH",
"595.598 342.368 OFFCURVE",
"604.705 349.047 OFFCURVE",
"615.939 349.047 CURVE SMOOTH"
);
},
{
closed = 1;
nodes = (
"675.989 308.371 OFFCURVE",
"685.095 301.689 OFFCURVE",
"685.095 293.452 CURVE SMOOTH",
"685.095 285.215 OFFCURVE",
"675.989 278.535 OFFCURVE",
"664.755 278.535 CURVE SMOOTH",
"653.521 278.535 OFFCURVE",
"644.415 285.215 OFFCURVE",
"644.415 293.452 CURVE SMOOTH",
"644.415 301.689 OFFCURVE",
"653.521 308.371 OFFCURVE",
"664.755 308.371 CURVE SMOOTH"
);
},
{
closed = 1;
nodes = (
"873.963 292.095 OFFCURVE",
"883.069 285.417 OFFCURVE",
"883.069 277.18 CURVE SMOOTH",
"883.069 268.944 OFFCURVE",
"873.963 262.266 OFFCURVE",
"862.731 262.266 CURVE SMOOTH",
"851.497 262.266 OFFCURVE",
"842.39 268.944 OFFCURVE",
"842.39 277.18 CURVE SMOOTH",
"842.39 285.417 OFFCURVE",
"851.497 292.095 OFFCURVE",
"862.731 292.095 CURVE SMOOTH"
);
},
{
closed = 1;
nodes = (
"741.076 283.961 OFFCURVE",
"750.181 277.281 OFFCURVE",
"750.181 269.043 CURVE SMOOTH",
"750.181 260.806 OFFCURVE",
"741.076 254.132 OFFCURVE",
"729.844 254.132 CURVE SMOOTH",
"718.607 254.132 OFFCURVE",
"709.503 260.806 OFFCURVE",
"709.503 269.043 CURVE SMOOTH",
"709.503 277.281 OFFCURVE",
"718.607 283.961 OFFCURVE",
"729.844 283.961 CURVE SMOOTH"
);
},
{
closed = 1;
nodes = (
"808.878 281.248 OFFCURVE",
"817.982 274.568 OFFCURVE",
"817.982 266.329 CURVE SMOOTH",
"817.982 258.098 OFFCURVE",
"808.878 251.417 OFFCURVE",
"797.642 251.417 CURVE SMOOTH",
"786.408 251.417 OFFCURVE",
"777.302 258.098 OFFCURVE",
"777.302 266.329 CURVE SMOOTH",
"777.302 274.568 OFFCURVE",
"786.408 281.248 OFFCURVE",
"797.642 281.248 CURVE SMOOTH"
);
}
);
width = 2400;
}
);
unicode = E177;
},
